<svg width="462" height="744" viewBox="0 0 462 744" fill="none" xmlns="http://www.w3.org/2000/svg">
<line x1="108.161" y1="642.886" x2="166.161" y2="642.979" stroke="#3D3D3F" stroke-width="7"/>
<line x1="43.6624" y1="580.275" x2="74.8748" y2="630.422" stroke="#3D3D3F" stroke-width="7"/>
<line x1="82.4822" y1="507.522" x2="48.4248" y2="555.783" stroke="#3D3D3F" stroke-width="7"/>
<line x1="162.628" y1="492.867" x2="103.566" y2="492.081" stroke="#3D3D3F" stroke-width="7"/>
<line x1="226.625" y1="540.023" x2="188.453" y2="494.947" stroke="#3D3D3F" stroke-width="7"/>
<line x1="184.275" y1="459.801" x2="184.738" y2="410.912" stroke="#3D3D3F" stroke-width="7"/>
<line x1="161.416" y1="375.423" x2="120.405" y2="355.439" stroke="#3D3D3F" stroke-width="7"/>
<line x1="328.581" y1="350.065" x2="295.994" y2="346.392" stroke="#3D3D3F" stroke-width="7"/>
<line x1="248.282" y1="221.784" x2="209.629" y2="197.551" stroke="#3D3D3F" stroke-width="7"/>
<line x1="100.235" y1="311.226" x2="100.195" y2="265.605" stroke="#3D3D3F" stroke-width="7"/>
<line x1="39.4797" y1="232.259" x2="85.0967" y2="232.847" stroke="#3D3D3F" stroke-width="7"/>
<line x1="-44.0405" y1="250.229" x2="0.501187" y2="240.365" stroke="#3D3D3F" stroke-width="7"/>
<line x1="9.42985" y1="212.938" x2="-9.51588" y2="171.438" stroke="#3D3D3F" stroke-width="7"/>
<line x1="19.2032" y1="106.599" x2="9.28337" y2="82.4406" stroke="#3D3D3F" stroke-width="7"/>
<line x1="-3.91193" y1="142.301" x2="16.9543" y2="115.777" stroke="#3D3D3F" stroke-width="7"/>
<line x1="28.0188" y1="106.757" x2="52.0188" y2="106.796" stroke="#3D3D3F" stroke-width="7"/>
<line x1="182.844" y1="156.84" x2="182.803" y2="111.219" stroke="#3D3D3F" stroke-width="7"/>
<line x1="202.316" y1="58.1548" x2="238.062" y2="29.8098" stroke="#3D3D3F" stroke-width="7"/>
<line x1="310.45" y1="53.7114" x2="272.607" y2="28.2324" stroke="#3D3D3F" stroke-width="7"/>
<line x1="275.044" y1="311.559" x2="274.252" y2="265.945" stroke="#3D3D3F" stroke-width="7"/>
<line x1="124.718" y1="218.842" x2="164.928" y2="197.291" stroke="#3D3D3F" stroke-width="7"/>
<line x1="208.283" y1="374.267" x2="249.432" y2="354.568" stroke="#3D3D3F" stroke-width="7"/>
<line x1="320.242" y1="578.933" x2="262.8" y2="565.172" stroke="#3D3D3F" stroke-width="7"/>
<line x1="405.283" y1="622.502" x2="355.108" y2="591.334" stroke="#3D3D3F" stroke-width="7"/>
<line x1="440.418" y1="682.93" x2="420.594" y2="627.289" stroke="#3D3D3F" stroke-width="7"/>
<line x1="426.009" y1="616.775" x2="449.822" y2="598.688" stroke="#3D3D3F" stroke-width="7"/>
<line x1="354.172" y1="566.666" x2="379.577" y2="532.303" stroke="#3D3D3F" stroke-width="7"/>
<line x1="383.79" y1="508.888" x2="379.02" y2="472.062" stroke="#3D3D3F" stroke-width="7"/>
<line x1="379.985" y1="461.337" x2="395.099" y2="445.668" stroke="#3D3D3F" stroke-width="7"/>
<line x1="372.017" y1="464.225" x2="353.308" y2="462.988" stroke="#3D3D3F" stroke-width="7"/>
<line x1="76.6978" y1="486.313" x2="44.537" y2="436.769" stroke="#3D3D3F" stroke-width="7"/>
<line x1="36.4924" y1="434.68" x2="10.1505" y2="434.681" stroke="#3D3D3F" stroke-width="7"/>
<line x1="198.846" y1="624.526" x2="231.191" y2="575.102" stroke="#3D3D3F" stroke-width="7"/>
<line x1="9.98778" y1="724.318" x2="-14.1078" y2="694.704" stroke="#3D3D3F" stroke-width="7"/>
<line x1="-9.61039" y1="670.229" x2="15.1612" y2="654.575" stroke="#3D3D3F" stroke-width="7"/>
<circle cx="17.5218" cy="729.741" r="13" transform="rotate(-89.9083 17.5218 729.741)" fill="#3D3D3F" stroke="#3D3D3F"/>
<circle cx="33.6482" cy="650.767" r="25" transform="rotate(-89.9083 33.6482 650.767)" fill="#3D3D3F" stroke="#3D3D3F"/>
<circle cx="83.6579" cy="644.847" r="28" transform="rotate(-89.9083 83.6579 644.847)" fill="#3D3D3F" stroke="#3D3D3F"/>
<path d="M11.7804 568.232C11.8047 553.053 24.352 540.752 39.8244 540.777C55.2967 540.802 67.8046 553.142 67.7803 568.322C67.756 583.501 55.2087 595.802 39.7364 595.777C24.264 595.752 11.7561 583.412 11.7804 568.232Z" fill="#3D3D3F" stroke="#3D3D3F"/>
<circle cx="237.79" cy="562.094" r="28" transform="rotate(-89.9083 237.79 562.094)" fill="#3D3D3F" stroke="#3D3D3F"/>
<circle cx="335.761" cy="580.25" r="36" transform="rotate(-89.9083 335.761 580.25)" fill="#3D3D3F" stroke="#3D3D3F"/>
<circle cx="418.187" cy="626.882" r="21.5" transform="rotate(-89.9083 418.187 626.882)" fill="#3D3D3F" stroke="#3D3D3F"/>
<circle cx="443.59" cy="687.423" r="16" transform="rotate(-89.9083 443.59 687.423)" fill="#3D3D3F" stroke="#3D3D3F"/>
<circle cx="452.732" cy="598.438" r="7" transform="rotate(-89.9083 452.732 598.438)" fill="#3D3D3F" stroke="#3D3D3F"/>
<path d="M56.9017 492.304C56.926 477.125 69.4734 464.824 84.9457 464.849C100.418 464.874 112.926 477.214 112.902 492.394C112.877 507.573 100.33 519.874 84.8577 519.849C69.3854 519.824 56.8774 507.484 56.9017 492.304Z" fill="#3D3D3F" stroke="#3D3D3F"/>
<path d="M25.9908 436.755C26.0023 429.592 32.0385 423.764 39.5116 423.776C46.9848 423.788 53.0023 429.635 52.9908 436.798C52.9793 443.961 46.9432 449.788 39.47 449.776C31.9969 449.764 25.9794 443.917 25.9908 436.755Z" fill="#3D3D3F" stroke="#3D3D3F"/>
<path d="M-9.00444 433.699C-8.99564 428.198 -4.30961 423.706 1.51155 423.716C7.3327 423.725 12.0043 428.231 11.9955 433.732C11.9867 439.234 7.3007 443.725 1.47955 443.716C-4.34161 443.706 -9.01324 439.2 -9.00444 433.699Z" fill="#3D3D3F" stroke="#3D3D3F"/>
<path d="M150.911 486.954C150.935 471.482 163.276 458.974 178.455 458.999C193.635 459.023 205.935 471.57 205.911 487.042C205.886 502.515 193.545 515.023 178.366 514.998C163.186 514.974 150.886 502.427 150.911 486.954Z" fill="#3D3D3F" stroke="#3D3D3F"/>
<path d="M143.077 382.942C143.109 363.053 159.035 346.968 178.635 346.999C198.234 347.03 214.109 363.167 214.077 383.056C214.045 402.944 198.119 419.03 178.52 418.999C158.92 418.967 143.045 402.831 143.077 382.942Z" fill="#3D3D3F" stroke="#3D3D3F"/>
<circle cx="98.653" cy="335.371" r="35.5" transform="rotate(-89.9083 98.653 335.371)" fill="#3D3D3F" stroke="#3D3D3F"/>
<circle cx="98.8115" cy="236.371" r="35.5" transform="rotate(-89.9083 98.8115 236.371)" fill="#3D3D3F" stroke="#3D3D3F"/>
<path d="M143.392 185.942C143.424 166.053 159.35 149.968 178.95 149.999C198.55 150.03 214.424 166.167 214.392 186.056C214.36 205.944 198.434 222.03 178.835 221.999C159.235 221.967 143.361 205.831 143.392 185.942Z" fill="#3D3D3F" stroke="#3D3D3F"/>
<circle cx="186.559" cy="82.0111" r="36" transform="rotate(-89.9083 186.559 82.0111)" fill="#3D3D3F" stroke="#3D3D3F"/>
<circle cx="251.149" cy="25.6143" r="24.5" transform="rotate(-89.9083 251.149 25.6143)" fill="#3D3D3F" stroke="#3D3D3F"/>
<circle cx="315.103" cy="54.7167" r="21.5" transform="rotate(-89.9083 315.103 54.7167)" fill="#3D3D3F" stroke="#3D3D3F"/>
<path d="M-9.67972 230.697C-9.65319 214.121 3.58363 200.719 19.8682 200.745C36.1529 200.771 49.3467 214.215 49.3202 230.792C49.2937 247.368 36.0569 260.771 19.7722 260.745C3.48763 260.719 -9.70624 247.274 -9.67972 230.697Z" fill="#3D3D3F" stroke="#3D3D3F"/>
<circle cx="-12.5597" cy="155.693" r="24" transform="rotate(-89.9083 -12.5597 155.693)" fill="#3D3D3F" stroke="#3D3D3F"/>
<path d="M6.51232 110.723C6.52378 103.56 12.56 97.7327 20.0331 97.7446C27.5062 97.7566 33.5237 103.604 33.5123 110.766C33.5008 117.929 27.4646 123.757 19.9915 123.745C12.5184 123.733 6.50086 117.886 6.51232 110.723Z" fill="#3D3D3F" stroke="#3D3D3F"/>
<circle cx="50.0164" cy="108.293" r="10.5" transform="rotate(-89.9083 50.0164 108.293)" fill="#3D3D3F" stroke="#3D3D3F"/>
<path d="M-2.43553 78.2086C-2.42628 72.4304 2.48496 67.7165 8.58126 67.7262C14.6776 67.736 19.5737 72.4656 19.5644 78.2438C19.5552 84.0221 14.644 88.736 8.54766 88.7262C2.45136 88.7165 -2.44477 83.9869 -2.43553 78.2086Z" fill="#3D3D3F" stroke="#3D3D3F"/>
<path d="M235.312 236.09C235.344 216.201 251.27 200.115 270.87 200.146C290.469 200.178 306.344 216.314 306.312 236.203C306.28 256.092 290.354 272.178 270.754 272.146C251.155 272.115 235.28 255.978 235.312 236.09Z" fill="#3D3D3F" stroke="#3D3D3F"/>
<circle cx="270.653" cy="335.646" r="35.5" transform="rotate(-89.9083 270.653 335.646)" fill="#3D3D3F" stroke="#3D3D3F"/>
<circle cx="338.125" cy="353.254" r="21" transform="rotate(-89.9083 338.125 353.254)" fill="#3D3D3F" stroke="#3D3D3F"/>
<circle cx="380.349" cy="525.822" r="22.5" transform="rotate(-89.9083 380.349 525.822)" fill="#3D3D3F" stroke="#3D3D3F"/>
<circle cx="377.946" cy="465.318" r="14" transform="rotate(-89.9083 377.946 465.318)" fill="#3D3D3F" stroke="#3D3D3F"/>
<path d="M342.953 460.762C342.959 457.204 346.064 454.267 349.963 454.273C353.862 454.28 356.959 457.227 356.953 460.784C356.947 464.342 353.841 467.28 349.942 467.273C346.043 467.267 342.947 464.32 342.953 460.762Z" fill="#3D3D3F" stroke="#3D3D3F"/>
<path d="M390.98 443.839C390.989 438.06 395.9 433.347 401.997 433.356C408.093 433.366 412.989 438.096 412.98 443.874C412.97 449.652 408.059 454.366 401.963 454.356C395.867 454.347 390.971 449.617 390.98 443.839Z" fill="#3D3D3F" stroke="#3D3D3F"/>
<circle cx="178.159" cy="644.498" r="27.5" transform="rotate(-89.9083 178.159 644.498)" fill="#3D3D3F" stroke="#3D3D3F"/>
</svg>
