<svg width="743" height="594" viewBox="0 0 743 594" fill="none" xmlns="http://www.w3.org/2000/svg">
<line x1="65.5" y1="31" x2="65.5" y2="89" stroke="white" stroke-width="7"/>
<line x1="100.5" y1="242" x2="100.5" y2="300" stroke="white" stroke-width="7"/>
<line x1="163.009" y1="177.401" x2="112.911" y2="208.694" stroke="white" stroke-width="7"/>
<line x1="235.822" y1="216.105" x2="187.508" y2="182.124" stroke="white" stroke-width="7"/>
<line x1="250.606" y1="296.227" x2="251.298" y2="237.164" stroke="white" stroke-width="7"/>
<line x1="203.552" y1="360.3" x2="248.567" y2="322.056" stroke="white" stroke-width="7"/>
<line x1="283.707" y1="317.821" x2="332.597" y2="318.205" stroke="white" stroke-width="7"/>
<line x1="368.048" y1="294.827" x2="387.966" y2="253.784" stroke="white" stroke-width="7"/>
<line x1="393.674" y1="461.951" x2="397.295" y2="429.358" stroke="white" stroke-width="7"/>
<line x1="521.827" y1="381.447" x2="545.997" y2="342.755" stroke="white" stroke-width="7"/>
<line x1="432.148" y1="233.544" x2="477.768" y2="233.43" stroke="white" stroke-width="7"/>
<line x1="511.017" y1="172.662" x2="510.502" y2="218.28" stroke="white" stroke-width="7"/>
<line x1="492.914" y1="89.1704" x2="502.849" y2="133.696" stroke="white" stroke-width="7"/>
<line x1="530.289" y1="142.581" x2="571.76" y2="123.569" stroke="white" stroke-width="7"/>
<line x1="636.644" y1="152.184" x2="660.787" y2="142.226" stroke="white" stroke-width="7"/>
<line x1="600.906" y1="129.126" x2="627.463" y2="149.95" stroke="white" stroke-width="7"/>
<line x1="636.5" y1="161" x2="636.5" y2="185" stroke="white" stroke-width="7"/>
<line x1="526.055" y1="32.2024" x2="491.811" y2="62.3457" stroke="white" stroke-width="7"/>
<line x1="477.394" y1="66.2179" x2="433.594" y2="53.4568" stroke="white" stroke-width="7"/>
<line x1="586.665" y1="315.905" x2="632.286" y2="315.791" stroke="white" stroke-width="7"/>
<line x1="685.382" y1="335.219" x2="713.784" y2="370.92" stroke="white" stroke-width="7"/>
<line x1="689.998" y1="443.346" x2="715.416" y2="405.463" stroke="white" stroke-width="7"/>
<line x1="432.094" y1="408.353" x2="477.706" y2="407.488" stroke="white" stroke-width="7"/>
<line x1="524.57" y1="257.879" x2="546.186" y2="298.054" stroke="white" stroke-width="7"/>
<line x1="369.279" y1="341.692" x2="389.044" y2="382.809" stroke="white" stroke-width="7"/>
<line x1="164.792" y1="453.978" x2="178.461" y2="396.514" stroke="white" stroke-width="7"/>
<line x1="121.36" y1="539.089" x2="152.447" y2="488.864" stroke="white" stroke-width="7"/>
<line x1="60.988" y1="574.321" x2="116.597" y2="554.408" stroke="white" stroke-width="7"/>
<line x1="127.12" y1="559.806" x2="145.245" y2="583.59" stroke="white" stroke-width="7"/>
<line x1="177.113" y1="487.888" x2="211.517" y2="513.238" stroke="white" stroke-width="7"/>
<line x1="234.939" y1="517.414" x2="271.757" y2="512.586" stroke="white" stroke-width="7"/>
<line x1="282.484" y1="513.533" x2="298.177" y2="528.622" stroke="white" stroke-width="7"/>
<line x1="279.583" y1="505.57" x2="280.791" y2="486.859" stroke="white" stroke-width="7"/>
<line x1="257.023" y1="210.286" x2="306.516" y2="178.046" stroke="white" stroke-width="7"/>
<line x1="308.592" y1="169.998" x2="308.548" y2="143.656" stroke="white" stroke-width="7"/>
<line x1="318.695" y1="129.867" x2="333.899" y2="120.733" stroke="white" stroke-width="7"/>
<line x1="289.193" y1="121.159" x2="305.001" y2="129.203" stroke="white" stroke-width="7"/>
<line x1="119.006" y1="332.656" x2="168.481" y2="364.922" stroke="white" stroke-width="7"/>
<line x1="18.9117" y1="143.957" x2="48.4868" y2="119.814" stroke="white" stroke-width="7"/>
<line x1="72.9695" y1="124.273" x2="88.6624" y2="149.019" stroke="white" stroke-width="7"/>
<circle cx="62" cy="106" r="26" fill="#FFFEFE"/>
<circle cx="65" cy="21" r="21" fill="#FFFEFE"/>
<circle cx="13.5" cy="151.5" r="13.5" fill="#FFFEFE"/>
<circle cx="92.5" cy="167.5" r="25.5" fill="#FFFEFE"/>
<circle cx="98.5" cy="217.5" r="28.5" fill="#FFFEFE"/>
<ellipse cx="175" cy="173.5" rx="28" ry="28.5" fill="#FFFEFE"/>
<circle cx="181.5" cy="371.5" r="28.5" fill="#FFFEFE"/>
<circle cx="163.5" cy="469.5" r="36.5" fill="#FFFEFE"/>
<circle cx="117" cy="552" r="22" fill="#FFFEFE"/>
<circle cx="56.5" cy="577.5" r="16.5" fill="#FFFEFE"/>
<circle cx="145.5" cy="586.5" r="7.5" fill="#FFFEFE"/>
<ellipse cx="251" cy="218.5" rx="28" ry="28.5" fill="#FFFEFE"/>
<ellipse cx="306.5" cy="173" rx="13.5" ry="14" fill="#FFFEFE"/>
<ellipse cx="309.5" cy="135" rx="10.5" ry="11" fill="#FFFEFE"/>
<ellipse cx="338.5" cy="118" rx="7.5" ry="8" fill="#FFFEFE"/>
<circle cx="286.5" cy="120.5" r="5.5" fill="#FFFEFE"/>
<ellipse cx="256.5" cy="312" rx="28.5" ry="28" fill="#FFFEFE"/>
<ellipse cx="360.5" cy="312" rx="36.5" ry="36" fill="#FFFEFE"/>
<circle cx="408" cy="232" r="36" fill="#FFFEFE"/>
<circle cx="507" cy="232" r="36" fill="#FFFEFE"/>
<ellipse cx="557.5" cy="312" rx="36.5" ry="36" fill="#FFFEFE"/>
<circle cx="661.5" cy="319.5" r="36.5" fill="#FFFEFE"/>
<circle cx="718" cy="384" r="25" fill="#FFFEFE"/>
<circle cx="689" cy="448" r="22" fill="#FFFEFE"/>
<ellipse cx="512.5" cy="153" rx="30.5" ry="30" fill="#FFFEFE"/>
<circle cx="587.5" cy="120.5" r="24.5" fill="#FFFEFE"/>
<circle cx="483" cy="75" r="25" fill="#FFFEFE"/>
<circle cx="533" cy="26" r="19" fill="#FFFEFE"/>
<ellipse cx="430.5" cy="48" rx="14.5" ry="15" fill="#FFFEFE"/>
<ellipse cx="632.5" cy="153" rx="13.5" ry="14" fill="#FFFEFE"/>
<circle cx="635" cy="183" r="11" fill="#FFFEFE"/>
<ellipse cx="665" cy="141.5" rx="11" ry="11.5" fill="#FFFEFE"/>
<ellipse cx="507.5" cy="404" rx="36.5" ry="36" fill="#FFFEFE"/>
<circle cx="408" cy="404" r="36" fill="#FFFEFE"/>
<circle cx="390.5" cy="471.5" r="21.5" fill="#FFFEFE"/>
<circle cx="218" cy="514" r="23" fill="#FFFEFE"/>
<circle cx="278.5" cy="511.5" r="14.5" fill="#FFFEFE"/>
<ellipse cx="283" cy="483.5" rx="7" ry="7.5" fill="#FFFEFE"/>
<ellipse cx="300" cy="535.5" rx="11" ry="11.5" fill="#FFFEFE"/>
<circle cx="99" cy="312" r="28" fill="#FFFEFE"/>
</svg>
