<svg width="743" height="587" viewBox="0 0 743 587" fill="none" xmlns="http://www.w3.org/2000/svg">
<path d="M648.498 234.5L648.497 261.13" stroke="#3D3D3F" stroke-width="7"/>
<line y1="-3.5" x2="59.0673" y2="-3.5" transform="matrix(0.848135 0.529779 0.529779 -0.848135 581.846 167.433)" stroke="#3D3D3F" stroke-width="7"/>
<line y1="-3.5" x2="59.0673" y2="-3.5" transform="matrix(0.817958 -0.575278 -0.575278 -0.817958 505.164 206.242)" stroke="#3D3D3F" stroke-width="7"/>
<line y1="-3.5" x2="59.0673" y2="-3.5" transform="matrix(-0.0117192 -0.999931 -0.999931 0.0117192 488.895 289.268)" stroke="white" stroke-width="7"/>
<line y1="-3.5" x2="59.0673" y2="-3.5" transform="matrix(-0.762094 -0.647466 -0.647466 0.762094 537.182 355.967)" stroke="white" stroke-width="7"/>
<line y1="-3.5" x2="48.891" y2="-3.5" transform="matrix(-0.999969 0.00786802 0.00786802 0.999969 459.32 314.321)" stroke="white" stroke-width="7"/>
<line y1="-3.5" x2="45.6208" y2="-3.5" transform="matrix(-0.436598 -0.899657 -0.899657 0.436598 371.803 289.355)" stroke="white" stroke-width="7"/>
<line y1="-3.5" x2="32.7936" y2="-3.5" transform="matrix(-0.110432 -0.993884 -0.993884 0.110432 345.848 455.338)" stroke="white" stroke-width="7"/>
<line y1="-3.5" x2="45.6208" y2="-3.5" transform="matrix(-0.529811 -0.848116 -0.848116 0.529811 218.205 376.301)" stroke="white" stroke-width="7"/>
<line y1="-3.5" x2="45.6208" y2="-3.5" transform="matrix(-0.999997 -0.00249372 -0.00249372 0.999997 310.844 230.044)" stroke="white" stroke-width="7"/>
<line y1="-3.5" x2="45.6208" y2="-3.5" transform="matrix(0.0113019 0.999936 0.999936 -0.0113019 235.482 165.622)" stroke="white" stroke-width="7"/>
<line y1="-3.5" x2="45.6208" y2="-3.5" transform="matrix(-0.21778 0.975998 0.975998 0.21778 253.502 82.9326)" stroke="white" stroke-width="7"/>
<line y1="-3.5" x2="45.6208" y2="-3.5" transform="matrix(-0.909025 -0.416742 -0.416742 0.909025 211.252 138.763)" stroke="white" stroke-width="7"/>
<line y1="-3.5" x2="26.1162" y2="-3.5" transform="matrix(-0.924445 -0.381315 -0.381315 0.924445 105.021 148.42)" stroke="white" stroke-width="7"/>
<line y1="-3.5" x2="33.7479" y2="-3.5" transform="matrix(-0.786932 0.61704 0.61704 0.786932 144.254 124.881)" stroke="white" stroke-width="7"/>
<line y1="-3.5" x2="24" y2="-3.5" transform="matrix(6.32915e-10 1 1 -6.32915e-10 110 154)" stroke="white" stroke-width="7"/>
<line y1="-3.5" x2="45.6208" y2="-3.5" transform="matrix(0.750619 0.660736 0.660736 -0.750619 219.258 22.5752)" stroke="white" stroke-width="7"/>
<line y1="-3.5" x2="45.6208" y2="-3.5" transform="matrix(0.960081 -0.279723 -0.279723 -0.960081 264.627 55.8577)" stroke="white" stroke-width="7"/>
<line y1="-3.5" x2="45.6208" y2="-3.5" transform="matrix(-0.999997 -0.00249372 -0.00249372 0.999997 156.326 312.405)" stroke="white" stroke-width="7"/>
<line y1="-3.5" x2="45.6208" y2="-3.5" transform="matrix(-0.622571 0.782563 0.782563 0.622571 60.3574 330.398)" stroke="white" stroke-width="7"/>
<line y1="-3.5" x2="45.6208" y2="-3.5" transform="matrix(-0.557169 -0.8304 -0.8304 0.557169 50.0957 438.296)" stroke="white" stroke-width="7"/>
<line y1="-3.5" x2="45.6208" y2="-3.5" transform="matrix(-0.99982 -0.0189688 -0.0189688 0.99982 310.84 404.853)" stroke="white" stroke-width="7"/>
<line y1="-3.5" x2="45.6208" y2="-3.5" transform="matrix(-0.473804 0.88063 0.88063 0.473804 221.512 252.537)" stroke="white" stroke-width="7"/>
<line y1="-3.5" x2="45.6208" y2="-3.5" transform="matrix(-0.433239 0.901279 0.901279 0.433239 376.875 336.209)" stroke="white" stroke-width="7"/>
<line y1="-3.5" x2="59.0673" y2="-3.5" transform="matrix(-0.231414 -0.972855 -0.972855 0.231414 574.803 447.788)" stroke="white" stroke-width="7"/>
<line y1="-3.5" x2="59.0673" y2="-3.5" transform="matrix(-0.526301 -0.850299 -0.850299 0.526301 618.664 533.931)" stroke="white" stroke-width="7"/>
<line y1="-3.5" x2="59.0673" y2="-3.5" transform="matrix(-0.941458 -0.337131 -0.337131 0.941458 680.832 570.616)" stroke="white" stroke-width="7"/>
<line y1="-3.5" x2="29.903" y2="-3.5" transform="matrix(-0.606124 0.795371 0.795371 0.606124 618.664 554.928)" stroke="white" stroke-width="7"/>
<line y1="-3.5" x2="42.7346" y2="-3.5" transform="matrix(-0.805056 0.593199 0.593199 0.805056 567.963 483.706)" stroke="white" stroke-width="7"/>
<line y1="-3.5" x2="37.1333" y2="-3.5" transform="matrix(-0.99151 -0.130034 -0.130034 0.99151 507.605 513.885)" stroke="white" stroke-width="7"/>
<line y1="-3.5" x2="21.7705" y2="-3.5" transform="matrix(-0.720833 0.693109 0.693109 0.720833 462.941 509.056)" stroke="white" stroke-width="7"/>
<line y1="-3.5" x2="18.7497" y2="-3.5" transform="matrix(-0.0643823 -0.997925 -0.997925 0.0643823 459.924 498.795)" stroke="white" stroke-width="7"/>
<line y1="-3.5" x2="59.0673" y2="-3.5" transform="matrix(-0.837903 -0.545819 -0.545819 0.837903 484.066 206.219)" stroke="white" stroke-width="7"/>
<line y1="-3.5" x2="26.3419" y2="-3.5" transform="matrix(0.00165583 -0.999999 -0.999999 -0.00165583 430.908 162.992)" stroke="white" stroke-width="7"/>
<line y1="-3.5" x2="17.7369" y2="-3.5" transform="matrix(-0.857182 -0.515014 -0.515014 0.857182 422.502 125.867)" stroke="white" stroke-width="7"/>
<line y1="-3.5" x2="17.7369" y2="-3.5" transform="matrix(-0.891235 0.453542 0.453542 0.891235 455.395 117.278)" stroke="white" stroke-width="7"/>
<line y1="-3.5" x2="59.0673" y2="-3.5" transform="matrix(-0.837617 0.546259 0.546259 0.837617 628.477 318)" stroke="white" stroke-width="7"/>
<line x1="648.5" y1="261" x2="648.501" y2="280.266" stroke="white" stroke-width="7"/>
<line y1="-3.5" x2="38.1782" y2="-3.5" transform="matrix(-0.774661 -0.632376 -0.632376 0.774661 721.875 139.668)" stroke="#3D3D3F" stroke-width="7"/>
<line y1="-3.5" x2="29.3029" y2="-3.5" transform="matrix(-0.535542 0.844509 0.844509 0.535542 672.986 119.147)" stroke="#3D3D3F" stroke-width="7"/>
<circle cx="26" cy="26" r="26" transform="matrix(-1 0 0 1 707 73)" fill="#3D3D3F"/>
<circle cx="13.5" cy="13.5" r="13" transform="matrix(-1 0 0 1 743 131)" fill="#3D3D3F" stroke="#3D3D3F"/>
<circle cx="25.5" cy="25.5" r="25.5" transform="matrix(-1 0 0 1 676 135)" fill="#3D3D3F"/>
<circle cx="28.5" cy="28.5" r="28.5" transform="matrix(-1 0 0 1 673 182)" fill="#3D3D3F"/>
<ellipse cx="28" cy="28.5" rx="28" ry="28.5" transform="matrix(-1 0 0 1 596 138)" fill="#3D3D3F"/>
<circle cx="28.5" cy="28.5" r="28.5" transform="matrix(-1 0 0 1 590 336)" fill="#FFFEFE"/>
<circle cx="36.5" cy="36.5" r="36.5" transform="matrix(-1 0 0 1 616 426)" fill="#FFFEFE"/>
<circle cx="22" cy="22" r="22" transform="matrix(-1 0 0 1 648 523)" fill="#FFFEFE"/>
<circle cx="16.5" cy="16.5" r="16.5" transform="matrix(-1 0 0 1 703 554)" fill="#FFFEFE"/>
<circle cx="7.5" cy="7.5" r="7.5" transform="matrix(-1 0 0 1 605 572)" fill="#FFFEFE"/>
<ellipse cx="28" cy="28.5" rx="28" ry="28.5" transform="matrix(-1 0 0 1 520 183)" fill="#3D3D3F"/>
<ellipse cx="13.5" cy="14" rx="13.5" ry="14" transform="matrix(-1 0 0 1 450 152)" fill="#FFFEFE"/>
<ellipse cx="10.5" cy="11" rx="10.5" ry="11" transform="matrix(-1 0 0 1 444 117)" fill="#FFFEFE"/>
<ellipse cx="7.5" cy="8" rx="7.5" ry="8" transform="matrix(-1 0 0 1 412 103)" fill="#FFFEFE"/>
<circle cx="5.5" cy="5.5" r="5.5" transform="matrix(-1 0 0 1 462 108)" fill="#FFFEFE"/>
<ellipse cx="28.5" cy="28" rx="28.5" ry="28" transform="matrix(-1 0 0 1 515 277)" fill="white"/>
<ellipse cx="36.5" cy="36" rx="36.5" ry="36" transform="matrix(-1 0 0 1 419 269)" fill="#FFFEFE"/>
<circle cx="36" cy="36" r="36" transform="matrix(-1 0 0 1 371 189)" fill="#FFFEFE"/>
<circle cx="36" cy="36" r="36" transform="matrix(-1 0 0 1 272 189)" fill="#FFFEFE"/>
<ellipse cx="36.5" cy="36" rx="36.5" ry="36" transform="matrix(-1 0 0 1 222 269)" fill="#FFFEFE"/>
<circle cx="36.5" cy="36.5" r="36.5" transform="matrix(-1 0 0 1 118 276)" fill="#FFFEFE"/>
<circle cx="25" cy="25" r="25" transform="matrix(-1 0 0 1 50 352)" fill="#FFFEFE"/>
<circle cx="22" cy="22" r="22" transform="matrix(-1 0 0 1 76 419)" fill="#FFFEFE"/>
<ellipse cx="30.5" cy="30" rx="30.5" ry="30" transform="matrix(-1 0 0 1 261 116)" fill="#FFFEFE"/>
<circle cx="24.5" cy="24.5" r="24.5" transform="matrix(-1 0 0 1 180 89)" fill="#FFFEFE"/>
<circle cx="25" cy="25" r="25" transform="matrix(-1 0 0 1 285 43)" fill="#FFFEFE"/>
<circle cx="19" cy="19" r="19" transform="matrix(-1 0 0 1 229 0)" fill="#FFFEFE"/>
<ellipse cx="14.5" cy="15" rx="14.5" ry="15" transform="matrix(-1 0 0 1 327 26)" fill="#FFFEFE"/>
<ellipse cx="13.5" cy="14" rx="13.5" ry="14" transform="matrix(-1 0 0 1 124 132)" fill="#FFFEFE"/>
<circle cx="11" cy="11" r="11" transform="matrix(-1 0 0 1 119 165)" fill="#FFFEFE"/>
<ellipse cx="11" cy="11.5" rx="11" ry="11.5" transform="matrix(-1 0 0 1 89 123)" fill="#FFFEFE"/>
<ellipse cx="36.5" cy="36" rx="36.5" ry="36" transform="matrix(-1 0 0 1 272 361)" fill="#FFFEFE"/>
<circle cx="36" cy="36" r="36" transform="matrix(-1 0 0 1 371 361)" fill="#FFFEFE"/>
<circle cx="21.5" cy="21.5" r="21.5" transform="matrix(-1 0 0 1 374 443)" fill="#FFFEFE"/>
<circle cx="23" cy="23" r="23" transform="matrix(-1 0 0 1 548 484)" fill="#FFFEFE"/>
<circle cx="14.5" cy="14.5" r="14.5" transform="matrix(-1 0 0 1 479 490)" fill="#FFFEFE"/>
<ellipse cx="7" cy="7.5" rx="7" ry="7.5" transform="matrix(-1 0 0 1 467 469)" fill="#FFFEFE"/>
<ellipse cx="11" cy="11.5" rx="11" ry="11.5" transform="matrix(-1 0 0 1 454 517)" fill="#FFFEFE"/>
<circle cx="28" cy="28" r="28" transform="matrix(-1 0 0 1 668 270)" fill="white"/>
</svg>
