<svg width="596" height="744" viewBox="0 0 596 744" fill="none" xmlns="http://www.w3.org/2000/svg">
<line x1="31.1052" y1="677.549" x2="89.1051" y2="677.642" stroke="#3D3D3F" stroke-width="7"/>
<line x1="242.162" y1="642.886" x2="300.162" y2="642.979" stroke="#3D3D3F" stroke-width="7"/>
<line x1="177.663" y1="580.275" x2="208.875" y2="630.422" stroke="#3D3D3F" stroke-width="7"/>
<line x1="216.483" y1="507.523" x2="182.425" y2="555.783" stroke="#3D3D3F" stroke-width="7"/>
<line x1="296.627" y1="492.868" x2="237.565" y2="492.081" stroke="#3D3D3F" stroke-width="7"/>
<line x1="360.626" y1="540.024" x2="322.454" y2="494.948" stroke="#3D3D3F" stroke-width="7"/>
<line x1="318.276" y1="459.801" x2="318.738" y2="410.912" stroke="#3D3D3F" stroke-width="7"/>
<line x1="295.416" y1="375.423" x2="254.405" y2="355.439" stroke="#3D3D3F" stroke-width="7"/>
<line x1="462.581" y1="350.065" x2="429.993" y2="346.392" stroke="#3D3D3F" stroke-width="7"/>
<line x1="382.282" y1="221.784" x2="343.629" y2="197.551" stroke="#3D3D3F" stroke-width="7"/>
<line x1="234.234" y1="311.226" x2="234.194" y2="265.605" stroke="#3D3D3F" stroke-width="7"/>
<line x1="173.479" y1="232.259" x2="219.096" y2="232.848" stroke="#3D3D3F" stroke-width="7"/>
<line x1="89.96" y1="250.229" x2="134.502" y2="240.365" stroke="#3D3D3F" stroke-width="7"/>
<line x1="143.429" y1="212.938" x2="124.484" y2="171.438" stroke="#3D3D3F" stroke-width="7"/>
<line x1="153.204" y1="106.6" x2="143.284" y2="82.4407" stroke="#3D3D3F" stroke-width="7"/>
<line x1="130.089" y1="142.301" x2="150.955" y2="115.777" stroke="#3D3D3F" stroke-width="7"/>
<line x1="162.019" y1="106.758" x2="186.019" y2="106.796" stroke="#3D3D3F" stroke-width="7"/>
<line x1="33.0449" y1="216.997" x2="63.1334" y2="251.289" stroke="#3D3D3F" stroke-width="7"/>
<line x1="66.9818" y1="265.712" x2="54.1505" y2="309.491" stroke="#3D3D3F" stroke-width="7"/>
<line x1="316.844" y1="156.84" x2="316.803" y2="111.219" stroke="#3D3D3F" stroke-width="7"/>
<line x1="336.316" y1="58.1548" x2="372.062" y2="29.8097" stroke="#3D3D3F" stroke-width="7"/>
<line x1="444.45" y1="53.7115" x2="406.607" y2="28.2324" stroke="#3D3D3F" stroke-width="7"/>
<line x1="409.043" y1="311.56" x2="408.251" y2="265.946" stroke="#3D3D3F" stroke-width="7"/>
<line x1="258.718" y1="218.842" x2="298.927" y2="197.291" stroke="#3D3D3F" stroke-width="7"/>
<line x1="342.284" y1="374.267" x2="383.432" y2="354.568" stroke="#3D3D3F" stroke-width="7"/>
<line x1="454.241" y1="578.933" x2="396.799" y2="565.173" stroke="#3D3D3F" stroke-width="7"/>
<line x1="539.282" y1="622.502" x2="489.107" y2="591.334" stroke="#3D3D3F" stroke-width="7"/>
<line x1="574.418" y1="682.93" x2="554.593" y2="627.289" stroke="#3D3D3F" stroke-width="7"/>
<line x1="560.01" y1="616.775" x2="583.823" y2="598.688" stroke="#3D3D3F" stroke-width="7"/>
<line x1="488.172" y1="566.667" x2="513.577" y2="532.303" stroke="#3D3D3F" stroke-width="7"/>
<line x1="517.791" y1="508.888" x2="513.021" y2="472.062" stroke="#3D3D3F" stroke-width="7"/>
<line x1="513.985" y1="461.337" x2="529.099" y2="445.668" stroke="#3D3D3F" stroke-width="7"/>
<line x1="506.017" y1="464.225" x2="487.308" y2="462.988" stroke="#3D3D3F" stroke-width="7"/>
<line x1="210.697" y1="486.313" x2="178.536" y2="436.769" stroke="#3D3D3F" stroke-width="7"/>
<line x1="170.492" y1="434.68" x2="144.151" y2="434.681" stroke="#3D3D3F" stroke-width="7"/>
<line x1="130.378" y1="424.512" x2="121.267" y2="409.294" stroke="#3D3D3F" stroke-width="7"/>
<line x1="121.622" y1="454.001" x2="129.691" y2="438.206" stroke="#3D3D3F" stroke-width="7"/>
<line x1="332.847" y1="624.526" x2="365.192" y2="575.102" stroke="#3D3D3F" stroke-width="7"/>
<line x1="143.988" y1="724.318" x2="119.893" y2="694.704" stroke="#3D3D3F" stroke-width="7"/>
<line x1="124.39" y1="670.228" x2="149.162" y2="654.575" stroke="#3D3D3F" stroke-width="7"/>
<circle cx="106.1" cy="681.169" r="25.5" transform="rotate(-89.9083 106.1 681.169)" fill="#3D3D3F" stroke="#3D3D3F"/>
<circle cx="21.1039" cy="678.033" r="20.5" transform="rotate(-89.9083 21.1039 678.033)" fill="#3D3D3F" stroke="#3D3D3F"/>
<circle cx="151.522" cy="729.742" r="13" transform="rotate(-89.9083 151.522 729.742)" fill="#3D3D3F" stroke="#3D3D3F"/>
<circle cx="167.648" cy="650.767" r="25" transform="rotate(-89.9083 167.648 650.767)" fill="#3D3D3F" stroke="#3D3D3F"/>
<circle cx="217.657" cy="644.847" r="28" transform="rotate(-89.9083 217.657 644.847)" fill="#3D3D3F" stroke="#3D3D3F"/>
<path d="M145.781 568.232C145.805 553.053 158.353 540.752 173.825 540.777C189.297 540.802 201.805 553.142 201.781 568.322C201.757 583.501 189.209 595.802 173.737 595.777C158.265 595.752 145.757 583.412 145.781 568.232Z" fill="#3D3D3F" stroke="#3D3D3F"/>
<circle cx="371.79" cy="562.094" r="28" transform="rotate(-89.9083 371.79 562.094)" fill="#3D3D3F" stroke="#3D3D3F"/>
<circle cx="469.761" cy="580.251" r="36" transform="rotate(-89.9083 469.761 580.251)" fill="#3D3D3F" stroke="#3D3D3F"/>
<circle cx="552.188" cy="626.882" r="21.5" transform="rotate(-89.9083 552.188 626.882)" fill="#3D3D3F" stroke="#3D3D3F"/>
<circle cx="577.591" cy="687.423" r="16" transform="rotate(-89.9083 577.591 687.423)" fill="#3D3D3F" stroke="#3D3D3F"/>
<circle cx="586.733" cy="598.438" r="7" transform="rotate(-89.9083 586.733 598.438)" fill="#3D3D3F" stroke="#3D3D3F"/>
<path d="M190.902 492.304C190.927 477.125 203.474 464.824 218.946 464.849C234.419 464.874 246.926 477.214 246.902 492.394C246.878 507.573 234.331 519.874 218.858 519.849C203.386 519.824 190.878 507.484 190.902 492.304Z" fill="#3D3D3F" stroke="#3D3D3F"/>
<path d="M159.99 436.755C160.002 429.592 166.038 423.765 173.511 423.777C180.984 423.789 187.002 429.635 186.99 436.798C186.979 443.961 180.943 449.789 173.47 449.777C165.996 449.765 159.979 443.918 159.99 436.755Z" fill="#3D3D3F" stroke="#3D3D3F"/>
<path d="M124.995 433.699C125.004 428.198 129.69 423.706 135.511 423.716C141.332 423.725 146.004 428.231 145.995 433.733C145.986 439.234 141.3 443.725 135.479 443.716C129.658 443.706 124.987 439.2 124.995 433.699Z" fill="#3D3D3F" stroke="#3D3D3F"/>
<path d="M111.041 404.677C111.047 400.841 114.379 397.682 118.552 397.689C122.726 397.695 126.047 400.865 126.041 404.701C126.035 408.537 122.703 411.695 118.53 411.689C114.357 411.682 111.035 408.513 111.041 404.677Z" fill="#3D3D3F" stroke="#3D3D3F"/>
<circle cx="120.958" cy="456.693" r="5" transform="rotate(-89.9083 120.958 456.693)" fill="#3D3D3F" stroke="#3D3D3F"/>
<path d="M284.911 486.955C284.936 471.482 297.276 458.974 312.456 458.999C327.635 459.023 339.936 471.57 339.911 487.043C339.886 502.515 327.546 515.023 312.366 514.999C297.186 514.974 284.886 502.427 284.911 486.955Z" fill="#3D3D3F" stroke="#3D3D3F"/>
<path d="M277.078 382.942C277.11 363.054 293.036 346.968 312.635 346.999C332.235 347.03 348.11 363.167 348.078 383.056C348.046 402.945 332.12 419.03 312.52 418.999C292.921 418.968 277.046 402.831 277.078 382.942Z" fill="#3D3D3F" stroke="#3D3D3F"/>
<circle cx="232.653" cy="335.371" r="35.5" transform="rotate(-89.9083 232.653 335.371)" fill="#3D3D3F" stroke="#3D3D3F"/>
<circle cx="232.811" cy="236.371" r="35.5" transform="rotate(-89.9083 232.811 236.371)" fill="#3D3D3F" stroke="#3D3D3F"/>
<path d="M277.392 185.942C277.424 166.054 293.35 149.968 312.95 149.999C332.55 150.03 348.424 166.167 348.392 186.056C348.36 205.945 332.434 222.03 312.835 221.999C293.235 221.968 277.361 205.831 277.392 185.942Z" fill="#3D3D3F" stroke="#3D3D3F"/>
<circle cx="320.558" cy="82.0112" r="36" transform="rotate(-89.9083 320.558 82.0112)" fill="#3D3D3F" stroke="#3D3D3F"/>
<circle cx="385.149" cy="25.6145" r="24.5" transform="rotate(-89.9083 385.149 25.6145)" fill="#3D3D3F" stroke="#3D3D3F"/>
<circle cx="449.102" cy="54.7167" r="21.5" transform="rotate(-89.9083 449.102 54.7167)" fill="#3D3D3F" stroke="#3D3D3F"/>
<path d="M124.32 230.698C124.347 214.121 137.584 200.719 153.868 200.745C170.153 200.771 183.347 214.216 183.32 230.792C183.294 247.368 170.057 260.771 153.772 260.745C137.488 260.719 124.294 247.274 124.32 230.698Z" fill="#3D3D3F" stroke="#3D3D3F"/>
<circle cx="121.44" cy="155.693" r="24" transform="rotate(-89.9083 121.44 155.693)" fill="#3D3D3F" stroke="#3D3D3F"/>
<circle cx="75.7724" cy="260.12" r="24.5" transform="rotate(-89.9083 75.7724 260.12)" fill="#3D3D3F" stroke="#3D3D3F"/>
<circle cx="26.8526" cy="210.041" r="18.5" transform="rotate(-89.9083 26.8526 210.041)" fill="#3D3D3F" stroke="#3D3D3F"/>
<path d="M34.1892 312.554C34.2016 304.837 40.6874 298.564 48.7116 298.577C56.7358 298.59 63.2015 304.884 63.1892 312.6C63.1768 320.316 56.691 326.59 48.6668 326.577C40.6426 326.564 34.1769 320.27 34.1892 312.554Z" fill="#3D3D3F" stroke="#3D3D3F"/>
<path d="M140.512 110.723C140.523 103.56 146.559 97.7328 154.033 97.7447C161.506 97.7567 167.523 103.604 167.512 110.766C167.5 117.929 161.464 123.757 153.991 123.745C146.518 123.733 140.5 117.886 140.512 110.723Z" fill="#3D3D3F" stroke="#3D3D3F"/>
<circle cx="184.016" cy="108.293" r="10.5" transform="rotate(-89.9083 184.016 108.293)" fill="#3D3D3F" stroke="#3D3D3F"/>
<path d="M131.564 78.2088C131.574 72.4306 136.485 67.7167 142.581 67.7264C148.678 67.7362 153.574 72.4658 153.564 78.244C153.555 84.0223 148.644 88.7362 142.548 88.7264C136.451 88.7167 131.555 83.9871 131.564 78.2088Z" fill="#3D3D3F" stroke="#3D3D3F"/>
<path d="M369.312 236.09C369.344 216.201 385.27 200.115 404.87 200.146C424.469 200.178 440.344 216.314 440.312 236.203C440.28 256.092 424.354 272.178 404.755 272.146C385.155 272.115 369.28 255.978 369.312 236.09Z" fill="#3D3D3F" stroke="#3D3D3F"/>
<circle cx="404.653" cy="335.646" r="35.5" transform="rotate(-89.9083 404.653 335.646)" fill="#3D3D3F" stroke="#3D3D3F"/>
<circle cx="472.124" cy="353.254" r="21" transform="rotate(-89.9083 472.124 353.254)" fill="#3D3D3F" stroke="#3D3D3F"/>
<circle cx="514.349" cy="525.822" r="22.5" transform="rotate(-89.9083 514.349 525.822)" fill="#3D3D3F" stroke="#3D3D3F"/>
<circle cx="511.945" cy="465.318" r="14" transform="rotate(-89.9083 511.945 465.318)" fill="#3D3D3F" stroke="#3D3D3F"/>
<path d="M476.953 460.762C476.958 457.204 480.064 454.267 483.963 454.273C487.862 454.28 490.958 457.227 490.953 460.785C490.947 464.342 487.841 467.28 483.942 467.273C480.043 467.267 476.947 464.32 476.953 460.762Z" fill="#3D3D3F" stroke="#3D3D3F"/>
<path d="M524.98 443.839C524.99 438.061 529.901 433.347 535.997 433.357C542.094 433.366 546.99 438.096 546.98 443.874C546.971 449.652 542.06 454.366 535.964 454.357C529.867 454.347 524.971 449.617 524.98 443.839Z" fill="#3D3D3F" stroke="#3D3D3F"/>
<circle cx="312.158" cy="644.498" r="27.5" transform="rotate(-89.9083 312.158 644.498)" fill="#3D3D3F" stroke="#3D3D3F"/>
</svg>
