<svg width="1281" height="1619" viewBox="0 0 1281 1619" fill="none" xmlns="http://www.w3.org/2000/svg">
<circle cx="304.5" cy="229.5" r="158.5" transform="rotate(180 304.5 229.5)" fill="#FFFEFE"/>
<circle cx="838.5" cy="541.5" r="158.5" transform="rotate(180 838.5 541.5)" fill="#FFFEFE"/>
<line x1="810.905" y1="1082.48" x2="997.853" y2="1183.71" stroke="white" stroke-width="8"/>
<line x1="994.048" y1="1618.38" x2="1046.05" y2="1285.38" stroke="white" stroke-width="8"/>
<circle cx="1044" cy="1220" r="102" transform="rotate(180 1044 1220)" fill="#FF7B72"/>
<line x1="-18.0669" y1="-3.50185" x2="202.933" y2="118.498" stroke="white" stroke-width="8"/>
<line x1="1248.3" y1="712.057" x2="1277" y2="582.034" stroke="white" stroke-width="8"/>
<line x1="1038.68" y1="900.054" x2="1147.09" y2="822.743" stroke="white" stroke-width="8"/>
<line x1="807.407" y1="1021.1" x2="932.217" y2="974.709" stroke="white" stroke-width="8"/>
<line x1="300.752" y1="345.903" x2="189.753" y2="451.139" stroke="white" stroke-width="8"/>
<line x1="423.456" y1="695.69" x2="256.802" y2="625.944" stroke="white" stroke-width="8"/>
<line x1="733.326" y1="515.987" x2="269.326" y2="553.987" stroke="white" stroke-width="8"/>
<line x1="697.733" y1="930.274" x2="603.587" y2="776.084" stroke="white" stroke-width="8"/>
<line x1="951.157" y1="873.109" x2="891.141" y2="665.031" stroke="white" stroke-width="8"/>
<line x1="746.048" y1="577.021" x2="609.621" y2="695.45" stroke="white" stroke-width="8"/>
<line x1="1230.75" y1="431.8" x2="1093.75" y2="386.8" stroke="white" stroke-width="8"/>
<line x1="957.874" y1="385.782" x2="927.874" y2="416.782" stroke="white" stroke-width="8"/>
</svg>
