<svg width="1182" height="640" viewBox="0 0 1182 640" fill="none" xmlns="http://www.w3.org/2000/svg">
<path d="M267 134C288.697 134 309.756 136.732 329.852 141.869C324.901 152.604 321.646 165.314 320.086 180H349.648C348.242 166.754 345.453 155.115 341.288 145.083C359.951 150.807 377.696 158.63 394.246 168.279L388.898 177.125V180H412.501C477.521 225.787 520 301.433 520 387C520 457.924 490.816 522.031 443.802 567.969C440.809 556.281 434.701 550.437 425.478 550.437C424.349 550.437 423.362 550.577 422.516 550.859L421.923 550.267L443.251 525.3V505.834H389.085V526.146H419.046L394.925 556.699L407.535 570.749C410.243 569.564 413.008 568.972 415.829 568.972C418.932 568.972 421.105 570.524 422.347 573.627C423.419 576.144 424.046 580.008 424.232 585.22C415.394 592.24 406.075 598.682 396.333 604.487C393.997 604.134 391.581 603.722 389.085 603.249V608.647C379.188 614.11 368.886 618.93 358.235 623.049V604.688H327.089L352.818 551.96C354.455 548.913 355.64 546.063 356.373 543.411C357.163 540.703 357.558 537.487 357.558 533.763C357.558 529.926 356.994 526.315 355.865 522.93C354.737 519.544 352.988 516.441 350.618 513.62C348.305 510.799 345.089 508.57 340.97 506.934C336.907 505.297 332.168 504.48 326.751 504.479C319.472 504.479 311.347 505.353 302.376 507.103V527.415C311.799 525.666 319.924 524.792 326.751 524.792C332.844 524.792 335.892 527.782 335.892 533.763C335.892 538.333 334.707 542.819 332.337 547.22L302.376 607.312V625H353.021C326.167 634.707 297.202 640 267 640C127.272 640 14 526.728 14 387C14 247.272 127.272 134 267 134ZM935.067 504.479C941.5 504.479 946.916 506.003 951.317 509.05C955.718 512.097 958.878 516.215 960.797 521.406C961.925 524.397 962.659 527.5 962.997 530.716C963.336 533.932 963.505 538.248 963.505 543.665C963.505 560.874 962.292 574.247 959.866 583.782C956.199 598.057 947.791 612.812 934.645 628.047L918.141 614.421C923.332 608.384 927.592 602.769 930.921 597.578C934.25 592.387 936.76 586.66 938.453 580.397L937.606 580.059C935.237 582.033 932.416 583.02 929.144 583.021C922.881 583.021 918.056 580.735 914.671 576.165C909.311 568.999 906.63 558.194 906.63 543.75C906.63 533.763 907.533 526.315 909.339 521.406C911.257 516.215 914.417 512.097 918.817 509.05C923.218 506.003 928.635 504.48 935.067 504.479ZM1023.13 504.311C1034.53 504.311 1042.54 510.432 1047.17 522.676C1048.18 525.44 1048.94 529.249 1049.45 534.102C1049.96 538.954 1050.24 543.384 1050.3 547.39C1050.41 551.339 1050.47 557.349 1050.47 565.417C1050.47 573.485 1050.41 579.523 1050.3 583.529C1050.24 587.479 1049.96 591.88 1049.45 596.732C1048.94 601.585 1048.18 605.394 1047.17 608.158C1042.54 620.402 1034.53 626.523 1023.13 626.523C1011.73 626.523 1003.72 620.402 999.095 608.158C998.079 605.394 997.317 601.585 996.81 596.732C996.302 591.88 995.991 587.479 995.878 583.529C995.822 579.523 995.794 573.485 995.794 565.417C995.794 557.349 995.822 551.339 995.878 547.39C995.991 543.384 996.302 538.954 996.81 534.102C997.317 529.249 998.079 525.44 999.095 522.676C1003.72 510.432 1011.73 504.311 1023.13 504.311ZM443.802 567.969C445.24 573.584 445.96 580.548 445.96 588.861C445.96 601.613 443.364 611.064 438.173 617.214C432.982 623.307 425.195 626.354 414.813 626.354C407.93 626.354 399.354 625.48 389.085 623.73V608.647C391.526 607.3 393.942 605.912 396.333 604.487C403.184 605.523 409.344 606.042 414.813 606.042C418.481 606.042 420.964 604.518 422.262 601.472C423.616 598.425 424.293 594.164 424.293 588.691C424.293 587.474 424.272 586.317 424.232 585.22C431.05 579.805 437.582 574.046 443.802 567.969ZM616.669 526.146H584.169V552.552H585.016C588.457 550.351 592.182 549.251 596.188 549.251C611.648 549.251 619.378 561.89 619.378 587.168C619.378 600.484 616.782 610.359 611.591 616.791C606.456 623.167 598.67 626.354 588.231 626.354C581.348 626.354 572.772 625.48 562.503 623.73V603.249C571.7 605.111 579.712 606.042 586.539 606.042C588.965 606.042 590.997 605.563 592.633 604.604C594.269 603.644 595.483 602.233 596.272 600.371C597.062 598.509 597.598 596.535 597.88 594.447C598.218 592.36 598.388 589.877 598.388 586.999C598.388 574.417 595.059 568.125 588.401 568.125C584.79 568.125 581.997 569.225 580.022 571.426L562.503 566.855V505.834H616.669V526.146ZM694.576 516.413C689.385 522.45 685.125 528.065 681.796 533.256C678.467 538.447 675.956 544.174 674.264 550.437L675.11 550.775C677.48 548.801 680.301 547.813 683.573 547.812C689.836 547.812 694.66 550.098 698.046 554.668C703.406 561.834 706.087 572.64 706.087 587.084C706.087 597.071 705.183 604.519 703.378 609.428C701.516 614.562 698.413 618.681 694.068 621.784C689.78 624.831 684.589 626.354 678.495 626.354C671.668 626.354 666.026 624.859 661.568 621.869C657.111 618.822 653.895 614.675 651.92 609.428C650.791 606.437 650.058 603.333 649.72 600.117C649.381 596.901 649.212 592.585 649.212 587.168C649.212 569.959 650.424 556.586 652.851 547.051C656.518 532.776 664.926 518.021 678.072 502.787L694.576 516.413ZM849.713 504.479C858.628 504.479 865.539 507.526 870.448 513.62C875.357 519.657 877.812 527.302 877.812 536.556C877.812 549.42 873.383 558.505 864.524 563.809V564.655C874.511 570.072 879.505 579.636 879.505 593.347C879.505 602.938 876.881 610.837 871.634 617.044C866.386 623.251 859.079 626.354 849.713 626.354C840.347 626.354 833.039 623.251 827.792 617.044C822.545 610.837 819.921 602.938 819.921 593.347C819.921 579.636 824.915 570.072 834.901 564.655V563.809C826.043 558.505 821.614 549.42 821.614 536.556C821.614 527.302 824.069 519.657 828.978 513.62C833.886 507.526 840.798 504.479 849.713 504.479ZM239.364 505.834L215.667 523.1L226.415 538.757L236.487 531.394H237.333V625H259V505.834H239.364ZM358.235 625H353.021C354.768 624.368 356.506 623.718 358.235 623.049V625ZM530.722 511.843L495.091 580.82V581.667H508.294V569.817H529.96V581.667H540.794V601.979H529.96V625H508.294V601.979H470.377V583.359L512.271 502.363L530.722 511.843ZM792.626 523.607L766.051 625H744.13L770.198 526.992V526.146H731.688V505.834H792.626V523.607ZM677.649 568.125C676.07 568.125 674.743 568.971 673.671 570.664C671.809 573.542 670.878 579.015 670.878 587.084C670.878 595.152 671.809 600.625 673.671 603.503C674.743 605.196 676.07 606.042 677.649 606.042C679.229 606.042 680.555 605.195 681.627 603.503C683.489 600.625 684.42 595.152 684.42 587.084C684.42 579.015 683.489 573.542 681.627 570.664C680.555 568.972 679.229 568.125 677.649 568.125ZM849.713 574.727C847.005 574.727 844.973 576.306 843.619 579.466C842.265 582.625 841.588 586.688 841.588 591.653C841.588 595.941 842.265 599.412 843.619 602.063C844.973 604.715 847.005 606.042 849.713 606.042C852.421 606.042 854.452 604.715 855.807 602.063C857.161 599.412 857.838 595.941 857.838 591.653C857.838 586.688 857.161 582.625 855.807 579.466C854.452 576.306 852.421 574.727 849.713 574.727ZM1017.8 593.854C1018.19 597.183 1018.84 600.033 1019.75 602.402C1020.65 604.716 1021.78 605.873 1023.13 605.873C1025.56 605.873 1027.28 602.318 1028.29 595.209C1028.86 591.429 1029.14 581.498 1029.14 565.417V556.53L1017.8 593.854ZM1023.13 524.961C1020.7 524.961 1018.98 528.516 1017.97 535.625C1017.4 539.405 1017.12 549.336 1017.12 565.417V574.304L1028.46 536.979C1028.07 533.651 1027.42 530.829 1026.52 528.516C1025.61 526.146 1024.48 524.961 1023.13 524.961ZM935.067 524.792C933.488 524.792 932.162 525.638 931.09 527.331C929.228 530.209 928.297 535.682 928.297 543.75C928.297 551.818 929.228 557.291 931.09 560.169C932.162 561.862 933.488 562.708 935.067 562.708C936.647 562.708 937.974 561.862 939.046 560.169C940.908 557.291 941.839 551.818 941.839 543.75C941.839 535.682 940.908 530.209 939.046 527.331C937.974 525.638 936.647 524.792 935.067 524.792ZM849.713 524.792C847.569 524.792 845.961 526.062 844.889 528.601C843.817 531.083 843.28 534.3 843.28 538.249C843.28 542.876 843.817 546.741 844.889 549.844C845.961 552.891 847.569 554.414 849.713 554.414C851.857 554.414 853.465 552.891 854.537 549.844C855.609 546.741 856.145 542.876 856.146 538.249C856.146 534.3 855.609 531.083 854.537 528.601C853.465 526.062 851.857 524.792 849.713 524.792ZM560.977 179.281C560.977 180.135 560.956 180.812 560.914 181.312C560.893 181.812 560.747 182.469 560.477 183.281C560.227 184.115 559.852 184.865 559.352 185.531C557.893 187.51 555.768 188.5 552.977 188.5V184.75C554.352 184.75 555.393 184.281 556.102 183.344C556.372 182.99 556.57 182.562 556.695 182.062C556.841 181.583 556.924 181.167 556.945 180.812C556.966 180.479 556.977 179.969 556.977 179.281V176H552.977V168.5H560.977V179.281ZM669.117 132.812L644.461 184.844L640.93 183.188L665.586 131.156L669.117 132.812ZM164.727 173.5C163.685 173.5 162.841 173.823 162.195 174.469C161.549 175.115 161.227 175.958 161.227 177C161.227 178.042 161.549 178.885 162.195 179.531C162.841 180.177 163.685 180.5 164.727 180.5C165.768 180.5 166.612 180.177 167.258 179.531C167.904 178.885 168.227 178.042 168.227 177C168.227 175.958 167.904 175.115 167.258 174.469C166.612 173.823 165.768 173.5 164.727 173.5ZM174.727 173.5C173.685 173.5 172.841 173.823 172.195 174.469C171.549 175.115 171.227 175.958 171.227 177C171.227 178.042 171.549 178.885 172.195 179.531C172.841 180.177 173.685 180.5 174.727 180.5C175.768 180.5 176.612 180.177 177.258 179.531C177.904 178.885 178.227 178.042 178.227 177C178.227 175.958 177.904 175.115 177.258 174.469C176.612 173.823 175.768 173.5 174.727 173.5ZM184.727 173.5C183.685 173.5 182.841 173.823 182.195 174.469C181.549 175.115 181.227 175.958 181.227 177C181.227 178.042 181.549 178.885 182.195 179.531C182.841 180.177 183.685 180.5 184.727 180.5C185.768 180.5 186.612 180.177 187.258 179.531C187.904 178.885 188.227 178.042 188.227 177C188.227 175.958 187.904 175.115 187.258 174.469C186.612 173.823 185.768 173.5 184.727 173.5ZM236.82 144.125H228.82V147.875H236.82V180H240.82V147.875H248.82V144.125H240.82V136H236.82V144.125ZM268.836 144.125H260.836V147.875H268.836V168.125H260.836V171.875H268.836V180H272.836V171.875H280.836V168.125H272.836V147.875H280.836V144.125H272.836V136H268.836V144.125ZM412.898 180H412.501C410.693 178.727 408.868 177.477 407.025 176.25H412.898V180ZM625.008 180H617.008V172.5H625.008V180ZM694.32 149.656L684.945 161.844V162.156L694.32 174.344L691.07 176.469L681.039 163.062V160.938L691.07 147.531L694.32 149.656ZM725.055 160.938V163.062L715.023 176.469L711.773 174.344L721.148 162.156V161.844L711.773 149.656L715.023 147.531L725.055 160.938ZM758.352 149.656L748.977 161.844V162.156L758.352 174.344L755.102 176.469L745.07 163.062V160.938L755.102 147.531L758.352 149.656ZM789.086 160.938V163.062L779.055 176.469L775.805 174.344L785.18 162.156V161.844L775.805 149.656L779.055 147.531L789.086 160.938ZM333.339 142.787C334.497 143.101 335.653 143.423 336.805 143.753C341.052 153.913 343.792 164.745 345.023 176.25H324.711C325.889 164.585 328.765 153.43 333.339 142.787ZM397.472 170.194C400.704 172.144 403.89 174.162 407.025 176.25H394.055V175.938L397.472 170.194ZM464.93 160.312L476.43 156.562L477.742 160.094L466.055 163.906L473.336 173.906L470.023 176L462.93 166.281L455.867 176L452.555 173.906L459.805 163.906L448.117 160.094L449.43 156.562L460.93 160.312V148H464.93V160.312ZM528.961 160.125H540.961V163.875H528.961V176H524.961V163.875H512.961V160.125H524.961V148H528.961V160.125ZM893.602 150.031L891.477 153.281L881.133 145.312V176H877.133V145.312L866.789 153.281L864.664 150.031L878.07 140H880.195L893.602 150.031ZM1009.2 170.688L1019.54 162.719L1021.66 165.969L1008.26 176H1006.13L992.727 165.969L994.852 162.719L1005.2 170.688V140H1009.2V170.688ZM1149.73 150.031L1147.6 153.281L1137.26 145.312V170.688L1147.6 162.719L1149.73 165.969L1136.32 176H1134.2L1120.79 165.969L1122.91 162.719L1133.26 170.688V145.312L1122.91 153.281L1120.79 150.031L1134.2 140H1136.32L1149.73 150.031ZM60.7266 175.875H32.7266V172.125H60.7266V175.875ZM124.758 175.875H96.7578V172.125H124.758V175.875ZM814.383 145.656L806.32 156.125H829.102V159.875H806.32L814.383 170.344L811.133 172.469L801.102 159.062V156.938L811.133 143.531L814.383 145.656ZM957.164 156.938V159.062L947.133 172.469L943.883 170.344L951.945 159.875H929.164V156.125H951.945L943.883 145.656L947.133 143.531L957.164 156.938ZM1085.23 156.938V159.062L1077.38 172.469L1074.07 170.531L1080.32 159.875H1062.13L1068.38 170.531L1065.07 172.469L1057.23 159.062V156.938L1065.07 143.531L1068.38 145.469L1062.13 156.125H1080.32L1074.07 145.469L1077.38 143.531L1085.23 156.938ZM412.898 139.75H394.055V140.062L403.836 156.5V159.5L397.472 170.194C396.401 169.549 395.327 168.909 394.246 168.279L400.367 158.156V157.844L388.898 138.875V136H412.898V139.75ZM60.7266 148.062L37.2891 155.844V156.156L60.7266 163.938V168L32.7266 158.5V153.5L60.7266 144V148.062ZM124.758 153.5V158.5L96.7578 168V163.938L120.195 156.156V155.844L96.7578 148.062V144L124.758 153.5ZM604.992 163.875H576.992V160.125H604.992V163.875ZM204.805 153.5C203.471 153.5 202.388 153.917 201.555 154.75C200.721 155.583 200.305 156.667 200.305 158C200.305 159.333 200.721 160.417 201.555 161.25C202.388 162.083 203.471 162.5 204.805 162.5C206.138 162.5 207.221 162.083 208.055 161.25C208.888 160.417 209.305 159.333 209.305 158C209.305 156.667 208.888 155.583 208.055 154.75C207.221 153.917 206.138 153.5 204.805 153.5ZM336.898 136C338.502 138.865 339.964 141.893 341.288 145.083C339.799 144.626 338.305 144.183 336.805 143.753C336.238 142.396 335.644 141.051 335.023 139.719H334.711C334.238 140.737 333.78 141.76 333.339 142.787C332.18 142.473 331.017 142.167 329.852 141.869C330.786 139.842 331.781 137.886 332.836 136H336.898ZM368.883 115.281C368.883 116.135 368.862 116.812 368.82 117.312C368.799 117.812 368.654 118.469 368.383 119.281C368.133 120.115 367.758 120.865 367.258 121.531C365.799 123.51 363.674 124.5 360.883 124.5V120.75C362.258 120.75 363.299 120.281 364.008 119.344C364.279 118.99 364.477 118.562 364.602 118.062C364.747 117.583 364.831 117.167 364.852 116.812C364.872 116.479 364.883 115.969 364.883 115.281V112H360.883V104.5H368.883V115.281ZM943.727 71.5625C945.914 71.5625 948.643 71.8542 951.914 72.4375V76.2812C948.685 75.6354 945.956 75.3125 943.727 75.3125C942.602 75.3125 941.602 75.4583 940.727 75.75C939.852 76.0208 939.143 76.375 938.602 76.8125C938.081 77.25 937.654 77.7604 937.32 78.3438C936.987 78.9062 936.758 79.4583 936.633 80C936.508 80.5208 936.445 81.0521 936.445 81.5938C936.445 83.7188 937.32 85.4375 939.07 86.75C939.82 87.2917 940.779 87.6354 941.945 87.7812C943.133 87.9062 944.393 88.0417 945.727 88.1875C947.081 88.3125 948.258 88.6354 949.258 89.1562C950.799 89.9688 952.049 91.1458 953.008 92.6875C953.966 94.2083 954.445 95.9583 954.445 97.9375C954.445 99.6458 953.997 101.26 953.102 102.781C952.206 104.302 950.914 105.521 949.227 106.438C950.643 107.312 951.768 108.448 952.602 109.844C953.456 111.24 953.883 112.802 953.883 114.531C953.883 115.823 953.643 117.052 953.164 118.219C952.685 119.385 951.997 120.438 951.102 121.375C950.206 122.333 949.018 123.094 947.539 123.656C946.081 124.219 944.435 124.5 942.602 124.5C940.185 124.5 937.039 124.094 933.164 123.281V119.438C936.935 120.312 940.081 120.75 942.602 120.75C943.727 120.75 944.727 120.604 945.602 120.312C946.477 120.042 947.174 119.688 947.695 119.25C948.237 118.833 948.674 118.333 949.008 117.75C949.341 117.188 949.57 116.646 949.695 116.125C949.82 115.604 949.883 115.073 949.883 114.531C949.883 113.26 949.591 112.146 949.008 111.188C948.445 110.229 947.695 109.51 946.758 109.031C945.883 108.594 944.341 108.292 942.133 108.125C939.945 107.958 938.279 107.573 937.133 106.969C935.529 106.115 934.247 104.917 933.289 103.375C932.352 101.833 931.883 100.094 931.883 98.1562C931.883 96.4479 932.331 94.8438 933.227 93.3438C934.122 91.8229 935.414 90.5938 937.102 89.6562C935.643 88.7396 934.497 87.5938 933.664 86.2188C932.852 84.8229 932.445 83.2812 932.445 81.5938C932.445 80.3021 932.685 79.0729 933.164 77.9062C933.643 76.7188 934.331 75.6458 935.227 74.6875C936.122 73.7292 937.299 72.9688 938.758 72.4062C940.237 71.8438 941.893 71.5625 943.727 71.5625ZM1012.88 71.5C1013.74 71.5 1015.17 71.5938 1017.2 71.7812V75.5312C1015.28 75.3438 1013.95 75.25 1013.2 75.25C1011.8 75.25 1010.76 75.7083 1010.07 76.625C1009.8 77 1009.59 77.4375 1009.45 77.9375C1009.32 78.4375 1009.25 78.8646 1009.23 79.2188C1009.21 79.5729 1009.2 80.0729 1009.2 80.7188V115.281C1009.2 115.948 1009.17 116.49 1009.13 116.906C1009.11 117.344 1009.04 117.906 1008.91 118.594C1008.79 119.302 1008.56 119.969 1008.23 120.594C1007.89 121.24 1007.46 121.833 1006.91 122.375C1005.54 123.792 1003.74 124.5 1001.51 124.5C1000.65 124.5 999.216 124.406 997.195 124.219V120.469C999.112 120.656 1000.45 120.75 1001.2 120.75C1002.59 120.75 1003.63 120.292 1004.32 119.375C1004.59 119 1004.79 118.562 1004.91 118.062C1005.06 117.562 1005.14 117.135 1005.16 116.781C1005.18 116.427 1005.2 115.927 1005.2 115.281V80.7188C1005.2 79.8021 1005.22 79.0625 1005.26 78.5C1005.32 77.9167 1005.53 77.1458 1005.88 76.1875C1006.24 75.2083 1006.77 74.3542 1007.48 73.625C1008.83 72.2083 1010.63 71.5 1012.88 71.5ZM432.914 124H428.914V68H432.914V124ZM561.289 124H556.664L556.977 96H560.977L561.289 124ZM592.992 83.5C595.409 83.5625 597.867 83.7917 600.367 84.1875V87.9375C597.326 87.4792 594.367 87.25 591.492 87.25C588.471 87.25 586.305 88.7292 584.992 91.6875C584.68 92.375 584.44 93.2292 584.273 94.25C584.128 95.2708 584.044 96.1458 584.023 96.875C584.003 97.6042 583.992 98.6458 583.992 100C583.992 101.417 584.003 102.51 584.023 103.281C584.044 104.031 584.138 104.938 584.305 106C584.492 107.062 584.753 107.948 585.086 108.656C586.378 111.385 588.555 112.75 591.617 112.75C594.388 112.75 597.513 112.479 600.992 111.938V115.719C598.055 116.156 595.388 116.417 592.992 116.5V124H588.992V116.219C587.159 115.885 585.596 115.167 584.305 114.062C583.034 112.938 582.044 111.573 581.336 109.969C580.753 108.656 580.378 107.25 580.211 105.75C580.065 104.25 579.992 102.333 579.992 100C579.992 97.7708 580.065 95.9167 580.211 94.4375C580.378 92.9375 580.721 91.5417 581.242 90.25C581.909 88.6042 582.898 87.1979 584.211 86.0312C585.523 84.8646 587.117 84.1146 588.992 83.7812V76H592.992V83.5ZM188.883 119.188L185.352 120.844L160.695 68.8125L164.227 67.1562L188.883 119.188ZM408.898 71.3125C406.253 71.3125 404.253 71.8021 402.898 72.7812C401.565 73.7396 400.898 75.4062 400.898 77.7812V85.6875C400.898 88 400.523 89.7708 399.773 91C399.023 92.2292 397.742 93.1875 395.93 93.875V94.1875C397.742 94.875 399.023 95.8333 399.773 97.0625C400.523 98.2917 400.898 100.062 400.898 102.375V110.281C400.898 112.656 401.565 114.333 402.898 115.312C404.232 116.271 406.232 116.75 408.898 116.75V120.5C405.169 120.5 402.232 119.667 400.086 118C397.961 116.333 396.898 113.76 396.898 110.281V102.375C396.898 100 396.232 98.3333 394.898 97.375C393.565 96.3958 391.565 95.9062 388.898 95.9062V92.1562C391.544 92.1562 393.534 91.6771 394.867 90.7188C396.221 89.7396 396.898 88.0625 396.898 85.6875V77.7812C396.898 74.3021 397.961 71.7292 400.086 70.0625C402.232 68.3958 405.169 67.5625 408.898 67.5625V71.3125ZM452.93 67.5625C456.659 67.5625 459.586 68.3958 461.711 70.0625C463.857 71.7292 464.93 74.3021 464.93 77.7812V85.6875C464.93 88.0625 465.596 89.7396 466.93 90.7188C468.284 91.6771 470.284 92.1562 472.93 92.1562V95.9062C470.263 95.9062 468.263 96.3958 466.93 97.375C465.596 98.3333 464.93 100 464.93 102.375V110.281C464.93 113.76 463.857 116.333 461.711 118C459.586 119.667 456.659 120.5 452.93 120.5V116.75C455.596 116.75 457.596 116.271 458.93 115.312C460.263 114.333 460.93 112.656 460.93 110.281V102.375C460.93 100.062 461.305 98.2917 462.055 97.0625C462.805 95.8333 464.086 94.875 465.898 94.1875V93.875C464.086 93.1875 462.805 92.2292 462.055 91C461.305 89.7708 460.93 88 460.93 85.6875V77.7812C460.93 75.4062 460.253 73.7396 458.898 72.7812C457.565 71.8021 455.576 71.3125 452.93 71.3125V67.5625ZM152.773 71.75H140.773V116.25H152.773V120C152.773 120 147.44 120 136.773 120C136.773 120 136.773 102.667 136.773 68H152.773V71.75ZM212.805 120C212.805 120 207.471 120 196.805 120V116.25H208.805V71.75H196.805V68H212.805C212.805 68 212.805 85.3333 212.805 120ZM284.836 119.75H256.836V116H284.836V119.75ZM911.148 107.5C912.482 107.5 913.565 107.917 914.398 108.75C915.232 109.583 915.648 110.667 915.648 112C915.648 113.333 915.232 114.417 914.398 115.25C913.565 116.083 912.482 116.5 911.148 116.5C909.815 116.5 908.732 116.083 907.898 115.25C907.065 114.417 906.648 113.333 906.648 112C906.648 110.667 907.065 109.583 907.898 108.75C908.732 107.917 909.815 107.5 911.148 107.5ZM975.18 107.5C976.513 107.5 977.596 107.917 978.43 108.75C979.263 109.583 979.68 110.667 979.68 112C979.68 113.333 979.263 114.417 978.43 115.25C977.596 116.083 976.513 116.5 975.18 116.5C973.846 116.5 972.763 116.083 971.93 115.25C971.096 114.417 970.68 113.333 970.68 112C970.68 110.667 971.096 109.583 971.93 108.75C972.763 107.917 973.846 107.5 975.18 107.5ZM336.867 116H328.867V108.5H336.867V116ZM656.336 71.5C658.315 71.5 660.898 71.6562 664.086 71.9688V75.7188C660.857 75.4062 658.273 75.25 656.336 75.25C653.315 75.25 651.211 76.6146 650.023 79.3438C649.711 80.0521 649.471 80.9375 649.305 82C649.159 83.0625 649.076 83.9792 649.055 84.75C649.034 85.5 649.023 86.5833 649.023 88V92H661.023V95.75H649.023V112.25H665.023V116H641.023V112.25H645.023V95.75H641.023V92H645.023V88C645.023 85.6667 645.096 83.75 645.242 82.25C645.388 80.75 645.732 79.3438 646.273 78.0312C647.065 76.0938 648.315 74.5208 650.023 73.3125C651.732 72.1042 653.836 71.5 656.336 71.5ZM772.523 72C774.711 80.875 778.076 87.8333 782.617 92.875H783.555C788.096 87.8333 791.461 80.875 793.648 72H797.555C795.805 79.7708 792.857 86.4375 788.711 92H793.086V95.75H785.617L785.086 96.3125V100.25H793.086V104H785.086V116H781.086V104H773.086V100.25H781.086V96.3125L780.555 95.75H773.086V92H777.461C773.315 86.4375 770.367 79.7708 768.617 72H772.523ZM1110.21 88.125H1117.24V91.875H1108.37L1102.3 104.125H1117.24V107.875H1100.43L1096.43 116H1092.24L1096.27 107.875H1089.24V104.125H1098.12L1104.18 91.875H1089.24V88.125H1106.05L1110.05 80H1114.24L1110.21 88.125ZM829.258 82.9688L813.289 97.8438V98.1562L829.258 113.031L826.57 115.844L809.133 99.4062V96.5938L826.57 80.1562L829.258 82.9688ZM885.133 96.5938V99.4062L867.695 115.844L865.008 113.031L880.977 98.1562V97.8438L865.008 82.9688L867.695 80.1562L885.133 96.5938ZM14.7109 75.5312C17.9609 75.5312 20.7109 76.3646 22.9609 78.0312C25.2318 79.6771 26.8568 81.8542 27.8359 84.5625C28.7526 87.0625 29.2109 90.2083 29.2109 94C29.2109 97.7917 28.7526 100.938 27.8359 103.438C26.8568 106.146 25.2318 108.333 22.9609 110C20.7109 111.646 17.9609 112.469 14.7109 112.469C11.4609 112.469 8.70052 111.646 6.42969 110C4.17969 108.333 2.5651 106.146 1.58594 103.438C0.669271 100.938 0.210938 97.7917 0.210938 94C0.210938 90.2083 0.669271 87.0625 1.58594 84.5625C2.5651 81.8542 4.17969 79.6771 6.42969 78.0312C8.70052 76.3646 11.4609 75.5312 14.7109 75.5312ZM1181.27 111.875H1153.27V108.125H1181.27V111.875ZM732.18 87.625L727.773 92C728.961 93.75 729.555 95.75 729.555 98C729.555 100.25 728.961 102.25 727.773 104L732.18 108.375L729.43 111.125L725.023 106.688C723.273 107.812 721.284 108.375 719.055 108.375C716.826 108.375 714.836 107.812 713.086 106.688L708.68 111.125L705.93 108.375L710.336 104C709.148 102.25 708.555 100.25 708.555 98C708.555 95.75 709.148 93.75 710.336 92L705.93 87.625L708.68 84.875L713.086 89.3125C714.836 88.1875 716.826 87.625 719.055 87.625C721.284 87.625 723.273 88.1875 725.023 89.3125L729.43 84.875L732.18 87.625ZM14.7109 78.0938C12.0651 78.0938 9.85677 78.7604 8.08594 80.0938C6.3151 81.4062 5.02344 83.1667 4.21094 85.375C3.3776 87.6667 2.96094 90.5417 2.96094 94C2.96094 97.4583 3.3776 100.333 4.21094 102.625C5.02344 104.854 6.30469 106.625 8.05469 107.938C9.82552 109.25 12.0443 109.906 14.7109 109.906C17.3568 109.906 19.5651 109.25 21.3359 107.938C23.1068 106.604 24.3984 104.833 25.2109 102.625C26.0443 100.333 26.4609 97.4583 26.4609 94C26.4609 90.5417 26.0443 87.6667 25.2109 85.375C24.3984 83.1458 23.1068 81.375 21.3359 80.0625C19.5859 78.75 17.3776 78.0938 14.7109 78.0938ZM1054.12 100.594C1053.8 101.594 1053.41 102.531 1052.93 103.406C1052.45 104.281 1051.86 105.115 1051.15 105.906C1050.44 106.698 1049.58 107.333 1048.55 107.812C1047.53 108.271 1046.41 108.5 1045.18 108.5C1044.14 108.5 1043.13 108.323 1042.15 107.969C1041.19 107.594 1040.35 107.156 1039.62 106.656C1038.89 106.135 1038.18 105.625 1037.49 105.125C1036.83 104.604 1036.13 104.167 1035.4 103.812C1034.67 103.438 1033.95 103.25 1033.24 103.25C1030.89 103.25 1029.15 105.042 1028.02 108.625L1024.27 107.375C1024.59 106.375 1024.98 105.438 1025.46 104.562C1025.94 103.688 1026.53 102.854 1027.24 102.062C1027.95 101.271 1028.82 100.646 1029.84 100.188C1030.88 99.7292 1032.01 99.5 1033.24 99.5C1034.28 99.5 1035.28 99.6875 1036.24 100.062C1037.22 100.417 1038.08 100.854 1038.8 101.375C1039.53 101.875 1040.23 102.385 1040.9 102.906C1041.59 103.406 1042.29 103.844 1043.02 104.219C1043.75 104.573 1044.47 104.75 1045.18 104.75C1047.53 104.75 1049.27 102.958 1050.4 99.375L1054.12 100.594ZM124.758 107.875H96.7578V104.125H124.758V107.875ZM861.133 107.875H833.133V104.125H861.133V107.875ZM719.055 91.375C717.117 91.375 715.544 91.9688 714.336 93.1562C713.148 94.3438 712.555 95.9583 712.555 98C712.555 100.042 713.148 101.656 714.336 102.844C715.544 104.031 717.117 104.625 719.055 104.625C720.992 104.625 722.555 104.031 723.742 102.844C724.951 101.656 725.555 100.042 725.555 98C725.555 95.9583 724.951 94.3438 723.742 93.1562C722.555 91.9688 720.992 91.375 719.055 91.375ZM942.82 91.625C941.508 91.625 940.362 91.8438 939.383 92.2812C938.424 92.6979 937.706 93.2604 937.227 93.9688C936.747 94.6562 936.404 95.3438 936.195 96.0312C935.987 96.7188 935.883 97.4271 935.883 98.1562C935.883 99.6146 936.247 100.844 936.977 101.844C937.727 102.823 938.643 103.51 939.727 103.906C940.831 104.302 942.06 104.5 943.414 104.5C944.747 104.5 945.904 104.281 946.883 103.844C947.862 103.406 948.591 102.844 949.07 102.156C949.549 101.448 949.893 100.75 950.102 100.062C950.331 99.3542 950.445 98.6458 950.445 97.9375C950.445 95.8125 949.747 94.2292 948.352 93.1875C946.977 92.1458 945.133 91.625 942.82 91.625ZM488.664 91.875C489.977 91.875 491.164 92.1667 492.227 92.75C493.31 93.3333 494.206 94.0417 494.914 94.875C495.622 95.7083 496.289 96.5417 496.914 97.375C497.539 98.2083 498.216 98.9167 498.945 99.5C499.674 100.083 500.435 100.375 501.227 100.375C501.81 100.375 502.31 100.302 502.727 100.156C503.143 100.01 503.487 99.75 503.758 99.375C504.029 99 504.247 98.6146 504.414 98.2188C504.581 97.8229 504.695 97.2604 504.758 96.5312C504.841 95.8021 504.893 95.125 504.914 94.5C504.935 93.875 504.945 93.0417 504.945 92H508.945C508.945 93.4792 508.883 94.7812 508.758 95.9062C508.654 97.0312 508.435 98.1354 508.102 99.2188C507.789 100.281 507.352 101.156 506.789 101.844C506.227 102.531 505.477 103.083 504.539 103.5C503.602 103.917 502.497 104.125 501.227 104.125C499.914 104.125 498.716 103.833 497.633 103.25C496.57 102.667 495.685 101.958 494.977 101.125C494.268 100.292 493.602 99.4583 492.977 98.625C492.352 97.7917 491.674 97.0833 490.945 96.5C490.216 95.9167 489.456 95.625 488.664 95.625C488.081 95.625 487.581 95.6979 487.164 95.8438C486.747 95.9896 486.404 96.25 486.133 96.625C485.862 97 485.643 97.3854 485.477 97.7812C485.31 98.1771 485.185 98.7396 485.102 99.4688C485.039 100.198 484.997 100.875 484.977 101.5C484.956 102.125 484.945 102.958 484.945 104H480.945C480.945 102.521 480.997 101.219 481.102 100.094C481.227 98.9688 481.445 97.875 481.758 96.8125C482.091 95.7292 482.539 94.8438 483.102 94.1562C483.664 93.4688 484.414 92.9167 485.352 92.5C486.289 92.0833 487.393 91.875 488.664 91.875ZM15.3047 84C17.1589 84 18.6068 84.5312 19.6484 85.5938C20.6901 86.6562 21.2109 88.125 21.2109 90C21.2109 92.2708 20.4609 93.9479 18.9609 95.0312L21.9922 104H17.7734L15.3984 96H12.7109V104H8.71094V84H15.3047ZM112.758 88.125H124.758V91.875H112.758V100H108.758V91.875H96.7578V88.125H108.758V80H112.758V88.125ZM909.836 71.5C913.586 71.5 916.471 72.4167 918.492 74.25C920.513 76.0833 921.523 78.625 921.523 81.875C921.523 83.1458 921.367 84.3438 921.055 85.4688C920.763 86.5729 920.294 87.6354 919.648 88.6562C919.023 89.6771 918.388 90.5833 917.742 91.375C917.096 92.1458 916.263 93.0521 915.242 94.0938C914.596 94.7604 914.107 95.4792 913.773 96.25C913.44 97 913.253 97.6146 913.211 98.0938C913.169 98.5521 913.148 99.1875 913.148 100H909.148C909.148 98.3542 909.357 96.8646 909.773 95.5312C910.19 94.1771 911.013 92.8646 912.242 91.5938C913.201 90.6146 913.919 89.8438 914.398 89.2812C914.898 88.7188 915.43 88.0208 915.992 87.1875C916.555 86.3542 916.951 85.5208 917.18 84.6875C917.409 83.8333 917.523 82.8958 917.523 81.875C917.523 79.6875 916.909 78.0417 915.68 76.9375C914.451 75.8125 912.503 75.25 909.836 75.25C907.898 75.25 905.232 75.6354 901.836 76.4062V72.6562C905.128 71.8854 907.794 71.5 909.836 71.5ZM974.805 71.5C978.034 71.5 980.628 72.4375 982.586 74.3125C984.565 76.1667 985.555 78.6875 985.555 81.875C985.555 83.5208 985.263 85.0625 984.68 86.5C984.117 87.9375 983.419 89.1771 982.586 90.2188C981.773 91.2604 980.961 92.2708 980.148 93.25C979.336 94.2292 978.638 95.2917 978.055 96.4375C977.471 97.5833 977.18 98.7708 977.18 100H973.18L972.867 80H977.492L977.336 90.5312C978.003 89.7396 978.43 89.2292 978.617 89C978.805 88.7708 979.159 88.3021 979.68 87.5938C980.201 86.8646 980.544 86.2812 980.711 85.8438C980.898 85.3854 981.086 84.8021 981.273 84.0938C981.461 83.3646 981.555 82.625 981.555 81.875C981.555 79.7708 980.961 78.1458 979.773 77C978.586 75.8333 976.93 75.25 974.805 75.25C973.18 75.25 969.971 75.8438 965.18 77.0312V73.1562C969.596 72.0521 972.805 71.5 974.805 71.5ZM1181.27 99.875H1153.27V96.125H1181.27V99.875ZM1054.12 88.5938C1053.8 89.5938 1053.41 90.5312 1052.93 91.4062C1052.45 92.2812 1051.86 93.1146 1051.15 93.9062C1050.44 94.6979 1049.58 95.3333 1048.55 95.8125C1047.53 96.2708 1046.41 96.5 1045.18 96.5C1044.14 96.5 1043.13 96.3229 1042.15 95.9688C1041.19 95.5938 1040.35 95.1562 1039.62 94.6562C1038.89 94.1354 1038.18 93.625 1037.49 93.125C1036.83 92.6042 1036.13 92.1667 1035.4 91.8125C1034.67 91.4375 1033.95 91.25 1033.24 91.25C1030.89 91.25 1029.15 93.0417 1028.02 96.625L1024.27 95.375C1024.59 94.375 1024.98 93.4375 1025.46 92.5625C1025.94 91.6875 1026.53 90.8542 1027.24 90.0625C1027.95 89.2708 1028.82 88.6458 1029.84 88.1875C1030.88 87.7292 1032.01 87.5 1033.24 87.5C1034.28 87.5 1035.28 87.6875 1036.24 88.0625C1037.22 88.4167 1038.08 88.8542 1038.8 89.375C1039.53 89.875 1040.23 90.3854 1040.9 90.9062C1041.59 91.4062 1042.29 91.8438 1043.02 92.2188C1043.75 92.5729 1044.47 92.75 1045.18 92.75C1047.53 92.75 1049.27 90.9583 1050.4 87.375L1054.12 88.5938ZM12.7109 92.25H15.3047C16.0547 92.25 16.5547 92.0833 16.8047 91.75C17.0755 91.3958 17.2109 90.8125 17.2109 90C17.2109 89.1875 17.0755 88.6146 16.8047 88.2812C16.5547 87.9271 16.0547 87.75 15.3047 87.75H12.7109V92.25ZM861.133 91.875H833.133V88.125H861.133V91.875ZM336.867 91.5H328.867V84H336.867V91.5ZM368.883 91.5H360.883V84H368.883V91.5ZM558.977 79.5C560.31 79.5 561.393 79.9167 562.227 80.75C563.06 81.5833 563.477 82.6667 563.477 84C563.477 85.3333 563.06 86.4167 562.227 87.25C561.393 88.0833 560.31 88.5 558.977 88.5C557.643 88.5 556.56 88.0833 555.727 87.25C554.893 86.4167 554.477 85.3333 554.477 84C554.477 82.6667 554.893 81.5833 555.727 80.75C556.56 79.9167 557.643 79.5 558.977 79.5ZM241.32 72C245.716 76.2708 248.789 81.6042 250.539 88H246.32C244.82 82.9167 242.581 78.7188 239.602 75.4062H238.039C235.06 78.7188 232.82 82.9167 231.32 88H227.102C228.852 81.6042 231.924 76.2708 236.32 72H241.32ZM1181.27 87.875H1153.27V84.125H1181.27V87.875ZM305.57 84H301.258L296.07 72H300.383L305.57 84ZM78.7422 68.375C80.8255 68.375 82.5339 69.0625 83.8672 70.4375C85.2005 71.7917 85.8672 73.4792 85.8672 75.5C85.8672 77.5208 85.2005 79.2188 83.8672 80.5938C82.5339 81.9479 80.8255 82.625 78.7422 82.625C76.6589 82.625 74.9505 81.9479 73.6172 80.5938C72.2839 79.2188 71.6172 77.5208 71.6172 75.5C71.6172 73.4792 72.2839 71.7917 73.6172 70.4375C74.9505 69.0625 76.6589 68.375 78.7422 68.375ZM78.7422 71.5C77.6172 71.5 76.7109 71.8542 76.0234 72.5625C75.3359 73.25 74.9922 74.2292 74.9922 75.5C74.9922 76.7708 75.3359 77.7604 76.0234 78.4688C76.7109 79.1562 77.6172 79.5 78.7422 79.5C79.8672 79.5 80.7734 79.1562 81.4609 78.4688C82.1484 77.7604 82.4922 76.7708 82.4922 75.5C82.4922 74.2292 82.1484 73.25 81.4609 72.5625C80.7734 71.8542 79.8672 71.5 78.7422 71.5ZM56.7266 75.875H36.7266V72.125H56.7266V75.875ZM240.82 55.2812C240.82 56.1354 240.799 56.8125 240.758 57.3125C240.737 57.8125 240.591 58.4688 240.32 59.2812C240.07 60.1146 239.695 60.8646 239.195 61.5312C237.737 63.5104 235.612 64.5 232.82 64.5C231.82 64.5 230.487 64.3229 228.82 63.9688V60.125C230.633 60.5417 231.966 60.75 232.82 60.75C234.195 60.75 235.237 60.2812 235.945 59.3438C236.216 58.9896 236.414 58.5625 236.539 58.0625C236.685 57.5833 236.768 57.1667 236.789 56.8125C236.81 56.4792 236.82 55.9688 236.82 55.2812V52H240.82V55.2812ZM136.773 40.5312C136.773 41.6771 136.784 42.5312 136.805 43.0938C136.846 43.6562 136.971 44.2917 137.18 45C137.409 45.6875 137.742 46.2917 138.18 46.8125C139.305 48.1042 140.836 48.75 142.773 48.75C144.711 48.75 146.242 48.1042 147.367 46.8125C147.805 46.2917 148.128 45.6875 148.336 45C148.565 44.2917 148.69 43.6562 148.711 43.0938C148.753 42.5312 148.773 41.6771 148.773 40.5312V20H152.773V52H148.773V48.5H148.461C147.773 49.7083 146.919 50.6771 145.898 51.4062C144.878 52.1354 143.836 52.5 142.773 52.5C141.711 52.5 140.669 52.1354 139.648 51.4062C138.628 50.6771 137.773 49.7083 137.086 48.5H136.773V64H132.773V20H136.773V40.5312ZM412.898 60H380.898V0H412.898V60ZM701.977 20H697.039V20.0625C697.039 22.0625 696.935 23.5938 696.727 24.6562C696.497 25.9271 696.091 27.125 695.508 28.25C694.945 29.375 694.237 30.3958 693.383 31.3125C692.529 32.2083 691.716 32.9688 690.945 33.5938C690.195 34.2188 689.289 34.8958 688.227 35.625C687.185 36.3333 686.372 36.9167 685.789 37.375C685.206 37.8333 684.56 38.4167 683.852 39.125C683.143 39.8333 682.581 40.6042 682.164 41.4375C681.768 42.2708 681.477 43.1979 681.289 44.2188C681.122 45.1562 681.039 46.4688 681.039 48.1562V60H673.039V48.1562C673.039 45.9479 673.174 44.2604 673.445 43.0938C674.237 39.5938 676.341 36.7708 679.758 34.625C680.57 34.125 681.591 33.5938 682.82 33.0312C684.07 32.4688 685.154 31.9688 686.07 31.5312C687.008 31.0938 687.956 30.5625 688.914 29.9375C689.893 29.2917 690.706 28.5104 691.352 27.5938C691.997 26.6562 692.456 25.5729 692.727 24.3438C692.935 23.3854 693.039 21.9583 693.039 20.0625V20H688.102L695.039 7.375L701.977 20ZM889.133 30L861.133 60V0L889.133 30ZM921.148 30L898.117 60H893.18L915.93 30L893.18 0H898.117L921.148 30ZM957.164 60L929.164 30L957.164 0V60ZM966.43 30L989.18 60H984.242L961.211 30L984.242 0H989.18L966.43 30ZM475.992 43.3125C476.492 43.3125 476.94 43.5 477.336 43.875C477.732 44.2292 477.93 44.6875 477.93 45.25C477.93 45.6458 477.815 46.0104 477.586 46.3438C477.357 46.6771 477.044 46.9167 476.648 47.0625L468.273 50L476.648 52.9375C477.044 53.0833 477.357 53.3229 477.586 53.6562C477.815 53.9896 477.93 54.3542 477.93 54.75C477.93 55.3125 477.732 55.7708 477.336 56.125C476.94 56.5 476.492 56.6875 475.992 56.6875C475.846 56.6875 475.628 56.6458 475.336 56.5625L462.93 52.0625L450.523 56.5625C450.232 56.6458 450.013 56.6875 449.867 56.6875C449.367 56.6875 448.919 56.5 448.523 56.125C448.128 55.7708 447.93 55.3125 447.93 54.75C447.93 54.3542 448.044 53.9896 448.273 53.6562C448.503 53.3229 448.815 53.0833 449.211 52.9375L457.586 50L449.211 47.0625C448.815 46.9167 448.503 46.6771 448.273 46.3438C448.044 46.0104 447.93 45.6458 447.93 45.25C447.93 44.6875 448.128 44.2292 448.523 43.875C448.919 43.5 449.367 43.3125 449.867 43.3125C450.013 43.3125 450.232 43.3542 450.523 43.4375L462.93 47.9375L475.336 43.4375C475.628 43.3542 475.846 43.3125 475.992 43.3125ZM760.758 46.9375H761.07V32H765.07V56H761.07L753.383 41.0625H753.07V56H749.07V32H753.039L760.758 46.9375ZM568.977 17.3438L572.32 16.2188L573.633 19.7812L568.977 21.3125V33.5938L572.32 32.4688L573.633 36.0312L568.977 37.5625V50H564.977V38.9062L556.977 41.5625V54H552.977V42.9062L549.633 44.0312L548.32 40.4688L552.977 38.9375V26.6562L549.633 27.7812L548.32 24.2188L552.977 22.6875V10H556.977V21.3438L564.977 18.6875V6H568.977V17.3438ZM488.945 22.5H489.258C490.966 20.5 493.237 19.5 496.07 19.5C499.091 19.5 501.487 20.5625 503.258 22.6875C505.049 24.7917 505.945 27.4792 505.945 30.75C505.945 33.1667 505.57 35.4792 504.82 37.6875C504.091 39.8958 503.07 41.8646 501.758 43.5938C500.445 45.3229 498.914 46.8646 497.164 48.2188C495.414 49.5521 493.497 50.625 491.414 51.4375C489.331 52.25 487.174 52.7812 484.945 53.0312V4H488.945V22.5ZM184.789 52H180.789V11.75H176.789V52H172.789V31.5312C170.268 30.8854 168.216 29.5417 166.633 27.5C165.07 25.4375 164.289 22.9375 164.289 20C164.289 17.0208 165.102 14.5 166.727 12.4375C168.352 10.3542 170.445 9.01042 173.008 8.40625C174.154 8.13542 176.07 8 178.758 8H184.789V52ZM524.961 21.375L536.961 17.3438V52H532.961V38.875L520.961 42.875V8H524.961V21.375ZM817.102 8.25C819.622 8.25 821.581 9.04167 822.977 10.625C824.393 12.2083 825.102 14.3333 825.102 17V28C826.227 28 827.174 28.4375 827.945 29.3125C828.716 30.1667 829.102 31.0625 829.102 32V48C829.102 49.125 828.664 50.0729 827.789 50.8438C826.935 51.6146 826.039 52 825.102 52H805.102C803.977 52 803.029 51.5729 802.258 50.7188C801.487 49.8438 801.102 48.9375 801.102 48V32C801.102 30.875 801.529 29.9271 802.383 29.1562C803.258 28.3854 804.164 28 805.102 28V17C805.102 14.3333 805.799 12.2083 807.195 10.625C808.612 9.04167 810.581 8.25 813.102 8.25H817.102ZM336.867 32.9375V35.0625L326.836 48.4688L323.586 46.3438L332.961 34.1562V33.8438L323.586 21.6562L326.836 19.5312L336.867 32.9375ZM348.867 32.9375V35.0625L338.836 48.4688L335.586 46.3438L344.961 34.1562V33.8438L335.586 21.6562L338.836 19.5312L348.867 32.9375ZM1039.21 11.5312C1042.46 11.5312 1045.21 12.3646 1047.46 14.0312C1049.73 15.6771 1051.36 17.8542 1052.34 20.5625C1053.25 23.0625 1053.71 26.2083 1053.71 30C1053.71 33.7917 1053.25 36.9375 1052.34 39.4375C1051.36 42.1458 1049.73 44.3333 1047.46 46C1045.21 47.6458 1042.46 48.4688 1039.21 48.4688C1035.96 48.4688 1033.2 47.6458 1030.93 46C1028.68 44.3333 1027.07 42.1458 1026.09 39.4375C1025.17 36.9375 1024.71 33.7917 1024.71 30C1024.71 26.2083 1025.17 23.0625 1026.09 20.5625C1027.07 17.8542 1028.68 15.6771 1030.93 14.0312C1033.2 12.3646 1035.96 11.5312 1039.21 11.5312ZM1102.52 21.6562L1093.15 33.8438V34.1562L1102.52 46.3438L1099.27 48.4688L1089.24 35.0625V32.9375L1099.27 19.5312L1102.52 21.6562ZM1114.52 21.6562L1105.15 33.8438V34.1562L1114.52 46.3438L1111.27 48.4688L1101.24 35.0625V32.9375L1111.27 19.5312L1114.52 21.6562ZM495.445 23.25C493.299 23.25 491.674 23.8229 490.57 24.9688C489.487 26.0938 488.945 27.7083 488.945 29.8125V48.2812C490.654 47.7188 492.268 46.9062 493.789 45.8438C495.331 44.7604 496.706 43.4896 497.914 42.0312C499.143 40.5729 500.122 38.8646 500.852 36.9062C501.581 34.9479 501.945 32.8958 501.945 30.75C501.945 28.5208 501.383 26.7188 500.258 25.3438C499.133 23.9479 497.529 23.25 495.445 23.25ZM641.133 16.1875C640.716 19.8542 639.779 23.4062 638.32 26.8438C636.883 30.2604 634.987 33.375 632.633 36.1875C627.924 41.8542 622.029 45.8125 614.945 48.0625L613.695 44.5C620.029 42.4792 625.299 38.9375 629.508 33.875C633.841 28.625 636.383 22.6042 637.133 15.8125L641.133 16.1875ZM815.102 34C813.997 34 813.049 34.3958 812.258 35.1875C811.487 35.9583 811.102 36.8958 811.102 38C811.102 38.75 811.289 39.4375 811.664 40.0625C812.039 40.6667 812.518 41.0938 813.102 41.3438V48H817.102V41.3438C817.685 41.0938 818.164 40.6667 818.539 40.0625C818.914 39.4375 819.102 38.75 819.102 38C819.102 36.8958 818.706 35.9583 817.914 35.1875C817.143 34.3958 816.206 34 815.102 34ZM1039.21 14.0938C1036.57 14.0938 1034.36 14.7604 1032.59 16.0938C1030.82 17.4062 1029.52 19.1667 1028.71 21.375C1027.88 23.6667 1027.46 26.5417 1027.46 30C1027.46 33.4583 1027.88 36.3333 1028.71 38.625C1029.52 40.8542 1030.8 42.625 1032.55 43.9375C1034.33 45.25 1036.54 45.9062 1039.21 45.9062C1041.86 45.9062 1044.07 45.25 1045.84 43.9375C1047.61 42.6042 1048.9 40.8333 1049.71 38.625C1050.54 36.3333 1050.96 33.4583 1050.96 30C1050.96 26.5417 1050.54 23.6667 1049.71 21.375C1048.9 19.1458 1047.61 17.375 1045.84 16.0625C1044.09 14.75 1041.88 14.0938 1039.21 14.0938ZM1039.84 19.6875C1041.25 19.6875 1042.84 19.8854 1044.59 20.2812V24.0312C1042.88 23.6354 1041.27 23.4375 1039.77 23.4375C1038.88 23.4375 1038.19 23.5312 1037.71 23.7188C1037.25 23.9062 1036.91 24.2604 1036.68 24.7812C1036.37 25.4896 1036.21 27.1875 1036.21 29.875C1036.21 31.7917 1036.25 33.1875 1036.34 34.0625C1036.44 34.9167 1036.67 35.5312 1037.02 35.9062C1037.21 36.1146 1037.46 36.2708 1037.77 36.375C1038.09 36.4792 1038.37 36.5417 1038.62 36.5625H1039.8C1041.28 36.5625 1042.88 36.3958 1044.59 36.0625V39.8125C1042.84 40.1458 1041.24 40.3125 1039.8 40.3125C1037.16 40.3125 1035.23 39.6667 1034.02 38.375C1033.46 37.7708 1033.03 36.9688 1032.74 35.9688C1032.47 34.9688 1032.32 34.0833 1032.27 33.3125C1032.23 32.5417 1032.21 31.3958 1032.21 29.875C1032.21 26.8542 1032.45 24.7292 1032.93 23.5C1033.93 20.9583 1036.23 19.6875 1039.84 19.6875ZM462.93 7.1875C465.596 7.1875 468.065 7.85417 470.336 9.1875C472.628 10.5 474.43 12.3021 475.742 14.5938C477.076 16.8646 477.742 19.3333 477.742 22C477.742 24.0833 477.326 26.0729 476.492 27.9688C475.659 29.8438 474.471 31.4896 472.93 32.9062V38C472.93 38.5417 472.732 39.0104 472.336 39.4062C471.94 39.8021 471.471 40 470.93 40H454.93C454.388 40 453.919 39.8021 453.523 39.4062C453.128 39.0104 452.93 38.5417 452.93 38V32.9062C451.388 31.4896 450.201 29.8438 449.367 27.9688C448.534 26.0729 448.117 24.0833 448.117 22C448.117 19.3333 448.773 16.8646 450.086 14.5938C451.419 12.3021 453.221 10.5 455.492 9.1875C457.784 7.85417 460.263 7.1875 462.93 7.1875ZM1149.26 40H1145.26V31.875H1121.26V28.125H1149.26V40ZM524.961 25.3125V37.625L532.961 34.9375V22.625L524.961 25.3125ZM556.977 25.3125V37.5938L564.977 34.9375V22.6562L556.977 25.3125ZM462.93 11.1875C459.951 11.1875 457.398 12.25 455.273 14.375C453.169 16.4792 452.117 19.0208 452.117 22C452.117 23.5625 452.44 25.0625 453.086 26.5C453.753 27.9167 454.669 29.125 455.836 30.125C456.565 30.75 456.93 31.5833 456.93 32.625V36H460.93V33.5938C460.93 33.0521 461.128 32.5833 461.523 32.1875C461.919 31.7917 462.388 31.5938 462.93 31.5938C463.471 31.5938 463.94 31.7917 464.336 32.1875C464.732 32.5833 464.93 33.0521 464.93 33.5938V36H468.93V32.625C468.93 31.5833 469.294 30.75 470.023 30.125C471.19 29.125 472.096 27.9167 472.742 26.5C473.409 25.0833 473.742 23.5833 473.742 22C473.742 19.0208 472.68 16.4792 470.555 14.375C468.451 12.25 465.909 11.1875 462.93 11.1875ZM208.805 35.5H200.805V28H208.805V35.5ZM681.039 27.375C677.581 29.1667 674.914 30.8854 673.039 32.5312V0H681.039V27.375ZM613.914 27.25L610.227 28.75L604.602 16.75L608.289 15.25L613.914 27.25ZM76.2422 3.5C78.8464 3.5 80.9297 4.15625 82.4922 5.46875C84.0547 6.78125 84.8359 8.52083 84.8359 10.6875C84.8359 12.9167 83.8255 14.6042 81.8047 15.75V16.0625C84.013 17.2083 85.1172 18.9479 85.1172 21.2812C85.1172 23.5104 84.2839 25.2708 82.6172 26.5625C80.9714 27.8542 78.8672 28.5 76.3047 28.5C74.1589 28.5 71.638 28.3438 68.7422 28.0312V24.2812C71.9922 24.5938 74.513 24.75 76.3047 24.75C77.8047 24.75 78.9818 24.4583 79.8359 23.875C80.6901 23.2917 81.1172 22.4271 81.1172 21.2812C81.1172 20.4271 80.8255 19.7188 80.2422 19.1562C79.6589 18.5729 78.9297 18.1979 78.0547 18.0312C77.513 17.9271 76.5547 17.875 75.1797 17.875H72.7422V14.125H75.1797C76.388 14.125 77.3047 14.0625 77.9297 13.9375C78.7839 13.75 79.4818 13.3854 80.0234 12.8438C80.5651 12.2812 80.8359 11.5625 80.8359 10.6875C80.8359 9.5625 80.4401 8.70833 79.6484 8.125C78.8568 7.54167 77.7214 7.25 76.2422 7.25C74.8464 7.25 72.4505 7.42708 69.0547 7.78125V4.03125C71.8047 3.67708 74.2005 3.5 76.2422 3.5ZM300.852 3.5C302.039 3.5 303.102 3.6875 304.039 4.0625C304.977 4.41667 305.737 4.85417 306.32 5.375C306.904 5.89583 307.404 6.58333 307.82 7.4375C308.258 8.27083 308.581 9.03125 308.789 9.71875C308.997 10.3854 309.154 11.1979 309.258 12.1562C309.383 13.0937 309.445 13.8021 309.445 14.2812C309.466 14.7396 309.477 15.3125 309.477 16C309.477 16.6875 309.466 17.2708 309.445 17.75C309.445 18.2083 309.383 18.9167 309.258 19.875C309.154 20.8125 308.997 21.625 308.789 22.3125C308.581 22.9792 308.258 23.7396 307.82 24.5938C307.404 25.4271 306.904 26.1042 306.32 26.625C305.737 27.1458 304.977 27.5938 304.039 27.9688C303.102 28.3229 302.039 28.5 300.852 28.5C299.664 28.5 298.602 28.3229 297.664 27.9688C296.727 27.5938 295.966 27.1458 295.383 26.625C294.799 26.1042 294.289 25.4271 293.852 24.5938C293.435 23.7396 293.122 22.9792 292.914 22.3125C292.706 21.625 292.539 20.8125 292.414 19.875C292.31 18.9167 292.247 18.2083 292.227 17.75V14.2812C292.247 13.8021 292.31 13.0937 292.414 12.1562C292.539 11.1979 292.706 10.3854 292.914 9.71875C293.122 9.03125 293.435 8.27083 293.852 7.4375C294.289 6.58333 294.799 5.89583 295.383 5.375C295.966 4.85417 296.727 4.41667 297.664 4.0625C298.602 3.6875 299.664 3.5 300.852 3.5ZM1069.01 3.5C1073.28 3.5 1075.9 5.16667 1076.88 8.5C1077.11 9.29167 1077.23 10.3542 1077.23 11.6875V28H1073.23V25.9062H1072.91C1072.14 26.7812 1071.37 27.4375 1070.6 27.875C1069.83 28.2917 1068.9 28.5 1067.82 28.5C1065.86 28.5 1064.21 27.6979 1062.85 26.0938C1061.52 24.4896 1060.85 22.5833 1060.85 20.375C1060.85 18.625 1061.31 17.0625 1062.23 15.6875C1063.14 14.3125 1064.32 13.3542 1065.76 12.8125C1066.76 12.4375 1068.04 12.25 1069.6 12.25H1073.23C1073.23 10.8542 1073.16 9.92708 1073.04 9.46875C1072.81 8.67708 1072.38 8.11458 1071.76 7.78125C1071.15 7.42708 1070.24 7.25 1069.01 7.25C1068.3 7.25 1065.97 7.38542 1062.01 7.65625V3.875C1065.72 3.625 1068.05 3.5 1069.01 3.5ZM44.3203 3.5C47.1328 3.5 49.2995 4.20833 50.8203 5.625C52.3411 7.02083 53.1016 8.76042 53.1016 10.8438C53.1016 11.9479 52.9036 12.9792 52.5078 13.9375C52.112 14.875 51.5495 15.6979 50.8203 16.4062C50.0911 17.0938 49.3828 17.6771 48.6953 18.1562C48.0078 18.6146 47.2057 19.0729 46.2891 19.5312C45.6432 19.8646 45.237 20.0729 45.0703 20.1562C44.9245 20.2188 44.5807 20.3958 44.0391 20.6875C43.4974 20.9792 43.1224 21.2188 42.9141 21.4062C42.7266 21.5729 42.4557 21.8021 42.1016 22.0938C41.7682 22.3854 41.5078 22.6771 41.3203 22.9688C41.1328 23.2604 40.9766 23.5833 40.8516 23.9375V24.25H52.7266V28H36.5391V26.125C36.5391 21.9792 39.0391 18.7188 44.0391 16.3438C44.7891 15.9896 45.3932 15.6771 45.8516 15.4062C46.3099 15.1354 46.8203 14.7812 47.3828 14.3438C47.9661 13.8854 48.3932 13.3646 48.6641 12.7812C48.9557 12.1979 49.1016 11.5521 49.1016 10.8438C49.1016 10.4688 49.0495 10.1146 48.9453 9.78125C48.8411 9.42708 48.6432 9.04167 48.3516 8.625C48.0599 8.20833 47.5703 7.875 46.8828 7.625C46.1953 7.375 45.3411 7.25 44.3203 7.25C42.0703 7.25 39.5391 7.53125 36.7266 8.09375V4.34375C39.4557 3.78125 41.987 3.5 44.3203 3.5ZM272.836 28H268.836V8.9375H268.523L260.836 13.0625V8.875L269.461 4H272.836V28ZM741.07 24.25H753.07V28H737.07V4H741.07V24.25ZM813.102 12C810.435 12 809.102 13.6667 809.102 17V28H821.102V17C821.102 13.6667 819.768 12 817.102 12H813.102ZM458.117 20.8125C459.013 20.8125 459.773 21.125 460.398 21.75C461.023 22.3542 461.336 23.1042 461.336 24C461.336 24.8958 461.023 25.6562 460.398 26.2812C459.773 26.8854 459.013 27.1875 458.117 27.1875C457.221 27.1875 456.461 26.8854 455.836 26.2812C455.232 25.6562 454.93 24.8958 454.93 24C454.93 23.1042 455.232 22.3542 455.836 21.75C456.461 21.125 457.221 20.8125 458.117 20.8125ZM467.742 20.8125C468.638 20.8125 469.388 21.125 469.992 21.75C470.617 22.3542 470.93 23.1042 470.93 24C470.93 24.8958 470.617 25.6562 469.992 26.2812C469.388 26.8854 468.638 27.1875 467.742 27.1875C466.846 27.1875 466.086 26.8854 465.461 26.2812C464.836 25.6562 464.523 24.8958 464.523 24C464.523 23.1042 464.836 22.3542 465.461 21.75C466.086 21.125 466.846 20.8125 467.742 20.8125ZM300.852 7.25C300.143 7.25 299.518 7.375 298.977 7.625C298.456 7.85417 298.029 8.19792 297.695 8.65625C297.383 9.11458 297.122 9.60417 296.914 10.125C296.706 10.625 296.549 11.25 296.445 12C296.362 12.7292 296.299 13.3854 296.258 13.9688C296.237 14.5312 296.227 15.2083 296.227 16C296.227 16.7917 296.237 17.4792 296.258 18.0625C296.299 18.625 296.362 19.2813 296.445 20.0312C296.549 20.7604 296.706 21.3854 296.914 21.9062C297.122 22.4062 297.383 22.8854 297.695 23.3438C298.029 23.8021 298.456 24.1562 298.977 24.4062C299.518 24.6354 300.143 24.75 300.852 24.75C301.56 24.75 302.174 24.6354 302.695 24.4062C303.237 24.1562 303.664 23.8021 303.977 23.3438C304.31 22.8854 304.581 22.4062 304.789 21.9062C304.997 21.3854 305.143 20.7604 305.227 20.0312C305.331 19.2813 305.393 18.625 305.414 18.0625C305.456 17.4792 305.477 16.7917 305.477 16C305.477 15.2083 305.456 14.5312 305.414 13.9688C305.393 13.3854 305.331 12.7292 305.227 12C305.143 11.25 304.997 10.625 304.789 10.125C304.581 9.60417 304.31 9.11458 303.977 8.65625C303.664 8.19792 303.237 7.85417 302.695 7.625C302.174 7.375 301.56 7.25 300.852 7.25ZM1069.6 16C1068.5 16 1067.71 16.0938 1067.23 16.2812C1066.52 16.5521 1065.95 17.0625 1065.51 17.8125C1065.07 18.5417 1064.85 19.3958 1064.85 20.375C1064.85 21.5833 1065.18 22.6146 1065.85 23.4688C1066.52 24.3229 1067.4 24.75 1068.51 24.75C1069.42 24.75 1070.23 24.5312 1070.91 24.0938C1071.6 23.6354 1072.13 23.0417 1072.51 22.3125C1072.99 21.3542 1073.23 19.7292 1073.23 17.4375V16H1069.6ZM626.164 23.75L622.227 24.25L620.602 12.25L624.539 11.75L626.164 23.75ZM112.352 20H108.039L113.227 8H117.539L112.352 20ZM1000.2 9.5C1001.24 9.5 1002.08 9.82292 1002.73 10.4688C1003.37 11.1146 1003.7 11.9583 1003.7 13C1003.7 14.0417 1003.37 14.8854 1002.73 15.5312C1002.08 16.1771 1001.24 16.5 1000.2 16.5C999.154 16.5 998.31 16.1771 997.664 15.5312C997.018 14.8854 996.695 14.0417 996.695 13C996.695 11.9583 997.018 11.1146 997.664 10.4688C998.31 9.82292 999.154 9.5 1000.2 9.5ZM1014.2 9.5C1015.24 9.5 1016.08 9.82292 1016.73 10.4688C1017.37 11.1146 1017.7 11.9583 1017.7 13C1017.7 14.0417 1017.37 14.8854 1016.73 15.5312C1016.08 16.1771 1015.24 16.5 1014.2 16.5C1013.15 16.5 1012.31 16.1771 1011.66 15.5312C1011.02 14.8854 1010.7 14.0417 1010.7 13C1010.7 11.9583 1011.02 11.1146 1011.66 10.4688C1012.31 9.82292 1013.15 9.5 1014.2 9.5Z" fill="white"/>
</svg>
