<svg width="399" height="169" viewBox="0 0 399 169" fill="none" xmlns="http://www.w3.org/2000/svg">
<path d="M58.4197 84.0272C51.5254 83.1678 48.0675 78.0223 48.0371 71.318C48.0132 66.3487 48.0072 61.3782 48.0192 56.4065C48.0192 56.3477 48.0484 56.3184 48.1069 56.3184H58.5863C58.6343 56.3184 58.6803 56.3373 58.7143 56.371C58.7482 56.4048 58.7673 56.4505 58.7673 56.4982C58.7661 60.6824 58.7637 64.8774 58.7601 69.0833C58.7565 71.2263 59.3298 73.4521 61.8381 73.7757C64.6026 74.1299 65.5325 72.0749 65.7188 69.655C65.8849 67.5023 65.8873 65.3485 65.726 63.1934C65.4824 59.9321 63.9182 57.3216 61.9761 54.8028C59.5024 51.5954 57.0168 48.3969 54.5193 45.2075C51.0488 40.7722 48.9275 36.0186 48.6713 30.3481C48.3542 23.3166 48.1858 14.8469 56.2249 12.1087C57.5448 11.6592 58.9882 11.3937 60.5553 11.3122C63.2093 11.1732 65.4788 11.2355 67.3636 11.4992C73.8511 12.4089 76.2251 16.9252 76.2645 23.0595C76.2908 27.1407 76.292 31.2231 76.2681 35.3066C76.2681 35.3654 76.2388 35.3947 76.1803 35.3947L66.0216 35.4271C65.9736 35.4271 65.9276 35.408 65.8937 35.3739C65.8597 35.3399 65.8407 35.2937 65.8407 35.2455C65.8419 31.9974 65.8449 28.7288 65.8496 25.4399C65.8532 23.5521 65.6705 21.2311 63.2912 20.947C60.4532 20.609 59.6935 22.5076 59.6308 24.9797C59.595 26.3616 59.6284 27.743 59.7312 29.1238C59.9605 32.1855 61.3741 34.6306 63.1855 37.011C65.8789 40.5516 68.5831 44.0839 71.298 47.6077C74.2811 51.4821 76.501 55.3673 77.0851 60.315C77.4452 63.3678 77.4326 66.7424 77.2338 69.948C76.7841 77.2114 73.3011 83.3278 65.4358 84.0775C62.937 84.316 60.5983 84.2993 58.4197 84.0272Z" fill="#3D3D3F"/>
<path d="M44.8379 75.3724C44.8964 78.0321 44.906 80.6456 44.8666 83.2129C44.863 83.3819 44.7776 83.4664 44.6104 83.4664H34.2206C34.1731 83.4664 34.1275 83.4475 34.0939 83.4138C34.0603 83.3801 34.0414 83.3343 34.0414 83.2866V52.2284C34.0414 52.1807 34.0226 52.135 33.989 52.1013C33.9554 52.0676 33.9098 52.0486 33.8623 52.0486H26.83C26.7821 52.0486 26.736 52.0676 26.7021 52.1013C26.6682 52.135 26.6491 52.1807 26.6491 52.2284L26.6527 83.2417C26.6527 83.3915 26.578 83.4664 26.4287 83.4664L15.9673 83.4628C15.8932 83.4628 15.8562 83.4257 15.8562 83.3514V12.0459C15.8562 11.986 15.8861 11.9561 15.9458 11.9561H26.5828C26.6004 11.9561 26.6172 11.9631 26.6297 11.9755C26.6421 11.988 26.6491 12.0049 26.6491 12.0226L26.658 40.4344C26.658 40.4544 26.662 40.4743 26.6698 40.4928C26.6775 40.5114 26.6889 40.5282 26.7032 40.5424C26.7175 40.5566 26.7345 40.5679 26.7532 40.5755C26.7719 40.5832 26.7919 40.5872 26.8121 40.5872H33.8623C33.9098 40.5872 33.9554 40.5682 33.989 40.5345C34.0226 40.5008 34.0414 40.4551 34.0414 40.4074V12.0693C34.0414 11.9938 34.0785 11.9561 34.1525 11.9561H44.7429C44.7795 11.9561 44.8146 11.9706 44.8405 11.9966C44.8664 12.0226 44.8809 12.0578 44.8809 12.0945C44.8809 33.0972 44.8809 54.1162 44.8809 75.1513C44.8809 75.1824 44.8749 75.2112 44.863 75.2376C44.8451 75.2807 44.8367 75.3257 44.8379 75.3724Z" fill="#3D3D3F"/>
<path d="M91.3389 41.0366L101.94 41.042C101.966 41.042 101.991 41.0525 102.01 41.071C102.028 41.0895 102.039 41.1147 102.039 41.1409L102.033 51.8598C102.033 51.8861 102.023 51.9112 102.004 51.9298C101.986 51.9483 101.961 51.9587 101.935 51.9587H91.3389C91.3128 51.9587 91.2877 51.9691 91.2692 51.9877C91.2507 52.0062 91.2403 52.0314 91.2403 52.0576L91.2386 72.4455C91.2386 72.4717 91.2489 72.4968 91.2674 72.5154C91.2859 72.5339 91.311 72.5444 91.3371 72.5444H105.475C105.501 72.5444 105.526 72.5548 105.545 72.5733C105.563 72.5919 105.574 72.617 105.574 72.6432V83.3676C105.574 83.3938 105.563 83.4189 105.545 83.4375C105.526 83.456 105.501 83.4664 105.475 83.4664H80.4994C80.4733 83.4664 80.4482 83.456 80.4297 83.4375C80.4113 83.4189 80.4009 83.3938 80.4009 83.3676V12.0549C80.4009 12.0287 80.4113 12.0036 80.4297 11.985C80.4482 11.9665 80.4733 11.9561 80.4994 11.9561H104.938C104.964 11.9561 104.989 11.9665 105.007 11.985C105.026 12.0036 105.036 12.0287 105.036 12.0549V22.2399C105.036 22.2661 105.026 22.2913 105.007 22.3098C104.989 22.3284 104.964 22.3388 104.938 22.3388H91.3389C91.3128 22.3388 91.2877 22.3492 91.2692 22.3677C91.2507 22.3863 91.2403 22.4114 91.2403 22.4377V40.9378C91.2403 40.9507 91.2429 40.9636 91.2479 40.9756C91.2528 40.9876 91.2601 40.9985 91.2692 41.0077C91.2784 41.0169 91.2892 41.0241 91.3012 41.0291C91.3131 41.0341 91.3259 41.0366 91.3389 41.0366Z" fill="#3D3D3F"/>
<path d="M126.921 70.1586L125.513 83.3352C125.509 83.3714 125.492 83.4049 125.465 83.4291C125.438 83.4534 125.402 83.4667 125.366 83.4664H115.96C115.939 83.4666 115.918 83.4623 115.899 83.4538C115.88 83.4453 115.863 83.4328 115.849 83.4171C115.835 83.4014 115.825 83.383 115.819 83.363C115.812 83.343 115.811 83.3218 115.813 83.301L124.499 12.0855C124.503 12.0496 124.521 12.0166 124.548 11.9927C124.575 11.9688 124.61 11.9558 124.646 11.9561H137.247C137.282 11.9562 137.316 11.9692 137.343 11.9926C137.37 12.0161 137.387 12.0484 137.392 12.0837L146.644 83.2992C146.647 83.32 146.645 83.3412 146.639 83.3613C146.633 83.3814 146.623 83.4 146.609 83.4158C146.595 83.4317 146.578 83.4444 146.559 83.4531C146.54 83.4618 146.52 83.4664 146.499 83.4664H136.331C136.295 83.4667 136.26 83.4534 136.232 83.4291C136.205 83.4049 136.188 83.3714 136.184 83.3352L134.776 70.155C134.772 70.1188 134.755 70.0853 134.728 70.0611C134.7 70.0368 134.665 70.0235 134.629 70.0237L127.068 70.0273C127.032 70.0271 126.997 70.0404 126.97 70.0646C126.943 70.0889 126.925 70.1224 126.921 70.1586ZM128.011 59.2221C128.01 59.2301 128.011 59.2382 128.013 59.2458C128.016 59.2534 128.02 59.2604 128.025 59.2663C128.031 59.2723 128.037 59.277 128.045 59.2802C128.052 59.2834 128.06 59.2851 128.068 59.285L133.536 59.2886C133.544 59.2887 133.552 59.287 133.559 59.2838C133.567 59.2806 133.573 59.2759 133.579 59.2699C133.584 59.264 133.588 59.257 133.591 59.2494C133.593 59.2418 133.594 59.2337 133.593 59.2257L130.807 33.5359C130.805 33.5226 130.798 33.5106 130.788 33.5019C130.777 33.4933 130.764 33.4885 130.751 33.4885C130.738 33.4885 130.724 33.4933 130.714 33.5019C130.704 33.5106 130.697 33.5226 130.695 33.5359L128.011 59.2221Z" fill="#3D3D3F"/>
<path d="M159.301 51.5772C159.225 51.5808 159.188 51.6203 159.188 51.6958V83.2629C159.188 83.3163 159.167 83.3675 159.129 83.4053C159.091 83.443 159.04 83.4642 158.987 83.4642L148.528 83.4678C148.48 83.4678 148.434 83.4487 148.401 83.4147C148.367 83.3806 148.348 83.3344 148.348 83.2863V12.1319C148.348 12.0851 148.367 12.0403 148.4 12.0073C148.433 11.9742 148.477 11.9557 148.524 11.9557C154.506 11.9545 160.509 11.9551 166.534 11.9575C174.2 11.9611 176.8 16.5367 176.73 23.5771C176.689 27.7931 176.735 32.0091 176.683 36.2252C176.639 39.7742 175.426 43.1236 172.156 44.7686C172.148 44.7727 172.141 44.7788 172.137 44.7863C172.132 44.7938 172.13 44.8024 172.13 44.811C172.13 44.8197 172.132 44.828 172.137 44.8352C172.141 44.8423 172.148 44.8479 172.156 44.8513C174.99 46.1398 176.487 48.3722 176.646 51.5484C176.679 52.21 176.698 52.8746 176.701 53.5423C176.735 59.8947 176.748 66.2472 176.742 72.5997C176.739 76.0786 176.296 79.7319 177.801 83.0022C177.824 83.052 177.834 83.1067 177.83 83.1614C177.827 83.2161 177.809 83.269 177.78 83.3151C177.75 83.3613 177.71 83.3993 177.662 83.4257C177.614 83.452 177.56 83.4659 177.506 83.466H167.243C167.164 83.466 167.086 83.4428 167.019 83.3994C166.953 83.356 166.901 83.2942 166.869 83.2215C166.334 82.0074 166.058 80.6991 166.043 79.2968C165.956 71.2926 165.929 63.2885 165.962 55.2844C165.971 52.9813 165.088 51.7785 162.791 51.6131C161.614 51.5292 160.451 51.5173 159.301 51.5772ZM162.947 41.252C165.781 40.923 166.061 37.7192 165.998 35.5204C165.908 32.3795 165.951 29.2332 165.953 26.0905C165.953 23.9223 165.507 21.9123 163.004 21.7397C161.77 21.6534 160.55 21.633 159.344 21.6786C159.302 21.68 159.262 21.6976 159.233 21.7278C159.204 21.758 159.188 21.7984 159.188 21.8404V41.1711C159.188 41.1977 159.193 41.224 159.204 41.2484C159.214 41.2728 159.23 41.2948 159.249 41.313C159.268 41.3313 159.291 41.3453 159.316 41.3543C159.341 41.3632 159.367 41.367 159.394 41.3653C160.603 41.2826 161.789 41.3868 162.947 41.252Z" fill="#3D3D3F"/>
<path d="M198.393 83.4664H187.976C187.954 83.4664 187.932 83.4621 187.912 83.4537C187.892 83.4453 187.874 83.433 187.858 83.4175C187.843 83.4019 187.83 83.3835 187.822 83.3632C187.814 83.3429 187.809 83.3212 187.809 83.2992V22.506C187.809 22.4616 187.792 22.4191 187.761 22.3877C187.729 22.3564 187.687 22.3388 187.643 22.3388H178.883C178.839 22.3388 178.797 22.3212 178.766 22.2898C178.734 22.2584 178.717 22.2159 178.717 22.1716V12.1233C178.717 12.1013 178.721 12.0796 178.729 12.0593C178.738 12.039 178.75 12.0206 178.766 12.005C178.781 11.9895 178.799 11.9772 178.82 11.9688C178.84 11.9604 178.862 11.9561 178.883 11.9561H207.485C207.507 11.9561 207.529 11.9604 207.549 11.9688C207.569 11.9772 207.588 11.9895 207.603 12.005C207.619 12.0206 207.631 12.039 207.639 12.0593C207.648 12.0796 207.652 12.1013 207.652 12.1233V22.1716C207.652 22.2159 207.634 22.2584 207.603 22.2898C207.572 22.3212 207.529 22.3388 207.485 22.3388H198.726C198.704 22.3388 198.682 22.3431 198.662 22.3515C198.642 22.3599 198.624 22.3722 198.608 22.3877C198.593 22.4033 198.58 22.4217 198.572 22.442C198.564 22.4623 198.559 22.484 198.559 22.506V83.2992C198.559 83.3436 198.542 83.3861 198.511 83.4175C198.479 83.4488 198.437 83.4664 198.393 83.4664Z" fill="#3D3D3F"/>
<path d="M236.631 70.0219L229.011 70.0255C228.982 70.0258 228.955 70.0366 228.934 70.0558C228.913 70.075 228.899 70.1014 228.896 70.1298L227.483 83.3622C227.48 83.3906 227.466 83.417 227.445 83.4362C227.424 83.4554 227.396 83.4662 227.368 83.4664H217.897C217.881 83.4663 217.865 83.4627 217.85 83.4558C217.835 83.449 217.821 83.439 217.811 83.4266C217.8 83.4142 217.792 83.3997 217.787 83.3839C217.782 83.3682 217.781 83.3515 217.783 83.3352L226.474 12.0585C226.477 12.0301 226.491 12.0039 226.513 11.9851C226.534 11.9662 226.562 11.9558 226.59 11.9561H239.248C239.277 11.9563 239.304 11.9668 239.325 11.9856C239.346 12.0045 239.36 12.0304 239.363 12.0585L248.622 83.337C248.624 83.3533 248.623 83.37 248.618 83.3857C248.613 83.4015 248.605 83.416 248.594 83.4284C248.583 83.4408 248.57 83.4508 248.555 83.4576C248.54 83.4645 248.524 83.4681 248.508 83.4682L238.274 83.461C238.245 83.4608 238.218 83.45 238.197 83.4308C238.175 83.4116 238.162 83.3852 238.159 83.3568L236.745 70.1262C236.742 70.0978 236.729 70.0714 236.708 70.0522C236.687 70.033 236.659 70.0222 236.631 70.0219ZM235.481 59.2851C235.493 59.2851 235.505 59.2826 235.516 59.2777C235.527 59.2729 235.537 59.2657 235.545 59.2567C235.553 59.2477 235.559 59.2371 235.563 59.2256C235.566 59.214 235.568 59.2018 235.567 59.1898L232.795 33.6618C232.748 33.2327 232.702 33.2333 232.657 33.6636L229.978 59.2293C229.977 59.237 229.978 59.2447 229.98 59.2521C229.983 59.2595 229.987 59.2663 229.992 59.2721C229.997 59.2779 230.004 59.2825 230.011 59.2857C230.018 59.2889 230.026 59.2905 230.034 59.2904L235.481 59.2851Z" fill="#3D3D3F"/>
<path d="M260.172 42.7536C260.128 43.1731 260.106 43.5483 260.106 43.8791C260.103 57.0467 260.103 70.2119 260.104 83.3747C260.104 83.4 260.094 83.4242 260.077 83.4421C260.059 83.46 260.035 83.47 260.011 83.47L250.599 83.4592C250.426 83.4592 250.339 83.3723 250.339 83.1985V12.0459C250.339 12.0221 250.349 11.9992 250.366 11.9824C250.382 11.9655 250.405 11.9561 250.429 11.9561H260.084C260.116 11.9561 260.136 11.9716 260.143 12.0028L269.265 49.6484C269.341 49.9661 269.379 49.9613 269.379 49.6341L269.374 12.0298C269.374 12.0102 269.382 11.9915 269.395 11.9776C269.409 11.9638 269.428 11.9561 269.447 11.9561H279.185C279.209 11.9561 279.231 11.9655 279.248 11.9824C279.265 11.9992 279.274 12.0221 279.274 12.0459V83.2345C279.274 83.2645 279.269 83.2942 279.257 83.3219C279.246 83.3496 279.229 83.3747 279.208 83.396C279.187 83.4172 279.162 83.434 279.134 83.4454C279.106 83.4569 279.077 83.4628 279.047 83.4628L270.585 83.4682C270.545 83.4682 270.506 83.4547 270.475 83.43C270.443 83.4052 270.421 83.3706 270.411 83.3316L260.208 42.75C260.191 42.6853 260.179 42.6865 260.172 42.7536Z" fill="#3D3D3F"/>
<path d="M283.589 83.4469C283.501 83.4459 283.418 83.4104 283.357 83.3482C283.295 83.2859 283.261 83.2018 283.261 83.1143V12.1342C283.261 12.0875 283.279 12.0427 283.312 12.0097C283.344 11.9766 283.388 11.9581 283.435 11.9581C289.044 11.9557 294.674 11.9521 300.326 11.9473C306.42 11.9437 310.372 14.7448 311.594 20.7497C311.872 22.122 312.012 23.4195 312.013 24.642C312.018 39.8161 312.008 54.9895 311.983 70.1624C311.968 78.1539 308.297 83.4199 299.889 83.4648C294.53 83.4936 289.096 83.4876 283.589 83.4469ZM300.871 26.9793C300.865 24.7265 300.588 21.8571 297.637 21.7115C296.49 21.6552 295.353 21.6432 294.224 21.6756C294.203 21.676 294.183 21.6848 294.168 21.6999C294.153 21.715 294.145 21.7353 294.145 21.7565V72.9077C294.145 72.976 294.179 73.012 294.247 73.0156C295.247 73.0707 296.247 73.0695 297.246 73.012C300.624 72.8196 300.896 69.934 300.898 67.2858C300.907 53.8509 300.898 40.4154 300.871 26.9793Z" fill="#3D3D3F"/>
<path d="M78.0738 152.706C76.2051 150.252 75.5279 147.068 75.5207 144.047C75.5088 139.146 75.5106 134.245 75.5261 129.344C75.5261 129.292 75.5518 129.265 75.6031 129.265L86.1344 129.267C86.1942 129.267 86.224 129.298 86.224 129.359C86.2228 132.884 86.2246 136.406 86.2294 139.925C86.2312 142.444 85.9374 146.552 89.5493 146.717C91.9555 146.827 92.9732 145.22 93.1613 143.019C93.3745 140.538 93.4265 137.523 93.129 135.338C92.7295 132.421 91.2836 130.134 89.4651 127.764C86.9652 124.509 84.4551 121.261 81.9348 118.021C78.6561 113.804 76.6889 109.526 76.2356 104.151C75.4688 95.0715 76.0636 85.0358 87.7147 84.2789C96.707 83.6946 103.632 85.167 103.748 95.9794C103.792 99.9875 103.8 104.074 103.771 108.239C103.771 108.261 103.763 108.282 103.747 108.298C103.732 108.313 103.711 108.322 103.689 108.322H93.3924C93.3682 108.322 93.3449 108.312 93.3278 108.295C93.3107 108.278 93.301 108.254 93.301 108.23C93.301 104.783 93.2998 101.323 93.2975 97.8492C93.2957 95.6109 92.6632 93.6602 89.9775 93.8526C88.463 93.9628 87.5773 94.7467 87.3205 96.2042C86.9819 98.1189 87.0141 100.544 87.213 102.351C87.5588 105.497 89.1785 108.016 91.0651 110.49C94.2458 114.661 96.4346 117.509 97.6315 119.034C100.333 122.476 102.781 125.858 103.96 130.078C104.898 133.435 104.868 137 104.787 140.639C104.744 142.621 104.633 144.176 104.452 145.302C103.41 151.814 99.5611 156.379 92.7797 157.032C87.6538 157.524 81.5138 157.228 78.0738 152.706Z" fill="#3D3D3F"/>
<path d="M143.341 149.506C143.339 149.497 143.334 149.49 143.328 149.484C143.322 149.479 143.313 149.476 143.305 149.475C143.296 149.475 143.287 149.477 143.28 149.482C143.273 149.487 143.267 149.494 143.264 149.502C141.721 153.341 138.38 156.809 134.148 157.276C127.377 158.024 123.43 152.896 122.574 146.794C122.47 146.057 122.418 144.94 122.418 143.441C122.413 128.649 122.421 113.856 122.443 99.0628C122.452 93.4894 124.292 87.4216 129.995 85.185C132.915 84.0398 136.197 84.0829 139.379 84.2537C148.14 84.7247 150.613 90.5822 150.719 98.3562C150.758 101.25 150.778 104.254 150.778 107.371C150.778 107.419 150.759 107.466 150.724 107.5C150.69 107.535 150.644 107.554 150.595 107.554L140.372 107.565C140.325 107.565 140.28 107.546 140.246 107.513C140.213 107.479 140.195 107.434 140.195 107.387C140.201 104.399 140.198 101.403 140.187 98.3994C140.178 95.9974 138.733 94.1941 136.162 94.6616C133.632 95.1218 133.436 97.9031 133.436 99.9581C133.43 113.727 133.426 127.497 133.422 141.268C133.42 143.591 134.214 146.341 137.014 146.323C140.211 146.305 140.956 143.974 140.956 141.3C140.954 135.535 140.957 129.783 140.967 124.044C140.967 124.025 140.963 124.007 140.956 123.989C140.949 123.972 140.938 123.956 140.925 123.943C140.911 123.93 140.896 123.919 140.878 123.912C140.861 123.905 140.842 123.902 140.823 123.902L136.26 123.926C136.236 123.926 136.212 123.921 136.19 123.912C136.167 123.903 136.147 123.89 136.13 123.872C136.113 123.855 136.099 123.835 136.09 123.813C136.08 123.79 136.076 123.766 136.076 123.742V113.086C136.076 113.038 136.094 112.993 136.128 112.959C136.162 112.925 136.207 112.906 136.255 112.906H151.102C151.144 112.906 151.184 112.923 151.214 112.952C151.243 112.982 151.26 113.021 151.26 113.063V156.28C151.26 156.34 151.23 156.37 151.17 156.37H145.217C145.189 156.37 145.162 156.361 145.141 156.344C145.119 156.328 145.104 156.304 145.096 156.278L143.341 149.506Z" fill="#3D3D3F"/>
<path d="M226.001 134.608C226.777 144.259 225.795 156.785 212.926 157.114C210.674 157.172 208.382 157.206 206.162 156.767C199.037 155.365 196.837 149.693 196.819 143.127C196.808 138.536 196.807 133.946 196.817 129.355C196.818 129.296 196.848 129.267 196.907 129.267H207.472C207.496 129.267 207.519 129.277 207.537 129.294C207.554 129.311 207.563 129.334 207.563 129.359C207.563 133.645 207.563 137.944 207.563 142.257C207.563 144.932 208.685 146.926 211.634 146.66C213.827 146.46 214.39 144.439 214.527 142.559C214.684 140.42 214.685 138.281 214.531 136.14C214.298 132.931 212.802 130.365 210.876 127.872C208.27 124.497 205.658 121.126 203.039 117.761C199.44 113.136 197.523 108.106 197.433 102.218C197.378 98.5934 197.22 95.8499 198.001 92.7683C200.126 84.3974 208.155 83.7034 215.267 84.3183C222.694 84.9601 225.053 89.7353 225.071 96.6373C225.081 100.503 225.081 104.368 225.073 108.234C225.073 108.257 225.064 108.279 225.047 108.296C225.031 108.312 225.009 108.322 224.985 108.322H214.732C214.707 108.322 214.683 108.312 214.666 108.294C214.648 108.277 214.639 108.253 214.639 108.228C214.641 104.946 214.643 101.652 214.646 98.3435C214.648 96.4773 214.474 94.1742 212.12 93.8794C209.541 93.5558 208.631 95.0264 208.486 97.3223C208.401 98.6503 208.383 99.9802 208.432 101.312C208.561 104.78 210.118 107.511 212.166 110.182C215.079 113.983 217.992 117.785 220.904 121.588C223.903 125.506 225.594 129.562 226.001 134.608Z" fill="#3D3D3F"/>
<path d="M241.873 157.219C235.933 157.195 231.171 154.369 229.652 148.363C229.039 145.937 228.888 143.979 228.888 141.211C228.881 126.967 228.881 112.723 228.887 98.4787C228.888 91.0392 232.198 84.8922 240.344 84.2971C246.362 83.8567 253.411 84.103 256.206 90.5681C257.351 93.22 257.537 96.3177 257.544 99.2105C257.552 103.403 257.553 107.595 257.546 111.785C257.546 111.808 257.537 111.831 257.52 111.847C257.504 111.864 257.481 111.873 257.458 111.873H246.98C246.96 111.873 246.941 111.866 246.925 111.854C246.909 111.841 246.898 111.824 246.893 111.805C246.787 111.378 246.884 110.875 246.886 110.571C246.894 106.87 246.893 103.169 246.882 99.4676C246.873 96.3537 245.771 93.8384 242.053 94.7571C240.459 95.1509 239.95 96.8714 239.948 98.3097C239.945 112.929 239.943 127.548 239.945 142.167C239.945 144.218 240.597 146.345 242.976 146.619C245.716 146.933 246.918 144.598 246.873 142.246C246.769 136.655 246.898 131.015 246.887 125.312C246.887 125.288 246.897 125.265 246.914 125.248C246.93 125.232 246.953 125.222 246.977 125.222H257.46C257.484 125.222 257.507 125.232 257.524 125.249C257.542 125.266 257.551 125.289 257.551 125.314C257.55 130.858 257.546 136.416 257.54 141.987C257.533 150.243 254.29 157.179 244.875 157.219C243.873 157.224 242.872 157.224 241.873 157.219Z" fill="#3D3D3F"/>
<path d="M301.814 156.262C294.733 153.728 293.708 145.96 293.703 139.504C293.69 119.061 293.688 106 293.699 100.321C293.712 93.8306 295.58 86.9141 302.566 84.8628C305.241 84.0771 308.296 84.0789 311.089 84.2569C321.446 84.9221 323.34 92.9586 323.346 101.597C323.353 114.386 323.353 127.175 323.347 139.964C323.344 148.605 320.998 156.853 310.573 157.204C307.638 157.303 304.689 157.292 301.814 156.262ZM304.757 139.863C304.763 142.425 304.68 146.519 308.389 146.652C311.582 146.765 312.289 143.948 312.289 141.402C312.29 127.442 312.283 113.483 312.268 99.5226C312.266 97.6492 311.693 95.294 309.65 94.7493C308.384 94.4113 307.275 94.5863 306.323 95.2742C304.619 96.5022 304.766 99.2727 304.761 101.096C304.726 114.019 304.725 126.941 304.757 139.863Z" fill="#3D3D3F"/>
<path d="M331.311 154.133C327.364 150.608 326.759 144.903 326.757 139.966C326.752 126.571 326.752 113.176 326.755 99.7817C326.757 92.1659 329.805 85.1776 338.311 84.3488C341.622 84.0252 345.143 84.0144 348.239 85.0535C355.178 87.3836 356.355 94.5553 356.357 100.902C356.362 114.237 356.362 127.573 356.359 140.908C356.357 149.759 353.1 157.179 342.968 157.224C338.691 157.242 334.707 157.168 331.311 154.133ZM340.216 146.363C341.95 147.068 344.095 146.465 344.797 144.59C345.14 143.676 345.311 142.688 345.311 141.627C345.304 127.758 345.298 113.89 345.293 100.023C345.293 98.5951 345.154 97.2557 344.536 96.1518C343.464 94.2443 340.338 94.0807 338.926 95.6502C337.957 96.7307 337.777 98.5843 337.777 100.051C337.77 113.861 337.779 127.672 337.803 141.482C337.806 143.416 338.19 145.541 340.216 146.363Z" fill="#3D3D3F"/>
<path d="M33.0453 156.336C27.3359 156.381 21.6319 156.389 15.9332 156.359C15.9128 156.359 15.8932 156.351 15.8788 156.336C15.8643 156.322 15.8562 156.302 15.8562 156.282V84.9511C15.8562 84.9296 15.8647 84.909 15.8798 84.8938C15.8949 84.8787 15.9154 84.8702 15.9368 84.8702C21.8564 84.839 27.7868 84.8492 33.7279 84.9007C34.81 84.9103 35.9436 85.0931 37.1284 85.4491C43.4243 87.3458 44.5602 92.903 44.562 98.7138C44.5692 113.587 44.5703 128.461 44.5656 143.335C44.5656 143.932 44.4975 144.787 44.3613 145.899C43.5676 152.36 39.6923 156.283 33.0453 156.336ZM33.4394 99.8824C33.4359 97.4894 33.0811 94.6272 29.9618 94.62C28.4067 94.6164 27.3407 94.6128 26.7638 94.6092C26.6921 94.6092 26.6563 94.6452 26.6563 94.7171L26.6509 145.805C26.6509 145.876 26.6861 145.913 26.7566 145.915C29.5766 146.027 32.5956 146.363 33.2424 142.972C33.3857 142.217 33.4574 141.454 33.4574 140.683C33.4609 127.083 33.455 113.483 33.4394 99.8824Z" fill="#3D3D3F"/>
<path d="M48.374 156.251V84.978C48.374 84.9466 48.3865 84.9164 48.4087 84.8941C48.4308 84.8719 48.4609 84.8594 48.4923 84.8594H72.8909C72.9223 84.8594 72.9524 84.8719 72.9745 84.8941C72.9967 84.9164 73.0092 84.9466 73.0092 84.978V95.1234C73.0092 95.1549 72.9967 95.1851 72.9745 95.2073C72.9524 95.2296 72.9223 95.2421 72.8909 95.2421H59.3317C59.3162 95.2421 59.3008 95.2452 59.2865 95.2511C59.2721 95.2571 59.2591 95.2658 59.2481 95.2768C59.2371 95.2879 59.2284 95.3009 59.2225 95.3153C59.2165 95.3297 59.2135 95.3452 59.2135 95.3607V113.828C59.2135 113.844 59.2165 113.86 59.2225 113.874C59.2284 113.888 59.2371 113.901 59.2481 113.912C59.2591 113.923 59.2721 113.932 59.2865 113.938C59.3008 113.944 59.3162 113.947 59.3317 113.947L69.9347 113.936C69.9661 113.936 69.9962 113.949 70.0183 113.971C70.0405 113.993 70.053 114.024 70.053 114.055V124.743C70.053 124.775 70.0405 124.805 70.0183 124.827C69.9962 124.85 69.9661 124.862 69.9347 124.862H59.3317C59.3162 124.862 59.3008 124.865 59.2865 124.871C59.2721 124.877 59.2591 124.886 59.2481 124.897C59.2371 124.908 59.2284 124.921 59.2225 124.935C59.2165 124.95 59.2135 124.965 59.2135 124.981V145.374C59.2135 145.405 59.2259 145.436 59.2481 145.458C59.2703 145.48 59.3004 145.493 59.3317 145.493H73.4732C73.5046 145.493 73.5347 145.505 73.5568 145.527C73.579 145.55 73.5915 145.58 73.5915 145.611V156.251C73.5915 156.283 73.579 156.313 73.5568 156.335C73.5347 156.357 73.5046 156.37 73.4732 156.37H48.4923C48.4609 156.37 48.4308 156.357 48.4087 156.335C48.3865 156.313 48.374 156.283 48.374 156.251Z" fill="#3D3D3F"/>
<path d="M118.596 84.8613H107.961C107.904 84.8613 107.858 84.9072 107.858 84.9638V156.267C107.858 156.324 107.904 156.37 107.961 156.37H118.596C118.652 156.37 118.698 156.324 118.698 156.267V84.9638C118.698 84.9072 118.652 84.8613 118.596 84.8613Z" fill="#3D3D3F"/>
<path d="M174.013 122.618V84.9529C174.013 84.9305 174.022 84.909 174.038 84.8931C174.055 84.8773 174.076 84.8684 174.099 84.8684L183.78 84.863C183.815 84.863 183.848 84.877 183.873 84.9019C183.898 84.9269 183.912 84.9607 183.912 84.996V156.28C183.912 156.304 183.903 156.327 183.886 156.343C183.869 156.36 183.846 156.37 183.823 156.37H175.174C175.145 156.37 175.116 156.36 175.092 156.341C175.069 156.322 175.052 156.297 175.045 156.267L164.813 115.571C164.81 115.557 164.801 115.544 164.789 115.536C164.777 115.528 164.763 115.524 164.749 115.526C164.734 115.528 164.721 115.535 164.712 115.546C164.702 115.557 164.697 115.571 164.697 115.585C164.698 115.613 164.701 115.638 164.706 115.661C164.716 115.701 164.725 115.738 164.731 115.768C164.738 115.797 164.741 115.818 164.742 115.828V156.28C164.742 156.304 164.732 156.327 164.715 156.343C164.698 156.36 164.676 156.37 164.652 156.37H155.156C155.109 156.37 155.063 156.351 155.03 156.317C154.996 156.283 154.977 156.238 154.977 156.19V84.9493C154.977 84.9254 154.986 84.9026 155.003 84.8857C155.02 84.8688 155.043 84.8594 155.067 84.8594H164.7C164.717 84.8594 164.734 84.8653 164.747 84.876C164.76 84.8868 164.77 84.9018 164.774 84.9187L173.909 122.631C173.91 122.638 173.912 122.644 173.916 122.65C173.919 122.656 173.924 122.662 173.929 122.666C173.934 122.67 173.941 122.673 173.947 122.675C173.954 122.677 173.961 122.678 173.968 122.677C173.974 122.676 173.981 122.674 173.987 122.67C173.993 122.667 173.998 122.662 174.003 122.657C174.007 122.652 174.01 122.645 174.012 122.639C174.014 122.632 174.014 122.625 174.013 122.618Z" fill="#3D3D3F"/>
<path d="M271.799 125.083L271.788 156.239C271.788 156.256 271.785 156.273 271.778 156.289C271.772 156.305 271.762 156.319 271.75 156.331C271.738 156.343 271.723 156.353 271.707 156.36C271.691 156.366 271.674 156.37 271.657 156.37H261.083C261.048 156.37 261.015 156.356 260.99 156.331C260.966 156.307 260.952 156.273 260.952 156.239V84.9942C260.952 84.9594 260.966 84.926 260.99 84.9014C261.015 84.8768 261.048 84.863 261.083 84.863L271.663 84.872C271.697 84.872 271.731 84.8858 271.755 84.9104C271.78 84.935 271.793 84.9684 271.793 85.0032L271.79 113.359C271.79 113.394 271.804 113.427 271.828 113.452C271.853 113.477 271.886 113.49 271.921 113.49H279.007C279.041 113.49 279.075 113.477 279.099 113.452C279.124 113.427 279.137 113.394 279.137 113.359V84.9906C279.137 84.9558 279.151 84.9224 279.176 84.8978C279.2 84.8732 279.233 84.8594 279.268 84.8594H289.891C289.926 84.8594 289.959 84.8732 289.983 84.8978C290.008 84.9224 290.022 84.9558 290.022 84.9906V156.239C290.022 156.273 290.008 156.307 289.983 156.331C289.959 156.356 289.926 156.37 289.891 156.37H279.268C279.233 156.37 279.2 156.356 279.176 156.331C279.151 156.307 279.137 156.273 279.137 156.239V125.083C279.137 125.048 279.124 125.015 279.099 124.99C279.075 124.966 279.041 124.952 279.007 124.952H271.93C271.895 124.952 271.862 124.966 271.837 124.99C271.813 125.015 271.799 125.048 271.799 125.083Z" fill="#3D3D3F"/>
<path d="M371.044 145.313H384.003C384.037 145.313 384.069 145.326 384.093 145.35C384.117 145.374 384.131 145.407 384.131 145.44V156.242C384.131 156.276 384.117 156.308 384.093 156.332C384.069 156.356 384.037 156.37 384.003 156.37H360.205C360.171 156.37 360.139 156.356 360.115 156.332C360.091 156.308 360.078 156.276 360.078 156.242V84.987C360.078 84.9532 360.091 84.9207 360.115 84.8968C360.139 84.8728 360.171 84.8594 360.205 84.8594H370.79C370.824 84.8594 370.856 84.8728 370.88 84.8968C370.904 84.9207 370.917 84.9532 370.917 84.987V145.185C370.917 145.219 370.931 145.252 370.954 145.275C370.978 145.299 371.011 145.313 371.044 145.313Z" fill="#3D3D3F"/>
</svg>
