<svg width="1182" height="640" viewBox="0 0 1182 640" fill="none" xmlns="http://www.w3.org/2000/svg">
<path d="M266.789 134C288.486 134 309.545 136.732 329.641 141.869C324.69 152.604 321.435 165.314 319.875 180H349.438C348.031 166.754 345.243 155.115 341.077 145.083C359.74 150.807 377.485 158.63 394.035 168.279L388.688 177.125V180H412.29C477.31 225.787 519.789 301.433 519.789 387C519.789 457.924 490.605 522.031 443.591 567.969C440.598 556.281 434.49 550.437 425.267 550.437C424.138 550.437 423.151 550.577 422.305 550.859L421.712 550.267L443.04 525.3V505.834H388.874V526.146H418.835L394.714 556.699L407.324 570.749C410.032 569.564 412.797 568.972 415.618 568.972C418.721 568.972 420.894 570.524 422.136 573.627C423.208 576.144 423.835 580.008 424.021 585.22C415.183 592.24 405.864 598.682 396.122 604.487C393.786 604.134 391.37 603.722 388.874 603.249V608.647C378.977 614.11 368.675 618.93 358.024 623.049V604.688H326.878L352.607 551.96C354.244 548.913 355.429 546.063 356.162 543.411C356.952 540.703 357.347 537.487 357.347 533.763C357.347 529.926 356.783 526.315 355.654 522.93C354.526 519.544 352.777 516.441 350.407 513.62C348.094 510.799 344.878 508.57 340.759 506.934C336.696 505.297 331.957 504.48 326.54 504.479C319.261 504.479 311.136 505.353 302.165 507.103V527.415C311.588 525.666 319.713 524.792 326.54 524.792C332.634 524.792 335.681 527.782 335.681 533.763C335.681 538.333 334.496 542.819 332.126 547.22L302.165 607.312V625H352.81C325.956 634.707 296.991 640 266.789 640C127.061 640 13.7891 526.728 13.7891 387C13.7891 247.272 127.061 134 266.789 134ZM934.856 504.479C941.289 504.479 946.705 506.003 951.106 509.05C955.507 512.097 958.668 516.215 960.586 521.406C961.714 524.397 962.448 527.5 962.786 530.716C963.125 533.932 963.294 538.248 963.294 543.665C963.294 560.874 962.081 574.247 959.655 583.782C955.988 598.057 947.58 612.812 934.434 628.047L917.93 614.421C923.121 608.384 927.381 602.769 930.71 597.578C934.039 592.387 936.549 586.66 938.242 580.397L937.396 580.059C935.026 582.033 932.205 583.02 928.933 583.021C922.67 583.021 917.845 580.735 914.46 576.165C909.1 568.999 906.419 558.194 906.419 543.75C906.419 533.763 907.322 526.315 909.128 521.406C911.046 516.215 914.206 512.097 918.606 509.05C923.007 506.003 928.424 504.48 934.856 504.479ZM1022.92 504.311C1034.32 504.311 1042.33 510.432 1046.96 522.676C1047.97 525.44 1048.73 529.249 1049.24 534.102C1049.75 538.954 1050.03 543.384 1050.09 547.39C1050.2 551.339 1050.26 557.349 1050.26 565.417C1050.26 573.485 1050.2 579.523 1050.09 583.529C1050.03 587.479 1049.75 591.88 1049.24 596.732C1048.73 601.585 1047.97 605.394 1046.96 608.158C1042.33 620.402 1034.32 626.523 1022.92 626.523C1011.52 626.523 1003.51 620.402 998.884 608.158C997.868 605.394 997.106 601.585 996.599 596.732C996.091 591.88 995.78 587.479 995.667 583.529C995.611 579.523 995.583 573.485 995.583 565.417C995.583 557.349 995.611 551.339 995.667 547.39C995.78 543.384 996.091 538.954 996.599 534.102C997.106 529.249 997.868 525.44 998.884 522.676C1003.51 510.432 1011.52 504.311 1022.92 504.311ZM443.591 567.969C445.029 573.584 445.749 580.548 445.749 588.861C445.749 601.613 443.153 611.064 437.962 617.214C432.771 623.307 424.984 626.354 414.603 626.354C407.719 626.354 399.143 625.48 388.874 623.73V608.647C391.315 607.3 393.731 605.912 396.122 604.487C402.973 605.523 409.133 606.042 414.603 606.042C418.27 606.042 420.753 604.518 422.051 601.472C423.405 598.425 424.082 594.164 424.082 588.691C424.082 587.474 424.061 586.317 424.021 585.22C430.839 579.805 437.371 574.046 443.591 567.969ZM616.458 526.146H583.958V552.552H584.805C588.246 550.351 591.971 549.251 595.977 549.251C611.437 549.251 619.167 561.89 619.167 587.168C619.167 600.484 616.571 610.359 611.38 616.791C606.245 623.167 598.459 626.354 588.021 626.354C581.137 626.354 572.561 625.48 562.292 623.73V603.249C571.489 605.111 579.501 606.042 586.328 606.042C588.754 606.042 590.786 605.563 592.422 604.604C594.058 603.644 595.272 602.233 596.062 600.371C596.851 598.509 597.387 596.535 597.669 594.447C598.008 592.36 598.177 589.877 598.177 586.999C598.177 574.417 594.848 568.125 588.19 568.125C584.579 568.125 581.786 569.225 579.812 571.426L562.292 566.855V505.834H616.458V526.146ZM694.365 516.413C689.174 522.45 684.914 528.065 681.585 533.256C678.256 538.447 675.745 544.174 674.053 550.437L674.899 550.775C677.269 548.801 680.09 547.813 683.362 547.812C689.625 547.812 694.45 550.098 697.835 554.668C703.195 561.834 705.876 572.64 705.876 587.084C705.876 597.071 704.973 604.519 703.167 609.428C701.305 614.562 698.202 618.681 693.857 621.784C689.569 624.831 684.378 626.354 678.284 626.354C671.457 626.354 665.815 624.859 661.357 621.869C656.9 618.822 653.684 614.675 651.709 609.428C650.581 606.437 649.847 603.333 649.509 600.117C649.17 596.901 649.001 592.585 649.001 587.168C649.001 569.959 650.213 556.586 652.64 547.051C656.307 532.776 664.715 518.021 677.861 502.787L694.365 516.413ZM849.502 504.479C858.417 504.479 865.328 507.526 870.237 513.62C875.146 519.657 877.601 527.302 877.601 536.556C877.601 549.42 873.172 558.505 864.313 563.809V564.655C874.3 570.072 879.294 579.636 879.294 593.347C879.294 602.938 876.67 610.837 871.423 617.044C866.175 623.251 858.868 626.354 849.502 626.354C840.136 626.354 832.828 623.251 827.581 617.044C822.334 610.837 819.71 602.938 819.71 593.347C819.71 579.636 824.704 570.072 834.69 564.655V563.809C825.832 558.505 821.403 549.42 821.403 536.556C821.403 527.302 823.858 519.657 828.767 513.62C833.675 507.526 840.587 504.479 849.502 504.479ZM239.153 505.834L215.456 523.1L226.204 538.757L236.276 531.394H237.122V625H258.789V505.834H239.153ZM358.024 625H352.81C354.557 624.368 356.295 623.718 358.024 623.049V625ZM530.511 511.843L494.88 580.82V581.667H508.083V569.817H529.749V581.667H540.583V601.979H529.749V625H508.083V601.979H470.166V583.359L512.061 502.363L530.511 511.843ZM792.415 523.607L765.84 625H743.919L769.987 526.992V526.146H731.478V505.834H792.415V523.607ZM677.438 568.125C675.859 568.125 674.532 568.971 673.46 570.664C671.598 573.542 670.667 579.015 670.667 587.084C670.667 595.152 671.598 600.625 673.46 603.503C674.532 605.196 675.859 606.042 677.438 606.042C679.018 606.042 680.344 605.195 681.416 603.503C683.278 600.625 684.209 595.152 684.209 587.084C684.209 579.015 683.278 573.542 681.416 570.664C680.344 568.972 679.018 568.125 677.438 568.125ZM849.502 574.727C846.794 574.727 844.762 576.306 843.408 579.466C842.054 582.625 841.377 586.688 841.377 591.653C841.377 595.941 842.054 599.412 843.408 602.063C844.762 604.715 846.794 606.042 849.502 606.042C852.21 606.042 854.242 604.715 855.596 602.063C856.95 599.412 857.627 595.941 857.627 591.653C857.627 586.688 856.95 582.625 855.596 579.466C854.242 576.306 852.21 574.727 849.502 574.727ZM1017.59 593.854C1017.98 597.183 1018.63 600.033 1019.53 602.402C1020.44 604.716 1021.57 605.873 1022.92 605.873C1025.35 605.873 1027.07 602.318 1028.08 595.209C1028.65 591.429 1028.93 581.498 1028.93 565.417V556.53L1017.59 593.854ZM1022.92 524.961C1020.49 524.961 1018.77 528.516 1017.76 535.625C1017.19 539.405 1016.91 549.336 1016.91 565.417V574.304L1028.25 536.979C1027.86 533.651 1027.21 530.829 1026.31 528.516C1025.4 526.146 1024.27 524.961 1022.92 524.961ZM934.856 524.792C933.277 524.792 931.951 525.638 930.879 527.331C929.017 530.209 928.086 535.682 928.086 543.75C928.086 551.818 929.017 557.291 930.879 560.169C931.951 561.862 933.277 562.708 934.856 562.708C936.436 562.708 937.763 561.862 938.835 560.169C940.697 557.291 941.628 551.818 941.628 543.75C941.628 535.682 940.697 530.209 938.835 527.331C937.763 525.638 936.436 524.792 934.856 524.792ZM849.502 524.792C847.358 524.792 845.75 526.062 844.678 528.601C843.606 531.083 843.069 534.3 843.069 538.249C843.069 542.876 843.606 546.741 844.678 549.844C845.75 552.891 847.358 554.414 849.502 554.414C851.646 554.414 853.254 552.891 854.326 549.844C855.398 546.741 855.935 542.876 855.935 538.249C855.935 534.3 855.398 531.083 854.326 528.601C853.254 526.062 851.646 524.792 849.502 524.792ZM560.766 179.281C560.766 180.135 560.745 180.812 560.703 181.312C560.682 181.812 560.536 182.469 560.266 183.281C560.016 184.115 559.641 184.865 559.141 185.531C557.682 187.51 555.557 188.5 552.766 188.5V184.75C554.141 184.75 555.182 184.281 555.891 183.344C556.161 182.99 556.359 182.562 556.484 182.062C556.63 181.583 556.714 181.167 556.734 180.812C556.755 180.479 556.766 179.969 556.766 179.281V176H552.766V168.5H560.766V179.281ZM668.906 132.812L644.25 184.844L640.719 183.188L665.375 131.156L668.906 132.812ZM164.516 173.5C163.474 173.5 162.63 173.823 161.984 174.469C161.339 175.115 161.016 175.958 161.016 177C161.016 178.042 161.339 178.885 161.984 179.531C162.63 180.177 163.474 180.5 164.516 180.5C165.557 180.5 166.401 180.177 167.047 179.531C167.693 178.885 168.016 178.042 168.016 177C168.016 175.958 167.693 175.115 167.047 174.469C166.401 173.823 165.557 173.5 164.516 173.5ZM174.516 173.5C173.474 173.5 172.63 173.823 171.984 174.469C171.339 175.115 171.016 175.958 171.016 177C171.016 178.042 171.339 178.885 171.984 179.531C172.63 180.177 173.474 180.5 174.516 180.5C175.557 180.5 176.401 180.177 177.047 179.531C177.693 178.885 178.016 178.042 178.016 177C178.016 175.958 177.693 175.115 177.047 174.469C176.401 173.823 175.557 173.5 174.516 173.5ZM184.516 173.5C183.474 173.5 182.63 173.823 181.984 174.469C181.339 175.115 181.016 175.958 181.016 177C181.016 178.042 181.339 178.885 181.984 179.531C182.63 180.177 183.474 180.5 184.516 180.5C185.557 180.5 186.401 180.177 187.047 179.531C187.693 178.885 188.016 178.042 188.016 177C188.016 175.958 187.693 175.115 187.047 174.469C186.401 173.823 185.557 173.5 184.516 173.5ZM236.609 144.125H228.609V147.875H236.609V180H240.609V147.875H248.609V144.125H240.609V136H236.609V144.125ZM268.625 144.125H260.625V147.875H268.625V168.125H260.625V171.875H268.625V180H272.625V171.875H280.625V168.125H272.625V147.875H280.625V144.125H272.625V136H268.625V144.125ZM412.688 180H412.29C410.482 178.727 408.657 177.477 406.814 176.25H412.688V180ZM624.797 180H616.797V172.5H624.797V180ZM694.109 149.656L684.734 161.844V162.156L694.109 174.344L690.859 176.469L680.828 163.062V160.938L690.859 147.531L694.109 149.656ZM724.844 160.938V163.062L714.812 176.469L711.562 174.344L720.938 162.156V161.844L711.562 149.656L714.812 147.531L724.844 160.938ZM758.141 149.656L748.766 161.844V162.156L758.141 174.344L754.891 176.469L744.859 163.062V160.938L754.891 147.531L758.141 149.656ZM788.875 160.938V163.062L778.844 176.469L775.594 174.344L784.969 162.156V161.844L775.594 149.656L778.844 147.531L788.875 160.938ZM333.128 142.787C334.287 143.101 335.442 143.423 336.594 143.753C340.841 153.913 343.581 164.745 344.812 176.25H324.5C325.678 164.585 328.554 153.43 333.128 142.787ZM397.261 170.194C400.493 172.144 403.679 174.162 406.814 176.25H393.844V175.938L397.261 170.194ZM464.719 160.312L476.219 156.562L477.531 160.094L465.844 163.906L473.125 173.906L469.812 176L462.719 166.281L455.656 176L452.344 173.906L459.594 163.906L447.906 160.094L449.219 156.562L460.719 160.312V148H464.719V160.312ZM528.75 160.125H540.75V163.875H528.75V176H524.75V163.875H512.75V160.125H524.75V148H528.75V160.125ZM893.391 150.031L891.266 153.281L880.922 145.312V176H876.922V145.312L866.578 153.281L864.453 150.031L877.859 140H879.984L893.391 150.031ZM1008.98 170.688L1019.33 162.719L1021.45 165.969L1008.05 176H1005.92L992.516 165.969L994.641 162.719L1004.98 170.688V140H1008.98V170.688ZM1149.52 150.031L1147.39 153.281L1137.05 145.312V170.688L1147.39 162.719L1149.52 165.969L1136.11 176H1133.98L1120.58 165.969L1122.7 162.719L1133.05 170.688V145.312L1122.7 153.281L1120.58 150.031L1133.98 140H1136.11L1149.52 150.031ZM60.5156 175.875H32.5156V172.125H60.5156V175.875ZM124.547 175.875H96.5469V172.125H124.547V175.875ZM814.172 145.656L806.109 156.125H828.891V159.875H806.109L814.172 170.344L810.922 172.469L800.891 159.062V156.938L810.922 143.531L814.172 145.656ZM956.953 156.938V159.062L946.922 172.469L943.672 170.344L951.734 159.875H928.953V156.125H951.734L943.672 145.656L946.922 143.531L956.953 156.938ZM1085.02 156.938V159.062L1077.17 172.469L1073.86 170.531L1080.11 159.875H1061.92L1068.17 170.531L1064.86 172.469L1057.02 159.062V156.938L1064.86 143.531L1068.17 145.469L1061.92 156.125H1080.11L1073.86 145.469L1077.17 143.531L1085.02 156.938ZM412.688 139.75H393.844V140.062L403.625 156.5V159.5L397.261 170.194C396.19 169.549 395.116 168.909 394.035 168.279L400.156 158.156V157.844L388.688 138.875V136H412.688V139.75ZM60.5156 148.062L37.0781 155.844V156.156L60.5156 163.938V168L32.5156 158.5V153.5L60.5156 144V148.062ZM124.547 153.5V158.5L96.5469 168V163.938L119.984 156.156V155.844L96.5469 148.062V144L124.547 153.5ZM604.781 163.875H576.781V160.125H604.781V163.875ZM204.594 153.5C203.26 153.5 202.177 153.917 201.344 154.75C200.51 155.583 200.094 156.667 200.094 158C200.094 159.333 200.51 160.417 201.344 161.25C202.177 162.083 203.26 162.5 204.594 162.5C205.927 162.5 207.01 162.083 207.844 161.25C208.677 160.417 209.094 159.333 209.094 158C209.094 156.667 208.677 155.583 207.844 154.75C207.01 153.917 205.927 153.5 204.594 153.5ZM336.688 136C338.291 138.865 339.753 141.893 341.077 145.083C339.588 144.626 338.094 144.183 336.594 143.753C336.027 142.396 335.433 141.051 334.812 139.719H334.5C334.027 140.737 333.57 141.76 333.128 142.787C331.969 142.473 330.806 142.167 329.641 141.869C330.575 139.842 331.57 137.886 332.625 136H336.688ZM368.672 115.281C368.672 116.135 368.651 116.812 368.609 117.312C368.589 117.812 368.443 118.469 368.172 119.281C367.922 120.115 367.547 120.865 367.047 121.531C365.589 123.51 363.464 124.5 360.672 124.5V120.75C362.047 120.75 363.089 120.281 363.797 119.344C364.068 118.99 364.266 118.562 364.391 118.062C364.536 117.583 364.62 117.167 364.641 116.812C364.661 116.479 364.672 115.969 364.672 115.281V112H360.672V104.5H368.672V115.281ZM943.516 71.5625C945.703 71.5625 948.432 71.8542 951.703 72.4375V76.2812C948.474 75.6354 945.745 75.3125 943.516 75.3125C942.391 75.3125 941.391 75.4583 940.516 75.75C939.641 76.0208 938.932 76.375 938.391 76.8125C937.87 77.25 937.443 77.7604 937.109 78.3438C936.776 78.9062 936.547 79.4583 936.422 80C936.297 80.5208 936.234 81.0521 936.234 81.5938C936.234 83.7188 937.109 85.4375 938.859 86.75C939.609 87.2917 940.568 87.6354 941.734 87.7812C942.922 87.9062 944.182 88.0417 945.516 88.1875C946.87 88.3125 948.047 88.6354 949.047 89.1562C950.589 89.9688 951.839 91.1458 952.797 92.6875C953.755 94.2083 954.234 95.9583 954.234 97.9375C954.234 99.6458 953.786 101.26 952.891 102.781C951.995 104.302 950.703 105.521 949.016 106.438C950.432 107.312 951.557 108.448 952.391 109.844C953.245 111.24 953.672 112.802 953.672 114.531C953.672 115.823 953.432 117.052 952.953 118.219C952.474 119.385 951.786 120.438 950.891 121.375C949.995 122.333 948.807 123.094 947.328 123.656C945.87 124.219 944.224 124.5 942.391 124.5C939.974 124.5 936.828 124.094 932.953 123.281V119.438C936.724 120.312 939.87 120.75 942.391 120.75C943.516 120.75 944.516 120.604 945.391 120.312C946.266 120.042 946.964 119.688 947.484 119.25C948.026 118.833 948.464 118.333 948.797 117.75C949.13 117.188 949.359 116.646 949.484 116.125C949.609 115.604 949.672 115.073 949.672 114.531C949.672 113.26 949.38 112.146 948.797 111.188C948.234 110.229 947.484 109.51 946.547 109.031C945.672 108.594 944.13 108.292 941.922 108.125C939.734 107.958 938.068 107.573 936.922 106.969C935.318 106.115 934.036 104.917 933.078 103.375C932.141 101.833 931.672 100.094 931.672 98.1562C931.672 96.4479 932.12 94.8438 933.016 93.3438C933.911 91.8229 935.203 90.5938 936.891 89.6562C935.432 88.7396 934.286 87.5938 933.453 86.2188C932.641 84.8229 932.234 83.2812 932.234 81.5938C932.234 80.3021 932.474 79.0729 932.953 77.9062C933.432 76.7188 934.12 75.6458 935.016 74.6875C935.911 73.7292 937.089 72.9688 938.547 72.4062C940.026 71.8438 941.682 71.5625 943.516 71.5625ZM1012.67 71.5C1013.53 71.5 1014.96 71.5938 1016.98 71.7812V75.5312C1015.07 75.3438 1013.73 75.25 1012.98 75.25C1011.59 75.25 1010.55 75.7083 1009.86 76.625C1009.59 77 1009.38 77.4375 1009.23 77.9375C1009.11 78.4375 1009.04 78.8646 1009.02 79.2188C1008.99 79.5729 1008.98 80.0729 1008.98 80.7188V115.281C1008.98 115.948 1008.96 116.49 1008.92 116.906C1008.9 117.344 1008.83 117.906 1008.7 118.594C1008.58 119.302 1008.35 119.969 1008.02 120.594C1007.68 121.24 1007.24 121.833 1006.7 122.375C1005.33 123.792 1003.53 124.5 1001.3 124.5C1000.44 124.5 999.005 124.406 996.984 124.219V120.469C998.901 120.656 1000.23 120.75 1000.98 120.75C1002.38 120.75 1003.42 120.292 1004.11 119.375C1004.38 119 1004.58 118.562 1004.7 118.062C1004.85 117.562 1004.93 117.135 1004.95 116.781C1004.97 116.427 1004.98 115.927 1004.98 115.281V80.7188C1004.98 79.8021 1005.01 79.0625 1005.05 78.5C1005.11 77.9167 1005.32 77.1458 1005.67 76.1875C1006.03 75.2083 1006.56 74.3542 1007.27 73.625C1008.62 72.2083 1010.42 71.5 1012.67 71.5ZM432.703 124H428.703V68H432.703V124ZM561.078 124H556.453L556.766 96H560.766L561.078 124ZM592.781 83.5C595.198 83.5625 597.656 83.7917 600.156 84.1875V87.9375C597.115 87.4792 594.156 87.25 591.281 87.25C588.26 87.25 586.094 88.7292 584.781 91.6875C584.469 92.375 584.229 93.2292 584.062 94.25C583.917 95.2708 583.833 96.1458 583.812 96.875C583.792 97.6042 583.781 98.6458 583.781 100C583.781 101.417 583.792 102.51 583.812 103.281C583.833 104.031 583.927 104.938 584.094 106C584.281 107.062 584.542 107.948 584.875 108.656C586.167 111.385 588.344 112.75 591.406 112.75C594.177 112.75 597.302 112.479 600.781 111.938V115.719C597.844 116.156 595.177 116.417 592.781 116.5V124H588.781V116.219C586.948 115.885 585.385 115.167 584.094 114.062C582.823 112.938 581.833 111.573 581.125 109.969C580.542 108.656 580.167 107.25 580 105.75C579.854 104.25 579.781 102.333 579.781 100C579.781 97.7708 579.854 95.9167 580 94.4375C580.167 92.9375 580.51 91.5417 581.031 90.25C581.698 88.6042 582.688 87.1979 584 86.0312C585.312 84.8646 586.906 84.1146 588.781 83.7812V76H592.781V83.5ZM188.672 119.188L185.141 120.844L160.484 68.8125L164.016 67.1562L188.672 119.188ZM408.688 71.3125C406.042 71.3125 404.042 71.8021 402.688 72.7812C401.354 73.7396 400.688 75.4062 400.688 77.7812V85.6875C400.688 88 400.312 89.7708 399.562 91C398.812 92.2292 397.531 93.1875 395.719 93.875V94.1875C397.531 94.875 398.812 95.8333 399.562 97.0625C400.312 98.2917 400.688 100.062 400.688 102.375V110.281C400.688 112.656 401.354 114.333 402.688 115.312C404.021 116.271 406.021 116.75 408.688 116.75V120.5C404.958 120.5 402.021 119.667 399.875 118C397.75 116.333 396.688 113.76 396.688 110.281V102.375C396.688 100 396.021 98.3333 394.688 97.375C393.354 96.3958 391.354 95.9062 388.688 95.9062V92.1562C391.333 92.1562 393.323 91.6771 394.656 90.7188C396.01 89.7396 396.688 88.0625 396.688 85.6875V77.7812C396.688 74.3021 397.75 71.7292 399.875 70.0625C402.021 68.3958 404.958 67.5625 408.688 67.5625V71.3125ZM452.719 67.5625C456.448 67.5625 459.375 68.3958 461.5 70.0625C463.646 71.7292 464.719 74.3021 464.719 77.7812V85.6875C464.719 88.0625 465.385 89.7396 466.719 90.7188C468.073 91.6771 470.073 92.1562 472.719 92.1562V95.9062C470.052 95.9062 468.052 96.3958 466.719 97.375C465.385 98.3333 464.719 100 464.719 102.375V110.281C464.719 113.76 463.646 116.333 461.5 118C459.375 119.667 456.448 120.5 452.719 120.5V116.75C455.385 116.75 457.385 116.271 458.719 115.312C460.052 114.333 460.719 112.656 460.719 110.281V102.375C460.719 100.062 461.094 98.2917 461.844 97.0625C462.594 95.8333 463.875 94.875 465.688 94.1875V93.875C463.875 93.1875 462.594 92.2292 461.844 91C461.094 89.7708 460.719 88 460.719 85.6875V77.7812C460.719 75.4062 460.042 73.7396 458.688 72.7812C457.354 71.8021 455.365 71.3125 452.719 71.3125V67.5625ZM152.562 71.75H140.562V116.25H152.562V120C152.562 120 147.229 120 136.562 120C136.562 120 136.562 102.667 136.562 68H152.562V71.75ZM212.594 120C212.594 120 207.26 120 196.594 120V116.25H208.594V71.75H196.594V68H212.594C212.594 68 212.594 85.3333 212.594 120ZM284.625 119.75H256.625V116H284.625V119.75ZM910.938 107.5C912.271 107.5 913.354 107.917 914.188 108.75C915.021 109.583 915.438 110.667 915.438 112C915.438 113.333 915.021 114.417 914.188 115.25C913.354 116.083 912.271 116.5 910.938 116.5C909.604 116.5 908.521 116.083 907.688 115.25C906.854 114.417 906.438 113.333 906.438 112C906.438 110.667 906.854 109.583 907.688 108.75C908.521 107.917 909.604 107.5 910.938 107.5ZM974.969 107.5C976.302 107.5 977.385 107.917 978.219 108.75C979.052 109.583 979.469 110.667 979.469 112C979.469 113.333 979.052 114.417 978.219 115.25C977.385 116.083 976.302 116.5 974.969 116.5C973.635 116.5 972.552 116.083 971.719 115.25C970.885 114.417 970.469 113.333 970.469 112C970.469 110.667 970.885 109.583 971.719 108.75C972.552 107.917 973.635 107.5 974.969 107.5ZM336.656 116H328.656V108.5H336.656V116ZM656.125 71.5C658.104 71.5 660.688 71.6562 663.875 71.9688V75.7188C660.646 75.4062 658.062 75.25 656.125 75.25C653.104 75.25 651 76.6146 649.812 79.3438C649.5 80.0521 649.26 80.9375 649.094 82C648.948 83.0625 648.865 83.9792 648.844 84.75C648.823 85.5 648.812 86.5833 648.812 88V92H660.812V95.75H648.812V112.25H664.812V116H640.812V112.25H644.812V95.75H640.812V92H644.812V88C644.812 85.6667 644.885 83.75 645.031 82.25C645.177 80.75 645.521 79.3438 646.062 78.0312C646.854 76.0938 648.104 74.5208 649.812 73.3125C651.521 72.1042 653.625 71.5 656.125 71.5ZM772.312 72C774.5 80.875 777.865 87.8333 782.406 92.875H783.344C787.885 87.8333 791.25 80.875 793.438 72H797.344C795.594 79.7708 792.646 86.4375 788.5 92H792.875V95.75H785.406L784.875 96.3125V100.25H792.875V104H784.875V116H780.875V104H772.875V100.25H780.875V96.3125L780.344 95.75H772.875V92H777.25C773.104 86.4375 770.156 79.7708 768.406 72H772.312ZM1110 88.125H1117.03V91.875H1108.16L1102.09 104.125H1117.03V107.875H1100.22L1096.22 116H1092.03L1096.06 107.875H1089.03V104.125H1097.91L1103.97 91.875H1089.03V88.125H1105.84L1109.84 80H1114.03L1110 88.125ZM829.047 82.9688L813.078 97.8438V98.1562L829.047 113.031L826.359 115.844L808.922 99.4062V96.5938L826.359 80.1562L829.047 82.9688ZM884.922 96.5938V99.4062L867.484 115.844L864.797 113.031L880.766 98.1562V97.8438L864.797 82.9688L867.484 80.1562L884.922 96.5938ZM14.5 75.5312C17.75 75.5312 20.5 76.3646 22.75 78.0312C25.0208 79.6771 26.6458 81.8542 27.625 84.5625C28.5417 87.0625 29 90.2083 29 94C29 97.7917 28.5417 100.938 27.625 103.438C26.6458 106.146 25.0208 108.333 22.75 110C20.5 111.646 17.75 112.469 14.5 112.469C11.25 112.469 8.48958 111.646 6.21875 110C3.96875 108.333 2.35417 106.146 1.375 103.438C0.458333 100.938 0 97.7917 0 94C0 90.2083 0.458333 87.0625 1.375 84.5625C2.35417 81.8542 3.96875 79.6771 6.21875 78.0312C8.48958 76.3646 11.25 75.5312 14.5 75.5312ZM1181.06 111.875H1153.06V108.125H1181.06V111.875ZM731.969 87.625L727.562 92C728.75 93.75 729.344 95.75 729.344 98C729.344 100.25 728.75 102.25 727.562 104L731.969 108.375L729.219 111.125L724.812 106.688C723.062 107.812 721.073 108.375 718.844 108.375C716.615 108.375 714.625 107.812 712.875 106.688L708.469 111.125L705.719 108.375L710.125 104C708.938 102.25 708.344 100.25 708.344 98C708.344 95.75 708.938 93.75 710.125 92L705.719 87.625L708.469 84.875L712.875 89.3125C714.625 88.1875 716.615 87.625 718.844 87.625C721.073 87.625 723.062 88.1875 724.812 89.3125L729.219 84.875L731.969 87.625ZM14.5 78.0938C11.8542 78.0938 9.64583 78.7604 7.875 80.0938C6.10417 81.4062 4.8125 83.1667 4 85.375C3.16667 87.6667 2.75 90.5417 2.75 94C2.75 97.4583 3.16667 100.333 4 102.625C4.8125 104.854 6.09375 106.625 7.84375 107.938C9.61458 109.25 11.8333 109.906 14.5 109.906C17.1458 109.906 19.3542 109.25 21.125 107.938C22.8958 106.604 24.1875 104.833 25 102.625C25.8333 100.333 26.25 97.4583 26.25 94C26.25 90.5417 25.8333 87.6667 25 85.375C24.1875 83.1458 22.8958 81.375 21.125 80.0625C19.375 78.75 17.1667 78.0938 14.5 78.0938ZM1053.91 100.594C1053.59 101.594 1053.2 102.531 1052.72 103.406C1052.24 104.281 1051.65 105.115 1050.94 105.906C1050.23 106.698 1049.36 107.333 1048.34 107.812C1047.32 108.271 1046.2 108.5 1044.97 108.5C1043.93 108.5 1042.92 108.323 1041.94 107.969C1040.98 107.594 1040.14 107.156 1039.41 106.656C1038.68 106.135 1037.97 105.625 1037.28 105.125C1036.61 104.604 1035.92 104.167 1035.19 103.812C1034.46 103.438 1033.74 103.25 1033.03 103.25C1030.68 103.25 1028.94 105.042 1027.81 108.625L1024.06 107.375C1024.38 106.375 1024.77 105.438 1025.25 104.562C1025.73 103.688 1026.32 102.854 1027.03 102.062C1027.74 101.271 1028.6 100.646 1029.62 100.188C1030.67 99.7292 1031.8 99.5 1033.03 99.5C1034.07 99.5 1035.07 99.6875 1036.03 100.062C1037.01 100.417 1037.86 100.854 1038.59 101.375C1039.32 101.875 1040.02 102.385 1040.69 102.906C1041.38 103.406 1042.08 103.844 1042.81 104.219C1043.54 104.573 1044.26 104.75 1044.97 104.75C1047.32 104.75 1049.06 102.958 1050.19 99.375L1053.91 100.594ZM124.547 107.875H96.5469V104.125H124.547V107.875ZM860.922 107.875H832.922V104.125H860.922V107.875ZM718.844 91.375C716.906 91.375 715.333 91.9688 714.125 93.1562C712.938 94.3438 712.344 95.9583 712.344 98C712.344 100.042 712.938 101.656 714.125 102.844C715.333 104.031 716.906 104.625 718.844 104.625C720.781 104.625 722.344 104.031 723.531 102.844C724.74 101.656 725.344 100.042 725.344 98C725.344 95.9583 724.74 94.3438 723.531 93.1562C722.344 91.9688 720.781 91.375 718.844 91.375ZM942.609 91.625C941.297 91.625 940.151 91.8438 939.172 92.2812C938.214 92.6979 937.495 93.2604 937.016 93.9688C936.536 94.6562 936.193 95.3438 935.984 96.0312C935.776 96.7188 935.672 97.4271 935.672 98.1562C935.672 99.6146 936.036 100.844 936.766 101.844C937.516 102.823 938.432 103.51 939.516 103.906C940.62 104.302 941.849 104.5 943.203 104.5C944.536 104.5 945.693 104.281 946.672 103.844C947.651 103.406 948.38 102.844 948.859 102.156C949.339 101.448 949.682 100.75 949.891 100.062C950.12 99.3542 950.234 98.6458 950.234 97.9375C950.234 95.8125 949.536 94.2292 948.141 93.1875C946.766 92.1458 944.922 91.625 942.609 91.625ZM488.453 91.875C489.766 91.875 490.953 92.1667 492.016 92.75C493.099 93.3333 493.995 94.0417 494.703 94.875C495.411 95.7083 496.078 96.5417 496.703 97.375C497.328 98.2083 498.005 98.9167 498.734 99.5C499.464 100.083 500.224 100.375 501.016 100.375C501.599 100.375 502.099 100.302 502.516 100.156C502.932 100.01 503.276 99.75 503.547 99.375C503.818 99 504.036 98.6146 504.203 98.2188C504.37 97.8229 504.484 97.2604 504.547 96.5312C504.63 95.8021 504.682 95.125 504.703 94.5C504.724 93.875 504.734 93.0417 504.734 92H508.734C508.734 93.4792 508.672 94.7812 508.547 95.9062C508.443 97.0312 508.224 98.1354 507.891 99.2188C507.578 100.281 507.141 101.156 506.578 101.844C506.016 102.531 505.266 103.083 504.328 103.5C503.391 103.917 502.286 104.125 501.016 104.125C499.703 104.125 498.505 103.833 497.422 103.25C496.359 102.667 495.474 101.958 494.766 101.125C494.057 100.292 493.391 99.4583 492.766 98.625C492.141 97.7917 491.464 97.0833 490.734 96.5C490.005 95.9167 489.245 95.625 488.453 95.625C487.87 95.625 487.37 95.6979 486.953 95.8438C486.536 95.9896 486.193 96.25 485.922 96.625C485.651 97 485.432 97.3854 485.266 97.7812C485.099 98.1771 484.974 98.7396 484.891 99.4688C484.828 100.198 484.786 100.875 484.766 101.5C484.745 102.125 484.734 102.958 484.734 104H480.734C480.734 102.521 480.786 101.219 480.891 100.094C481.016 98.9688 481.234 97.875 481.547 96.8125C481.88 95.7292 482.328 94.8438 482.891 94.1562C483.453 93.4688 484.203 92.9167 485.141 92.5C486.078 92.0833 487.182 91.875 488.453 91.875ZM15.0938 84C16.9479 84 18.3958 84.5312 19.4375 85.5938C20.4792 86.6562 21 88.125 21 90C21 92.2708 20.25 93.9479 18.75 95.0312L21.7812 104H17.5625L15.1875 96H12.5V104H8.5V84H15.0938ZM112.547 88.125H124.547V91.875H112.547V100H108.547V91.875H96.5469V88.125H108.547V80H112.547V88.125ZM909.625 71.5C913.375 71.5 916.26 72.4167 918.281 74.25C920.302 76.0833 921.312 78.625 921.312 81.875C921.312 83.1458 921.156 84.3438 920.844 85.4688C920.552 86.5729 920.083 87.6354 919.438 88.6562C918.812 89.6771 918.177 90.5833 917.531 91.375C916.885 92.1458 916.052 93.0521 915.031 94.0938C914.385 94.7604 913.896 95.4792 913.562 96.25C913.229 97 913.042 97.6146 913 98.0938C912.958 98.5521 912.938 99.1875 912.938 100H908.938C908.938 98.3542 909.146 96.8646 909.562 95.5312C909.979 94.1771 910.802 92.8646 912.031 91.5938C912.99 90.6146 913.708 89.8438 914.188 89.2812C914.688 88.7188 915.219 88.0208 915.781 87.1875C916.344 86.3542 916.74 85.5208 916.969 84.6875C917.198 83.8333 917.312 82.8958 917.312 81.875C917.312 79.6875 916.698 78.0417 915.469 76.9375C914.24 75.8125 912.292 75.25 909.625 75.25C907.688 75.25 905.021 75.6354 901.625 76.4062V72.6562C904.917 71.8854 907.583 71.5 909.625 71.5ZM974.594 71.5C977.823 71.5 980.417 72.4375 982.375 74.3125C984.354 76.1667 985.344 78.6875 985.344 81.875C985.344 83.5208 985.052 85.0625 984.469 86.5C983.906 87.9375 983.208 89.1771 982.375 90.2188C981.562 91.2604 980.75 92.2708 979.938 93.25C979.125 94.2292 978.427 95.2917 977.844 96.4375C977.26 97.5833 976.969 98.7708 976.969 100H972.969L972.656 80H977.281L977.125 90.5312C977.792 89.7396 978.219 89.2292 978.406 89C978.594 88.7708 978.948 88.3021 979.469 87.5938C979.99 86.8646 980.333 86.2812 980.5 85.8438C980.688 85.3854 980.875 84.8021 981.062 84.0938C981.25 83.3646 981.344 82.625 981.344 81.875C981.344 79.7708 980.75 78.1458 979.562 77C978.375 75.8333 976.719 75.25 974.594 75.25C972.969 75.25 969.76 75.8438 964.969 77.0312V73.1562C969.385 72.0521 972.594 71.5 974.594 71.5ZM1181.06 99.875H1153.06V96.125H1181.06V99.875ZM1053.91 88.5938C1053.59 89.5938 1053.2 90.5312 1052.72 91.4062C1052.24 92.2812 1051.65 93.1146 1050.94 93.9062C1050.23 94.6979 1049.36 95.3333 1048.34 95.8125C1047.32 96.2708 1046.2 96.5 1044.97 96.5C1043.93 96.5 1042.92 96.3229 1041.94 95.9688C1040.98 95.5938 1040.14 95.1562 1039.41 94.6562C1038.68 94.1354 1037.97 93.625 1037.28 93.125C1036.61 92.6042 1035.92 92.1667 1035.19 91.8125C1034.46 91.4375 1033.74 91.25 1033.03 91.25C1030.68 91.25 1028.94 93.0417 1027.81 96.625L1024.06 95.375C1024.38 94.375 1024.77 93.4375 1025.25 92.5625C1025.73 91.6875 1026.32 90.8542 1027.03 90.0625C1027.74 89.2708 1028.6 88.6458 1029.62 88.1875C1030.67 87.7292 1031.8 87.5 1033.03 87.5C1034.07 87.5 1035.07 87.6875 1036.03 88.0625C1037.01 88.4167 1037.86 88.8542 1038.59 89.375C1039.32 89.875 1040.02 90.3854 1040.69 90.9062C1041.38 91.4062 1042.08 91.8438 1042.81 92.2188C1043.54 92.5729 1044.26 92.75 1044.97 92.75C1047.32 92.75 1049.06 90.9583 1050.19 87.375L1053.91 88.5938ZM12.5 92.25H15.0938C15.8438 92.25 16.3438 92.0833 16.5938 91.75C16.8646 91.3958 17 90.8125 17 90C17 89.1875 16.8646 88.6146 16.5938 88.2812C16.3438 87.9271 15.8438 87.75 15.0938 87.75H12.5V92.25ZM860.922 91.875H832.922V88.125H860.922V91.875ZM336.656 91.5H328.656V84H336.656V91.5ZM368.672 91.5H360.672V84H368.672V91.5ZM558.766 79.5C560.099 79.5 561.182 79.9167 562.016 80.75C562.849 81.5833 563.266 82.6667 563.266 84C563.266 85.3333 562.849 86.4167 562.016 87.25C561.182 88.0833 560.099 88.5 558.766 88.5C557.432 88.5 556.349 88.0833 555.516 87.25C554.682 86.4167 554.266 85.3333 554.266 84C554.266 82.6667 554.682 81.5833 555.516 80.75C556.349 79.9167 557.432 79.5 558.766 79.5ZM241.109 72C245.505 76.2708 248.578 81.6042 250.328 88H246.109C244.609 82.9167 242.37 78.7188 239.391 75.4062H237.828C234.849 78.7188 232.609 82.9167 231.109 88H226.891C228.641 81.6042 231.714 76.2708 236.109 72H241.109ZM1181.06 87.875H1153.06V84.125H1181.06V87.875ZM305.359 84H301.047L295.859 72H300.172L305.359 84ZM78.5312 68.375C80.6146 68.375 82.3229 69.0625 83.6562 70.4375C84.9896 71.7917 85.6562 73.4792 85.6562 75.5C85.6562 77.5208 84.9896 79.2188 83.6562 80.5938C82.3229 81.9479 80.6146 82.625 78.5312 82.625C76.4479 82.625 74.7396 81.9479 73.4062 80.5938C72.0729 79.2188 71.4062 77.5208 71.4062 75.5C71.4062 73.4792 72.0729 71.7917 73.4062 70.4375C74.7396 69.0625 76.4479 68.375 78.5312 68.375ZM78.5312 71.5C77.4062 71.5 76.5 71.8542 75.8125 72.5625C75.125 73.25 74.7812 74.2292 74.7812 75.5C74.7812 76.7708 75.125 77.7604 75.8125 78.4688C76.5 79.1562 77.4062 79.5 78.5312 79.5C79.6562 79.5 80.5625 79.1562 81.25 78.4688C81.9375 77.7604 82.2812 76.7708 82.2812 75.5C82.2812 74.2292 81.9375 73.25 81.25 72.5625C80.5625 71.8542 79.6562 71.5 78.5312 71.5ZM56.5156 75.875H36.5156V72.125H56.5156V75.875ZM240.609 55.2812C240.609 56.1354 240.589 56.8125 240.547 57.3125C240.526 57.8125 240.38 58.4688 240.109 59.2812C239.859 60.1146 239.484 60.8646 238.984 61.5312C237.526 63.5104 235.401 64.5 232.609 64.5C231.609 64.5 230.276 64.3229 228.609 63.9688V60.125C230.422 60.5417 231.755 60.75 232.609 60.75C233.984 60.75 235.026 60.2812 235.734 59.3438C236.005 58.9896 236.203 58.5625 236.328 58.0625C236.474 57.5833 236.557 57.1667 236.578 56.8125C236.599 56.4792 236.609 55.9688 236.609 55.2812V52H240.609V55.2812ZM136.562 40.5312C136.562 41.6771 136.573 42.5312 136.594 43.0938C136.635 43.6562 136.76 44.2917 136.969 45C137.198 45.6875 137.531 46.2917 137.969 46.8125C139.094 48.1042 140.625 48.75 142.562 48.75C144.5 48.75 146.031 48.1042 147.156 46.8125C147.594 46.2917 147.917 45.6875 148.125 45C148.354 44.2917 148.479 43.6562 148.5 43.0938C148.542 42.5312 148.562 41.6771 148.562 40.5312V20H152.562V52H148.562V48.5H148.25C147.562 49.7083 146.708 50.6771 145.688 51.4062C144.667 52.1354 143.625 52.5 142.562 52.5C141.5 52.5 140.458 52.1354 139.438 51.4062C138.417 50.6771 137.562 49.7083 136.875 48.5H136.562V64H132.562V20H136.562V40.5312ZM412.688 60H380.688V0H412.688V60ZM701.766 20H696.828V20.0625C696.828 22.0625 696.724 23.5938 696.516 24.6562C696.286 25.9271 695.88 27.125 695.297 28.25C694.734 29.375 694.026 30.3958 693.172 31.3125C692.318 32.2083 691.505 32.9688 690.734 33.5938C689.984 34.2188 689.078 34.8958 688.016 35.625C686.974 36.3333 686.161 36.9167 685.578 37.375C684.995 37.8333 684.349 38.4167 683.641 39.125C682.932 39.8333 682.37 40.6042 681.953 41.4375C681.557 42.2708 681.266 43.1979 681.078 44.2188C680.911 45.1562 680.828 46.4688 680.828 48.1562V60H672.828V48.1562C672.828 45.9479 672.964 44.2604 673.234 43.0938C674.026 39.5938 676.13 36.7708 679.547 34.625C680.359 34.125 681.38 33.5938 682.609 33.0312C683.859 32.4688 684.943 31.9688 685.859 31.5312C686.797 31.0938 687.745 30.5625 688.703 29.9375C689.682 29.2917 690.495 28.5104 691.141 27.5938C691.786 26.6562 692.245 25.5729 692.516 24.3438C692.724 23.3854 692.828 21.9583 692.828 20.0625V20H687.891L694.828 7.375L701.766 20ZM888.922 30L860.922 60V0L888.922 30ZM920.938 30L897.906 60H892.969L915.719 30L892.969 0H897.906L920.938 30ZM956.953 60L928.953 30L956.953 0V60ZM966.219 30L988.969 60H984.031L961 30L984.031 0H988.969L966.219 30ZM475.781 43.3125C476.281 43.3125 476.729 43.5 477.125 43.875C477.521 44.2292 477.719 44.6875 477.719 45.25C477.719 45.6458 477.604 46.0104 477.375 46.3438C477.146 46.6771 476.833 46.9167 476.438 47.0625L468.062 50L476.438 52.9375C476.833 53.0833 477.146 53.3229 477.375 53.6562C477.604 53.9896 477.719 54.3542 477.719 54.75C477.719 55.3125 477.521 55.7708 477.125 56.125C476.729 56.5 476.281 56.6875 475.781 56.6875C475.635 56.6875 475.417 56.6458 475.125 56.5625L462.719 52.0625L450.312 56.5625C450.021 56.6458 449.802 56.6875 449.656 56.6875C449.156 56.6875 448.708 56.5 448.312 56.125C447.917 55.7708 447.719 55.3125 447.719 54.75C447.719 54.3542 447.833 53.9896 448.062 53.6562C448.292 53.3229 448.604 53.0833 449 52.9375L457.375 50L449 47.0625C448.604 46.9167 448.292 46.6771 448.062 46.3438C447.833 46.0104 447.719 45.6458 447.719 45.25C447.719 44.6875 447.917 44.2292 448.312 43.875C448.708 43.5 449.156 43.3125 449.656 43.3125C449.802 43.3125 450.021 43.3542 450.312 43.4375L462.719 47.9375L475.125 43.4375C475.417 43.3542 475.635 43.3125 475.781 43.3125ZM760.547 46.9375H760.859V32H764.859V56H760.859L753.172 41.0625H752.859V56H748.859V32H752.828L760.547 46.9375ZM568.766 17.3438L572.109 16.2188L573.422 19.7812L568.766 21.3125V33.5938L572.109 32.4688L573.422 36.0312L568.766 37.5625V50H564.766V38.9062L556.766 41.5625V54H552.766V42.9062L549.422 44.0312L548.109 40.4688L552.766 38.9375V26.6562L549.422 27.7812L548.109 24.2188L552.766 22.6875V10H556.766V21.3438L564.766 18.6875V6H568.766V17.3438ZM488.734 22.5H489.047C490.755 20.5 493.026 19.5 495.859 19.5C498.88 19.5 501.276 20.5625 503.047 22.6875C504.839 24.7917 505.734 27.4792 505.734 30.75C505.734 33.1667 505.359 35.4792 504.609 37.6875C503.88 39.8958 502.859 41.8646 501.547 43.5938C500.234 45.3229 498.703 46.8646 496.953 48.2188C495.203 49.5521 493.286 50.625 491.203 51.4375C489.12 52.25 486.964 52.7812 484.734 53.0312V4H488.734V22.5ZM184.578 52H180.578V11.75H176.578V52H172.578V31.5312C170.057 30.8854 168.005 29.5417 166.422 27.5C164.859 25.4375 164.078 22.9375 164.078 20C164.078 17.0208 164.891 14.5 166.516 12.4375C168.141 10.3542 170.234 9.01042 172.797 8.40625C173.943 8.13542 175.859 8 178.547 8H184.578V52ZM524.75 21.375L536.75 17.3438V52H532.75V38.875L520.75 42.875V8H524.75V21.375ZM816.891 8.25C819.411 8.25 821.37 9.04167 822.766 10.625C824.182 12.2083 824.891 14.3333 824.891 17V28C826.016 28 826.964 28.4375 827.734 29.3125C828.505 30.1667 828.891 31.0625 828.891 32V48C828.891 49.125 828.453 50.0729 827.578 50.8438C826.724 51.6146 825.828 52 824.891 52H804.891C803.766 52 802.818 51.5729 802.047 50.7188C801.276 49.8438 800.891 48.9375 800.891 48V32C800.891 30.875 801.318 29.9271 802.172 29.1562C803.047 28.3854 803.953 28 804.891 28V17C804.891 14.3333 805.589 12.2083 806.984 10.625C808.401 9.04167 810.37 8.25 812.891 8.25H816.891ZM336.656 32.9375V35.0625L326.625 48.4688L323.375 46.3438L332.75 34.1562V33.8438L323.375 21.6562L326.625 19.5312L336.656 32.9375ZM348.656 32.9375V35.0625L338.625 48.4688L335.375 46.3438L344.75 34.1562V33.8438L335.375 21.6562L338.625 19.5312L348.656 32.9375ZM1039 11.5312C1042.25 11.5312 1045 12.3646 1047.25 14.0312C1049.52 15.6771 1051.15 17.8542 1052.12 20.5625C1053.04 23.0625 1053.5 26.2083 1053.5 30C1053.5 33.7917 1053.04 36.9375 1052.12 39.4375C1051.15 42.1458 1049.52 44.3333 1047.25 46C1045 47.6458 1042.25 48.4688 1039 48.4688C1035.75 48.4688 1032.99 47.6458 1030.72 46C1028.47 44.3333 1026.85 42.1458 1025.88 39.4375C1024.96 36.9375 1024.5 33.7917 1024.5 30C1024.5 26.2083 1024.96 23.0625 1025.88 20.5625C1026.85 17.8542 1028.47 15.6771 1030.72 14.0312C1032.99 12.3646 1035.75 11.5312 1039 11.5312ZM1102.31 21.6562L1092.94 33.8438V34.1562L1102.31 46.3438L1099.06 48.4688L1089.03 35.0625V32.9375L1099.06 19.5312L1102.31 21.6562ZM1114.31 21.6562L1104.94 33.8438V34.1562L1114.31 46.3438L1111.06 48.4688L1101.03 35.0625V32.9375L1111.06 19.5312L1114.31 21.6562ZM495.234 23.25C493.089 23.25 491.464 23.8229 490.359 24.9688C489.276 26.0938 488.734 27.7083 488.734 29.8125V48.2812C490.443 47.7188 492.057 46.9062 493.578 45.8438C495.12 44.7604 496.495 43.4896 497.703 42.0312C498.932 40.5729 499.911 38.8646 500.641 36.9062C501.37 34.9479 501.734 32.8958 501.734 30.75C501.734 28.5208 501.172 26.7188 500.047 25.3438C498.922 23.9479 497.318 23.25 495.234 23.25ZM640.922 16.1875C640.505 19.8542 639.568 23.4062 638.109 26.8438C636.672 30.2604 634.776 33.375 632.422 36.1875C627.714 41.8542 621.818 45.8125 614.734 48.0625L613.484 44.5C619.818 42.4792 625.089 38.9375 629.297 33.875C633.63 28.625 636.172 22.6042 636.922 15.8125L640.922 16.1875ZM814.891 34C813.786 34 812.839 34.3958 812.047 35.1875C811.276 35.9583 810.891 36.8958 810.891 38C810.891 38.75 811.078 39.4375 811.453 40.0625C811.828 40.6667 812.307 41.0938 812.891 41.3438V48H816.891V41.3438C817.474 41.0938 817.953 40.6667 818.328 40.0625C818.703 39.4375 818.891 38.75 818.891 38C818.891 36.8958 818.495 35.9583 817.703 35.1875C816.932 34.3958 815.995 34 814.891 34ZM1039 14.0938C1036.35 14.0938 1034.15 14.7604 1032.38 16.0938C1030.6 17.4062 1029.31 19.1667 1028.5 21.375C1027.67 23.6667 1027.25 26.5417 1027.25 30C1027.25 33.4583 1027.67 36.3333 1028.5 38.625C1029.31 40.8542 1030.59 42.625 1032.34 43.9375C1034.11 45.25 1036.33 45.9062 1039 45.9062C1041.65 45.9062 1043.85 45.25 1045.62 43.9375C1047.4 42.6042 1048.69 40.8333 1049.5 38.625C1050.33 36.3333 1050.75 33.4583 1050.75 30C1050.75 26.5417 1050.33 23.6667 1049.5 21.375C1048.69 19.1458 1047.4 17.375 1045.62 16.0625C1043.88 14.75 1041.67 14.0938 1039 14.0938ZM1039.62 19.6875C1041.04 19.6875 1042.62 19.8854 1044.38 20.2812V24.0312C1042.67 23.6354 1041.06 23.4375 1039.56 23.4375C1038.67 23.4375 1037.98 23.5312 1037.5 23.7188C1037.04 23.9062 1036.7 24.2604 1036.47 24.7812C1036.16 25.4896 1036 27.1875 1036 29.875C1036 31.7917 1036.04 33.1875 1036.12 34.0625C1036.23 34.9167 1036.46 35.5312 1036.81 35.9062C1037 36.1146 1037.25 36.2708 1037.56 36.375C1037.88 36.4792 1038.16 36.5417 1038.41 36.5625H1039.59C1041.07 36.5625 1042.67 36.3958 1044.38 36.0625V39.8125C1042.62 40.1458 1041.03 40.3125 1039.59 40.3125C1036.95 40.3125 1035.02 39.6667 1033.81 38.375C1033.25 37.7708 1032.82 36.9688 1032.53 35.9688C1032.26 34.9688 1032.1 34.0833 1032.06 33.3125C1032.02 32.5417 1032 31.3958 1032 29.875C1032 26.8542 1032.24 24.7292 1032.72 23.5C1033.72 20.9583 1036.02 19.6875 1039.62 19.6875ZM462.719 7.1875C465.385 7.1875 467.854 7.85417 470.125 9.1875C472.417 10.5 474.219 12.3021 475.531 14.5938C476.865 16.8646 477.531 19.3333 477.531 22C477.531 24.0833 477.115 26.0729 476.281 27.9688C475.448 29.8438 474.26 31.4896 472.719 32.9062V38C472.719 38.5417 472.521 39.0104 472.125 39.4062C471.729 39.8021 471.26 40 470.719 40H454.719C454.177 40 453.708 39.8021 453.312 39.4062C452.917 39.0104 452.719 38.5417 452.719 38V32.9062C451.177 31.4896 449.99 29.8438 449.156 27.9688C448.323 26.0729 447.906 24.0833 447.906 22C447.906 19.3333 448.562 16.8646 449.875 14.5938C451.208 12.3021 453.01 10.5 455.281 9.1875C457.573 7.85417 460.052 7.1875 462.719 7.1875ZM1149.05 40H1145.05V31.875H1121.05V28.125H1149.05V40ZM524.75 25.3125V37.625L532.75 34.9375V22.625L524.75 25.3125ZM556.766 25.3125V37.5938L564.766 34.9375V22.6562L556.766 25.3125ZM462.719 11.1875C459.74 11.1875 457.188 12.25 455.062 14.375C452.958 16.4792 451.906 19.0208 451.906 22C451.906 23.5625 452.229 25.0625 452.875 26.5C453.542 27.9167 454.458 29.125 455.625 30.125C456.354 30.75 456.719 31.5833 456.719 32.625V36H460.719V33.5938C460.719 33.0521 460.917 32.5833 461.312 32.1875C461.708 31.7917 462.177 31.5938 462.719 31.5938C463.26 31.5938 463.729 31.7917 464.125 32.1875C464.521 32.5833 464.719 33.0521 464.719 33.5938V36H468.719V32.625C468.719 31.5833 469.083 30.75 469.812 30.125C470.979 29.125 471.885 27.9167 472.531 26.5C473.198 25.0833 473.531 23.5833 473.531 22C473.531 19.0208 472.469 16.4792 470.344 14.375C468.24 12.25 465.698 11.1875 462.719 11.1875ZM208.594 35.5H200.594V28H208.594V35.5ZM680.828 27.375C677.37 29.1667 674.703 30.8854 672.828 32.5312V0H680.828V27.375ZM613.703 27.25L610.016 28.75L604.391 16.75L608.078 15.25L613.703 27.25ZM76.0312 3.5C78.6354 3.5 80.7188 4.15625 82.2812 5.46875C83.8438 6.78125 84.625 8.52083 84.625 10.6875C84.625 12.9167 83.6146 14.6042 81.5938 15.75V16.0625C83.8021 17.2083 84.9062 18.9479 84.9062 21.2812C84.9062 23.5104 84.0729 25.2708 82.4062 26.5625C80.7604 27.8542 78.6562 28.5 76.0938 28.5C73.9479 28.5 71.4271 28.3438 68.5312 28.0312V24.2812C71.7812 24.5938 74.3021 24.75 76.0938 24.75C77.5938 24.75 78.7708 24.4583 79.625 23.875C80.4792 23.2917 80.9062 22.4271 80.9062 21.2812C80.9062 20.4271 80.6146 19.7188 80.0312 19.1562C79.4479 18.5729 78.7188 18.1979 77.8438 18.0312C77.3021 17.9271 76.3438 17.875 74.9688 17.875H72.5312V14.125H74.9688C76.1771 14.125 77.0938 14.0625 77.7188 13.9375C78.5729 13.75 79.2708 13.3854 79.8125 12.8438C80.3542 12.2812 80.625 11.5625 80.625 10.6875C80.625 9.5625 80.2292 8.70833 79.4375 8.125C78.6458 7.54167 77.5104 7.25 76.0312 7.25C74.6354 7.25 72.2396 7.42708 68.8438 7.78125V4.03125C71.5938 3.67708 73.9896 3.5 76.0312 3.5ZM300.641 3.5C301.828 3.5 302.891 3.6875 303.828 4.0625C304.766 4.41667 305.526 4.85417 306.109 5.375C306.693 5.89583 307.193 6.58333 307.609 7.4375C308.047 8.27083 308.37 9.03125 308.578 9.71875C308.786 10.3854 308.943 11.1979 309.047 12.1562C309.172 13.0937 309.234 13.8021 309.234 14.2812C309.255 14.7396 309.266 15.3125 309.266 16C309.266 16.6875 309.255 17.2708 309.234 17.75C309.234 18.2083 309.172 18.9167 309.047 19.875C308.943 20.8125 308.786 21.625 308.578 22.3125C308.37 22.9792 308.047 23.7396 307.609 24.5938C307.193 25.4271 306.693 26.1042 306.109 26.625C305.526 27.1458 304.766 27.5938 303.828 27.9688C302.891 28.3229 301.828 28.5 300.641 28.5C299.453 28.5 298.391 28.3229 297.453 27.9688C296.516 27.5938 295.755 27.1458 295.172 26.625C294.589 26.1042 294.078 25.4271 293.641 24.5938C293.224 23.7396 292.911 22.9792 292.703 22.3125C292.495 21.625 292.328 20.8125 292.203 19.875C292.099 18.9167 292.036 18.2083 292.016 17.75V14.2812C292.036 13.8021 292.099 13.0937 292.203 12.1562C292.328 11.1979 292.495 10.3854 292.703 9.71875C292.911 9.03125 293.224 8.27083 293.641 7.4375C294.078 6.58333 294.589 5.89583 295.172 5.375C295.755 4.85417 296.516 4.41667 297.453 4.0625C298.391 3.6875 299.453 3.5 300.641 3.5ZM1068.8 3.5C1073.07 3.5 1075.69 5.16667 1076.67 8.5C1076.9 9.29167 1077.02 10.3542 1077.02 11.6875V28H1073.02V25.9062H1072.7C1071.93 26.7812 1071.16 27.4375 1070.39 27.875C1069.62 28.2917 1068.69 28.5 1067.61 28.5C1065.65 28.5 1063.99 27.6979 1062.64 26.0938C1061.31 24.4896 1060.64 22.5833 1060.64 20.375C1060.64 18.625 1061.1 17.0625 1062.02 15.6875C1062.93 14.3125 1064.11 13.3542 1065.55 12.8125C1066.55 12.4375 1067.83 12.25 1069.39 12.25H1073.02C1073.02 10.8542 1072.95 9.92708 1072.83 9.46875C1072.6 8.67708 1072.17 8.11458 1071.55 7.78125C1070.94 7.42708 1070.03 7.25 1068.8 7.25C1068.09 7.25 1065.76 7.38542 1061.8 7.65625V3.875C1065.51 3.625 1067.84 3.5 1068.8 3.5ZM44.1094 3.5C46.9219 3.5 49.0885 4.20833 50.6094 5.625C52.1302 7.02083 52.8906 8.76042 52.8906 10.8438C52.8906 11.9479 52.6927 12.9792 52.2969 13.9375C51.901 14.875 51.3385 15.6979 50.6094 16.4062C49.8802 17.0938 49.1719 17.6771 48.4844 18.1562C47.7969 18.6146 46.9948 19.0729 46.0781 19.5312C45.4323 19.8646 45.026 20.0729 44.8594 20.1562C44.7135 20.2188 44.3698 20.3958 43.8281 20.6875C43.2865 20.9792 42.9115 21.2188 42.7031 21.4062C42.5156 21.5729 42.2448 21.8021 41.8906 22.0938C41.5573 22.3854 41.2969 22.6771 41.1094 22.9688C40.9219 23.2604 40.7656 23.5833 40.6406 23.9375V24.25H52.5156V28H36.3281V26.125C36.3281 21.9792 38.8281 18.7188 43.8281 16.3438C44.5781 15.9896 45.1823 15.6771 45.6406 15.4062C46.099 15.1354 46.6094 14.7812 47.1719 14.3438C47.7552 13.8854 48.1823 13.3646 48.4531 12.7812C48.7448 12.1979 48.8906 11.5521 48.8906 10.8438C48.8906 10.4688 48.8385 10.1146 48.7344 9.78125C48.6302 9.42708 48.4323 9.04167 48.1406 8.625C47.849 8.20833 47.3594 7.875 46.6719 7.625C45.9844 7.375 45.1302 7.25 44.1094 7.25C41.8594 7.25 39.3281 7.53125 36.5156 8.09375V4.34375C39.2448 3.78125 41.776 3.5 44.1094 3.5ZM272.625 28H268.625V8.9375H268.312L260.625 13.0625V8.875L269.25 4H272.625V28ZM740.859 24.25H752.859V28H736.859V4H740.859V24.25ZM812.891 12C810.224 12 808.891 13.6667 808.891 17V28H820.891V17C820.891 13.6667 819.557 12 816.891 12H812.891ZM457.906 20.8125C458.802 20.8125 459.562 21.125 460.188 21.75C460.812 22.3542 461.125 23.1042 461.125 24C461.125 24.8958 460.812 25.6562 460.188 26.2812C459.562 26.8854 458.802 27.1875 457.906 27.1875C457.01 27.1875 456.25 26.8854 455.625 26.2812C455.021 25.6562 454.719 24.8958 454.719 24C454.719 23.1042 455.021 22.3542 455.625 21.75C456.25 21.125 457.01 20.8125 457.906 20.8125ZM467.531 20.8125C468.427 20.8125 469.177 21.125 469.781 21.75C470.406 22.3542 470.719 23.1042 470.719 24C470.719 24.8958 470.406 25.6562 469.781 26.2812C469.177 26.8854 468.427 27.1875 467.531 27.1875C466.635 27.1875 465.875 26.8854 465.25 26.2812C464.625 25.6562 464.312 24.8958 464.312 24C464.312 23.1042 464.625 22.3542 465.25 21.75C465.875 21.125 466.635 20.8125 467.531 20.8125ZM300.641 7.25C299.932 7.25 299.307 7.375 298.766 7.625C298.245 7.85417 297.818 8.19792 297.484 8.65625C297.172 9.11458 296.911 9.60417 296.703 10.125C296.495 10.625 296.339 11.25 296.234 12C296.151 12.7292 296.089 13.3854 296.047 13.9688C296.026 14.5312 296.016 15.2083 296.016 16C296.016 16.7917 296.026 17.4792 296.047 18.0625C296.089 18.625 296.151 19.2813 296.234 20.0312C296.339 20.7604 296.495 21.3854 296.703 21.9062C296.911 22.4062 297.172 22.8854 297.484 23.3438C297.818 23.8021 298.245 24.1562 298.766 24.4062C299.307 24.6354 299.932 24.75 300.641 24.75C301.349 24.75 301.964 24.6354 302.484 24.4062C303.026 24.1562 303.453 23.8021 303.766 23.3438C304.099 22.8854 304.37 22.4062 304.578 21.9062C304.786 21.3854 304.932 20.7604 305.016 20.0312C305.12 19.2813 305.182 18.625 305.203 18.0625C305.245 17.4792 305.266 16.7917 305.266 16C305.266 15.2083 305.245 14.5312 305.203 13.9688C305.182 13.3854 305.12 12.7292 305.016 12C304.932 11.25 304.786 10.625 304.578 10.125C304.37 9.60417 304.099 9.11458 303.766 8.65625C303.453 8.19792 303.026 7.85417 302.484 7.625C301.964 7.375 301.349 7.25 300.641 7.25ZM1069.39 16C1068.29 16 1067.49 16.0938 1067.02 16.2812C1066.31 16.5521 1065.73 17.0625 1065.3 17.8125C1064.86 18.5417 1064.64 19.3958 1064.64 20.375C1064.64 21.5833 1064.97 22.6146 1065.64 23.4688C1066.31 24.3229 1067.19 24.75 1068.3 24.75C1069.21 24.75 1070.02 24.5312 1070.7 24.0938C1071.39 23.6354 1071.92 23.0417 1072.3 22.3125C1072.78 21.3542 1073.02 19.7292 1073.02 17.4375V16H1069.39ZM625.953 23.75L622.016 24.25L620.391 12.25L624.328 11.75L625.953 23.75ZM112.141 20H107.828L113.016 8H117.328L112.141 20ZM999.984 9.5C1001.03 9.5 1001.87 9.82292 1002.52 10.4688C1003.16 11.1146 1003.48 11.9583 1003.48 13C1003.48 14.0417 1003.16 14.8854 1002.52 15.5312C1001.87 16.1771 1001.03 16.5 999.984 16.5C998.943 16.5 998.099 16.1771 997.453 15.5312C996.807 14.8854 996.484 14.0417 996.484 13C996.484 11.9583 996.807 11.1146 997.453 10.4688C998.099 9.82292 998.943 9.5 999.984 9.5ZM1013.98 9.5C1015.03 9.5 1015.87 9.82292 1016.52 10.4688C1017.16 11.1146 1017.48 11.9583 1017.48 13C1017.48 14.0417 1017.16 14.8854 1016.52 15.5312C1015.87 16.1771 1015.03 16.5 1013.98 16.5C1012.94 16.5 1012.1 16.1771 1011.45 15.5312C1010.81 14.8854 1010.48 14.0417 1010.48 13C1010.48 11.9583 1010.81 11.1146 1011.45 10.4688C1012.1 9.82292 1012.94 9.5 1013.98 9.5Z" fill="white"/>
</svg>
