<svg width="460" height="460" viewBox="0 0 460 460" fill="none" xmlns="http://www.w3.org/2000/svg">
<g clip-path="url(#clip0_162_1942)">
<rect width="460" height="460" rx="230" fill="white"/>
<path d="M281.001 0C280.261 7.58 281.461 15.55 290.461 16.09C293.021 16.24 304.511 14.34 307.041 13.55C310.481 12.48 316.881 6.74 320.531 6.05C327.211 4.78 333.731 10.87 335.991 0H459.991V57C453.571 58.57 447.011 57.51 440.571 58.08C438.481 58.26 436.601 59.63 434.421 59.94C431.551 60.36 428.921 56.57 428.901 63.5C428.871 75.96 450.441 80 459.991 78V434L446.001 419.49C438.691 416.13 433.891 406.51 426.981 403.5C420.821 400.82 412.571 399.75 406.021 397.46C382.981 389.39 350.861 379.18 329.601 368.88C321.261 364.84 313.071 356.81 302.981 357.01C302.301 360.4 306.341 358.45 308.941 359.54C309.441 359.75 316.751 365.07 316.971 365.52C317.681 366.95 316.561 367.52 314.971 366.51C311.461 364.29 307.931 362.28 304.461 360.01C302.491 359.76 303.111 360.06 302.951 361.51C302.641 364.21 304.641 371.08 305.941 373.59C307.451 376.49 310.001 376.74 311.061 378.42C312.371 380.48 311.521 382.61 312.201 383.79C312.601 384.49 315.121 384.5 315.801 386.69C316.541 389.09 315.691 392.44 315.991 395.01L319.971 392.01L318.991 403.01C321.401 402.46 320.441 399.78 321.281 398.29C321.581 397.75 323.001 397.74 323.681 396.41C324.741 394.34 323.171 387.66 327.981 388.02C330.221 390.57 319.811 415.19 314.991 417.53C316.371 422.66 320.601 412.37 321.001 412.02C323.031 410.23 323.161 413.44 322.581 415.12C321.561 418.08 315.901 419.1 315.991 423.01C328.801 419.26 329.701 406.58 333.521 396.1C334.031 394.69 333.531 393.62 335.981 394.02C337.561 395.87 331.061 412.97 329.391 415.92C326.801 420.51 321.281 424.87 319.371 429.26C318.941 430.25 318.851 430.98 318.981 432.01C323.081 429.36 326.061 432.71 328.271 432.77C330.741 432.83 333.181 430.51 334.641 430.33C338.961 429.78 336.521 430.87 340.761 429.09C342.051 428.55 349.371 428.59 349.971 429.03C352.311 430.77 347.361 430.81 347.981 432.01C348.951 432.2 351.661 431.7 351.971 432.03C352.181 432.24 353.041 437.67 352.871 437.91C352.361 438.67 347.401 440.43 345.981 440.03L347.981 441.03C342.521 448.02 354.391 441.88 354.981 448.01C350.991 445.39 346.641 449.53 344.451 449.66C344.031 449.69 338.391 446.22 339.991 449.51C341.671 452.96 345.481 450.58 347.291 450.95C348.321 451.16 348.221 453.4 349.611 453.89C352.761 455.01 355.721 451.68 357.971 454.52C356.121 458.29 352.951 456.06 351.481 456.48C350.011 456.9 349.131 458.35 347.981 458.6C345.561 459.13 342.931 457.65 340.981 460.02H224.981C225.461 451.74 223.421 455.1 219.421 454.92C218.841 454.89 208.671 453.12 208.171 452.82C207.671 452.52 203.051 448.23 201.211 447.08C191.471 440.97 180.361 435.72 171.971 428.04C179.911 431.58 186.781 438.41 195.701 439.33C199.701 445.81 208.651 444.31 214.231 446.04C215.221 446.35 215.301 448.25 217.341 449.15C219.381 450.05 224.101 450.7 226.481 451.02C235.091 452.19 243.961 451.65 252.461 450.02C253.921 449.74 255.561 450.02 255.971 448.04C245.011 450.14 233.891 448.41 222.981 447.02C222.791 445.13 225.211 446.19 226.381 446.21C229.191 446.26 232.171 446.79 234.971 447.02C237.591 445.12 219.701 443.45 218.971 443.01C218.861 442.95 220.131 441.3 219.061 440.53C217.221 439.2 212.851 439.04 210.741 438C209.701 437.49 209.621 435.97 208.951 435.56C207.041 434.43 204.301 436.24 204.981 433.02L224.521 438.97C238.761 440.29 252.481 441.82 265.301 439C265.731 438.91 266.761 435.54 269.971 437.01C269.861 435 266.731 436.62 264.951 435.54C262.891 434.29 263.821 429 258.611 430C257.901 430.14 257.891 431.63 257.241 432C255.741 432.84 252.891 433.52 251.951 434.54C250.841 435.75 251.401 437.68 250.371 438.03C248.881 438.54 237.731 438.39 235.581 437.91C230.551 436.76 229.511 433.56 228.331 433.19C225.001 432.13 222.481 435.09 222.071 429.45C221.511 421.74 219.311 414.94 218.601 407.15C218.171 402.43 218.141 396.11 220.251 391.82C224.231 383.71 232.141 393.41 237.961 391.04C239.391 392.51 233.361 397.63 237.481 397.05C239.081 396.83 248.961 390.22 248.951 389.53C248.271 388.44 245.951 387.61 246.461 386.06C248.121 381.02 251.601 385.39 252.761 381.32C252.981 380.55 254.101 373.08 254.041 372.64C253.941 371.85 251.281 372.43 252.001 370.58L253.971 368.04L249.951 367.52C251.651 363.74 250.621 355.82 252.871 352.63C253.581 351.62 255.321 352.56 255.991 351.37C256.971 349.64 256.451 346.89 255.961 345.04C257.761 344.59 264.081 346.92 264.941 346.02C265.231 345.72 264.351 342.92 265.941 341.51C266.991 340.58 278.331 337.96 280.781 336.86C280.861 330.83 283.071 332.21 284.691 330.77C288.251 327.6 295.701 311.67 298.941 306.52C300.591 303.9 302.621 301.52 304.461 299.04L303.961 312.04C304.821 311.91 306.391 312.3 306.881 311.99C308.861 310.71 305.961 293.18 306.941 290.04C306.651 289.65 299.911 295.21 298.881 295.55C297.501 296 296.041 294.9 295.951 295.02C295.501 295.64 296.921 298.35 294.961 298.03C292.811 295.23 294.431 286.36 288.641 288.01C287.501 288.34 287.341 290.93 286.011 291.55C285.071 291.98 283.251 290.7 282.951 291.05C282.611 291.44 283.881 293.28 283.661 294.38C283.421 295.6 281.671 296.49 281.891 298.53C281.981 299.31 284.611 298.19 283.541 301.12C281.871 305.69 279.221 302.88 278.971 303.05C278.791 303.18 278.381 306.21 277.861 307.27C276.021 310.98 274.401 311.48 271.931 314.52C270.391 316.42 269.851 320.5 269.451 321.04C267.861 323.19 267.011 319.25 264.941 320.05L265.931 326.04C262.981 326.81 263.921 323.45 261.941 322.49C261.241 322.15 247.871 323.14 251.901 317.51C253.251 315.62 255.671 314.8 256.871 313.48C258.701 311.48 260.201 306.86 263.891 305.61C267.021 304.55 268.671 309.12 270.661 301.28C272.331 294.71 270.081 289.49 279.941 290.04C278.001 286.11 281.021 287.07 281.901 285.26C283.681 281.59 280.791 275.95 284.941 272.52C284.761 271.58 282.641 272.5 282.941 271.54C283.861 268.51 287.021 272.61 289.281 271.95C292.731 270.93 292.831 259.53 287.421 260.49C286.261 260.7 285.281 262.08 283.941 262.55C282.991 262.88 281.681 262.29 280.911 262.65C278.531 263.76 276.691 270.34 273.911 268.57C270.191 266.2 274.551 257.67 275.411 254.02C279.811 250.5 279.961 255.34 281.551 255.89C282.601 256.25 289.441 256.27 289.831 255.93C290.131 255.67 290.181 252.92 291.021 251.65C291.861 250.38 293.801 249.96 294.361 249.07C294.871 248.27 293.651 245.68 295.401 244.04C296.901 242.64 301.631 242.25 303.231 241.06C304.591 240.05 303.231 237.07 305.411 238.05C306.991 238.76 306.571 239.76 306.521 241.03C306.341 245.15 306.461 250.94 306.011 254.6C305.771 256.54 304.021 256.13 303.911 256.53C302.821 260.49 308.021 258.92 310.911 260.58C313.141 261.86 312.061 264.79 314.931 264.03C313.511 259.4 314.731 253.03 320.931 254.04C320.841 255.55 321.361 257.88 320.491 259.11C319.771 260.14 314.131 259.39 317.841 264.44C318.691 265.6 321.921 264.27 320.921 266.51C320.041 268.48 316.701 268.05 314.931 268.03C314.651 270.71 315.071 270.04 317.191 269.8C332.271 268.06 336.541 236.94 332.921 225.03L330.921 236.02L327.761 228.7L324.941 226.03C321.421 234 330.291 239.88 321.871 246.47C321.031 247.13 316.491 249.65 315.941 249.03C314.591 244.45 318.091 240.58 317.991 236.58C317.791 228.47 312.041 226.84 318.021 215.85C318.601 214.79 325.861 208.11 326.431 208.1C329.511 208.08 330.101 217.01 331.431 217.02C333.891 217.03 333.911 205.52 329.501 202.97C326.881 201.45 322.841 202.86 322.061 200.41C321.521 191.7 320.031 183.11 318.921 174.47C317.571 163.96 315.761 153.17 314.391 142.89C313.581 136.82 302.391 119.03 299.041 113.47C295.691 107.91 297.681 103.78 287.931 102.05C287.581 103.96 289.731 105.65 287.961 107.53C284.771 110.91 284.231 107.87 283.521 107.44C282.691 106.93 281.331 107.17 281.111 106.94C280.631 106.44 280.661 102.12 281.141 101.27C281.561 100.53 287.661 98.41 285.431 96.07L280.931 99.06L279.931 88.06C281.691 87.55 280.401 90.44 281.411 90.05C282.621 89.59 283.131 88.44 282.441 87.05C281.751 85.66 277.171 79.23 275.901 77.57C272.681 73.34 266.221 65.26 262.851 61.62C261.971 60.67 253.881 54.29 253.241 54.21C251.791 54.02 247.851 58.56 245.081 53.4L246.911 0.06H280.911L281.001 0ZM334.791 53.29C320.941 53.39 304.441 53.29 291.431 55.92C289.351 56.34 279.971 57.74 278.941 58.43C277.271 59.54 277.631 64.56 279.471 64.83C281.391 65.12 286.421 62.13 291.021 64.48C292.981 65.49 297.311 76.57 300.471 79.02C306.011 83.31 318.571 81.82 325.491 82C333.781 82.21 343.211 83.05 351.501 83.05C355.021 83.05 365.491 82.54 368.481 81.97C368.941 81.88 376.051 77.34 376.461 76.95C377.951 75.52 380.781 63.45 380.781 61.28C380.781 58.19 374.331 55.43 371.811 54.68C363.911 52.31 344.141 53.22 334.791 53.29ZM366.091 230.09C364.191 236.03 367.711 241.68 371.851 234.35C374.611 229.46 370.351 229.7 366.091 230.09ZM352.711 314.2C350.421 314.9 346.411 319.54 347.151 322.28C349.121 329.54 363.681 325.19 361.861 318.72C360.941 315.45 356.121 313.16 352.711 314.2Z" fill="#FF7B72"/>
<path d="M0.000234375 63L32.7502 73.75C47.2002 75.22 63.9202 75.1 78.4902 73.98C94.8102 72.73 100.13 62.56 117.18 70.09C130.49 75.97 133.75 73.63 147.49 75C157.31 75.98 151.12 77.37 150.41 81.93C149.55 87.45 149.84 98.35 146.74 102.78C146.47 103.16 145.54 103.07 145.01 103.02V103.99C150.05 105.15 146.62 105.92 146.47 107.46C145.86 114.14 146.14 110.09 144.24 113.23C137.6 124.16 137.62 147.57 134.7 160.25C132.55 169.61 123.1 162.81 116.37 162.13C107.38 161.22 104.24 165.9 97.4502 165.05C94.4002 164.67 90.9102 162.09 87.0402 161.45C75.8002 159.6 57.8202 165.27 45.4802 165.99C31.8302 166.79 22.8802 163.96 10.4402 162.05C7.15023 161.55 3.36023 162.27 -0.00976562 162V63H0.000234375Z" fill="#FF7B72"/>
<path d="M0 227V210C2.41 211.01 4.46 208.38 5.7 208.18C6.94 207.98 8.05 209.77 9.54 209.96C13.6 210.48 21.78 211.49 25.45 210.93C34.81 209.51 33.7 210.96 41.51 211.07C47.03 211.15 51.21 207.76 56 213.52C52.91 221.29 43.45 216.89 37.56 216.96C33.45 217.01 21.44 219.46 17.31 220.79C11.45 222.68 6.85 226.97 0.01 226.99L0 227Z" fill="#FF7B72"/>
<path d="M133.77 217.79C133.62 218.05 129.24 220.91 128.67 220.87C124.48 220.51 118.51 214.82 125.73 211.24C131.96 208.15 136.56 213.01 133.77 217.79Z" fill="#FF7B72"/>
<path d="M118.001 213.99C116.031 213.28 111.331 216.77 110.011 214.99C107.331 211.4 117.361 206.92 118.001 213.99Z" fill="#FF7B72"/>
<path d="M431 460C432 457.54 436.67 455.7 437.68 454.69C439.28 453.1 439.52 447.96 440.07 447.07C440.14 446.95 441.11 447.57 441.46 447.41C449.05 443.92 443.14 451.14 443 455C448.27 447.73 449.02 453.06 449.5 453.04C451.06 452.97 451.75 451.33 452.67 451.16C453.72 450.96 457.47 454.32 459.99 453.01V460.01H430.99L431 460Z" fill="#FF7B72"/>
<path d="M427 460H421C421.38 455.36 430.4 454.57 427 460Z" fill="#FF7B72"/>
<path d="M166.999 43C170.629 44.32 167.429 49.35 168.069 51.38C168.469 52.64 170.479 52.48 170.969 53.77C171.779 55.9 171.539 60.5 172.299 63.2C172.559 64.14 176.549 71.88 175.999 67.51C175.449 63.14 171.449 58.22 176.989 55.01C178.189 59.13 180.659 63.05 182.479 67.03C183.349 68.94 183.249 71.42 184.059 73.25C184.469 74.17 187.629 75.29 187.019 78C190.129 76.63 184.929 72.1 187.019 70.01C191.429 72.25 194.099 76.58 197.509 80L193.009 71.01C194.419 69.58 198.969 76.32 200.689 76.83C202.159 77.26 205.079 76.76 204.989 75.5C204.919 74.58 192.679 66.99 190.549 63.96C188.659 61.28 187.169 56.15 188.509 53C192.069 53.79 195.529 62.35 196.239 62.76C196.619 62.98 203.389 64.5 204.769 64.79C205.939 65.04 207.599 63.97 207.889 64.12C208.349 64.37 212.609 70.32 214.489 72.03C215.199 72.68 225.189 80.48 222.999 75.5C222.769 74.98 216.809 67.96 215.699 66.67C214.689 65.49 212.859 66.16 215.509 64.01C220.019 70.25 227.259 71.79 232.519 76.98C235.049 77.27 232.949 74.01 235.999 75.99C236.709 75.1 228.649 64.67 227.009 63.49C226.849 62.75 228.059 62.81 228.489 63C229.729 63.55 239.379 74.33 240.469 76.03C241.649 77.87 241.829 80.83 242.019 81.01C242.209 81.19 244.199 79.55 246.949 80.49C250.999 81.88 255.769 91.83 258.009 89.99C259.139 89.06 253.829 85.36 253.219 83.27C252.179 79.74 255.049 81.96 255.009 80C251.519 80.67 251.539 78.06 249.979 75.74C248.279 73.21 247.429 70.57 244.979 67.52C243.109 65.2 235.059 59.16 235.029 58.49C234.859 53.82 240.989 60.74 241.469 61.05C243.169 62.16 244.539 62.47 246.779 63.96C251.359 67.02 257.379 69.72 258.019 75.99L261.999 72.99L261.009 75.98C265.279 74.25 263.279 75.68 264.989 77.46C267.639 80.22 270.789 85.33 272.249 86.75C273.189 87.66 275.509 87.56 275.869 88.13C276.659 89.38 275.909 95.36 276.379 96.55C276.699 97.35 281.869 99.29 277.499 100.98C274.719 102.06 275.109 98.97 274.419 98.97C273.789 98.97 272.219 100.2 272.009 100C271.849 99.84 272.229 97.2 271.079 96.41C269.239 95.15 265.779 97.46 264.499 92.99L263.989 95.98C262.309 96.43 263.519 94.06 262.429 93.9C260.679 93.64 254.699 96.78 249.429 96.06C247.639 95.81 248.149 94.29 247.259 94.05C233.289 90.29 223.989 95.82 211.649 94.92C209.659 94.78 207.729 93.22 206.329 93.19C204.929 93.16 203.849 94.81 202.469 94.94C199.569 95.21 186.339 96.36 184.659 95.81C183.679 95.48 179.179 90.47 181.529 89.98C183.739 89.52 182.909 94.05 185.019 91.98C185.879 91.13 172.779 75.15 171.279 72.23C169.409 68.58 168.999 62.84 167.989 60.77C167.609 59.98 165.929 59.96 165.969 59.38C166.039 58.5 167.009 57.8 167.009 57.5V43H166.999Z" fill="#FF7B72"/>
<path d="M308.409 165.62C310.799 169.59 312.049 168.32 312.969 169.05C313.279 169.29 312.249 171.02 312.599 172.02C313.329 174.12 316.369 176.16 316.989 177.52C318.279 180.34 313.359 177.04 312.999 179.52C312.569 182.47 316.119 184.34 316.079 185.44C315.979 188.16 316.119 191.39 316.019 193.43C315.989 194.05 314.379 193.81 314.089 194.66C313.879 195.29 313.849 200.07 312.979 201.01C309.699 200.59 310.269 198.08 309.009 196.54C306.409 193.36 302.019 188.81 300.159 185.35C297.809 180.99 297.849 176.16 295.869 172.64C293.019 167.59 287.699 170.44 293.059 160.78C295.349 156.65 303.299 156.68 306.599 160.9C307.999 162.69 307.579 164.23 308.419 165.61L308.409 165.62Z" fill="#FF7B72"/>
<path d="M252.44 231.59C253.28 232.48 255.01 233.54 255.58 234.39C259.82 240.7 255.82 238.8 255.09 240.09C254.87 240.49 256.05 241.75 256.02 242.4C255.97 243.16 253.97 242.95 253.94 243.53C253.91 244.04 256.11 249.18 256.59 249.91C259.69 254.59 266.85 254.99 267.79 259.74C268.27 262.15 265.94 269.82 266.39 272.55C266.53 273.4 269.75 276.89 268.99 279.99C266.77 279.85 265.13 278.46 262.72 279.15C259.48 280.09 253.89 289.39 251.96 290.49C250.74 291.19 248.63 290.68 248.12 291.18C247.67 291.62 248.26 293.53 247.92 293.86C247.45 294.33 244.25 293.79 242.73 294.22C239.47 295.14 237.48 297.05 233.5 297.08C231.24 297.09 224.54 295.99 227.02 293.04C227.45 292.52 233.64 292.75 232.01 287C232.28 286.66 234.55 288.44 234.99 288C236.79 286.21 231.69 285.41 232 284.01C236.98 283.47 243.6 280.9 242 275C230.85 276.04 219.82 274.47 208.62 276.12C204.59 276.71 200.96 278.29 197 278.99C197.6 272.08 203.69 272.94 209 272L207.98 273.98C208.88 274.62 229.1 273.15 230.01 272.52C232.8 270.59 231.8 265.43 232.03 265.1C232.66 264.22 237.57 264.94 235.98 261.49C235.44 260.31 226.35 257.38 225.99 256.96C222.75 253.21 233.47 251.24 233.79 250.78C236.8 246.56 232.85 234.17 243.97 235.98C244.08 240.16 241.2 241.3 246.5 241.96C249.42 242.32 246.72 240.25 246.97 240C248.71 238.21 253.12 241.56 249.7 233.74C249.39 233.04 243.65 225.87 247.47 226C248.32 226.03 251.45 230.55 252.41 231.57L252.44 231.59Z" fill="#FF7B72"/>
<path d="M287.799 191.22C288.159 191.43 291.809 198.11 291.789 198.52C291.709 200.98 281.389 204.35 279.009 202C280.719 206.5 279.699 204.1 277.129 205.58C276.109 206.17 275.449 207.31 274.229 207.73C268.109 209.82 254.489 210.57 249.999 205C255.809 205.44 260.369 207.76 266.439 206.92C267.609 206.76 277.439 202.81 274.999 200.99C272.559 199.17 258.079 200.83 254.659 200.03C253.209 199.69 253.009 195.38 252.989 193.99C250.469 194.39 250.779 199.19 249.829 199.82C249.319 200.16 238.389 201.1 237.669 200.89C234.199 199.86 234.529 192.96 233.959 190.7C233.779 190.01 230.849 189.92 231.959 186.5C232.199 185.77 233.689 186.16 234.579 185.61C237.419 183.85 236.259 184.77 239.279 183.96C240.149 183.73 239.949 182.19 240.689 182.01C250.469 179.67 252.769 182.79 259.999 185.31C263.809 186.64 268.969 187.34 273.219 189.27C275.069 190.11 276.939 192.7 278.659 192.82C280.069 192.92 284.299 189.19 287.799 191.2V191.22Z" fill="#FF7B72"/>
<path d="M205.659 192.33C211.899 197.92 207.039 197.69 206.089 199.1C205.379 200.17 210.689 202.88 201.499 204.55C199.739 204.87 195.429 205.84 194.449 205.94C192.669 206.12 185.049 206.37 184.169 205.83C183.719 205.55 181.479 199.88 182.069 199.08C182.539 198.43 191.339 195.13 192.999 195.99C192.229 193.21 187.939 195.28 186.009 194.99C186.579 192.99 190.229 192.23 191.999 191.99L189.009 189.01C192.139 188.69 195.249 187.39 198.479 188.01C198.889 188.09 205.359 192.05 205.669 192.33H205.659Z" fill="#FF7B72"/>
<path d="M212.999 248C218.989 249.32 212.669 241.2 220.479 241.98C225.529 242.48 226.229 251.96 222.419 252.82C220.779 253.19 210.449 250.18 213.009 248H212.999Z" fill="#FF7B72"/>
<path d="M188.998 259C189.258 258.76 191.468 259.39 191.878 258.93C192.358 258.39 191.738 256.02 192.238 254.76C193.758 250.96 196.948 247.07 200.988 245.99C202.128 247.38 192.578 262.89 190.498 262.97C189.458 263.01 188.398 259.55 188.998 258.99V259Z" fill="#FF7B72"/>
<path d="M180.999 197.01C177.409 201.72 175.749 207.26 170.009 210C169.969 207.83 170.699 205.22 171.969 203.47C172.629 202.56 180.279 196.34 180.999 197.01Z" fill="#FF7B72"/>
<path d="M324.009 253.99C323.849 253.82 323.609 250.43 324.649 249.9L329.999 246C331.609 248.67 326.139 256.33 324.019 253.99H324.009Z" fill="#FF7B72"/>
<path d="M201.99 209C202.64 211.28 199.7 212.03 198.18 212.66C195.59 213.74 191.82 214.57 188.99 214.98C192.08 211.89 197.93 210.83 201.98 208.99L201.99 209Z" fill="#FF7B72"/>
</g>
<defs>
<clipPath id="clip0_162_1942">
<rect width="460" height="460" rx="230" fill="white"/>
</clipPath>
</defs>
</svg>
